<mxfile host="app.diagrams.net" agent="Mozilla/5.0 (Windows NT 10.0; Win64; x64) AppleWebKit/537.36 (KHTML, like Gecko) Chrome/135.0.0.0 Safari/537.36" version="26.2.12">
  <diagram name="第 1 页" id="bLJw0BXZSDK8PGsLh4fY">
    <mxGraphModel dx="2763" dy="1252" grid="1" gridSize="10" guides="1" tooltips="1" connect="1" arrows="1" fold="1" page="1" pageScale="1" pageWidth="827" pageHeight="1169" math="0" shadow="0">
      <root>
        <mxCell id="0" />
        <mxCell id="1" parent="0" />
        <mxCell id="0NQRz_JSMHpPG0OJIBoQ-1" value="演算法" style="text;html=1;align=center;verticalAlign=middle;resizable=0;points=[];autosize=1;strokeColor=none;fillColor=none;" vertex="1" parent="1">
          <mxGeometry x="60" y="48" width="60" height="30" as="geometry" />
        </mxCell>
        <mxCell id="0NQRz_JSMHpPG0OJIBoQ-2" value="" style="shape=image;verticalLabelPosition=bottom;labelBackgroundColor=default;verticalAlign=top;aspect=fixed;imageAspect=0;image=https://ww2.mathworks.cn/help/wavelet/ref/dwt2dnew.png;" vertex="1" parent="1">
          <mxGeometry x="60" y="80" width="489" height="283" as="geometry" />
        </mxCell>
        <mxCell id="0NQRz_JSMHpPG0OJIBoQ-3" value="" style="shape=image;verticalLabelPosition=bottom;labelBackgroundColor=default;verticalAlign=top;aspect=fixed;imageAspect=0;image=data:image/png,iVBORw0KGgoAAAANSUhEUgAAAvkAAAGaCAYAAACVNFwRAAAAAXNSR0IArs4c6QAAAARnQU1BAACxjwv8YQUAAAAJcEhZcwAADsMAAA7DAcdvqGQAAP+lSURBVHhe7J13mBRF+se/HSZvXhZ2WZa85JxUEHPECIpnRgX0EEQ5s9wpZ0LFw4ABxNNTRFSiqKAIggiC5Cw5LSwLu2yc2Ukdfn/Qb/9qmtkAEnaH+jxPPzNdVV1d9dZbVW9VV1cLuq7r4HA4HA6Hw+FwODGDaHXgcDgcDofD4XA4tRtu5HM4HA6Hw+FwODEGN/I5HA6Hw+FwOJwYgxv5HA6Hw+FwOBxOjMGNfA6Hw+FwOBwOJ8bgRj6Hw+FwOBwOhxNjcCOfw+FwOBwOh8OJMbiRz+FwOBwOh8PhxBjcyOdwOBwOh8PhcGIMbuRzOBwOh8PhcDgxBjfyORwOh8PhcDicGIMb+RwOh8PhcDgcTozBjXwOh8PhcDgcDifG4EY+h8PhcDgcDocTY3Ajn8PhcDgcDofDiTG4kc/hcDgcDofD4cQY3MjncDgcDofD4XBiDG7kczgcDofD4XA4MQY38jkcDofD4XA4nBiDG/kcDofD4XA4HE6MwY18DofD4XA4HA4nxuBGPofD4XA4HA6HE2NwI5/D4XA4HA6Hw4kxuJHP4XA4HA6Hw+HEGNzI53A4HA6Hw+FwYgxu5HM4HA6Hw+FwODEGN/I5HA6Hw+FwOJwYgxv5HA6Hw+FwOBxOjMGNfA6Hw+FwOBwOJ8bgRj6Hw+FwOBwOhxNjcCOfw+FwOBwOh8OJMbiRz+FwOBwOh8PhxBjcyOdwOBwOh8PhcGIMbuRzOBwOh8PhcDgxBjfyORwOh8PhcDicGIMb+RwOh8PhcDgcTozBjXwOh8PhcDgcDifG4EY+h8PhcDgcDocTY3Ajn8PhcDgcDofDiTG4kc/hcDgcDofD4cQY3MjncDgcDofD4XBiDG7kczgcDofD4XA4MQY38jkcDofD4XA4nBiDG/kcDofD4XA4HE6MwY18DofD4XA4HA4nxuBGPofD4XA4HA6HE2NwI5/D4XA4HA6Hw4kxuJHP4XA4HA6Hw+HEGKfcyNd1HbquW505HA6Hw+FwOBzOGeKUG/kcDofD4XA4HA7n7MKNfA6Hw+FwOBwOJ8bgRj6Hw+FwOBwOhxNjcCP/NEDvJfB3E84sNVHeNTFNpxvK87mY9+pSXdmw4ap7zV/hRO7B27lIGZzrsqhNWMuKl9v/w+USWwj6KS5Fik4QBKvXOYOmaWb+WXlQwyKK4jktn1MJyVQQhAiZ/1X5stWiOnGxZUuQHlTn+lhB13VomgZJkiLKxlpGsQ6rP9YmVhCE43SDZEToug5VVSHLMjRNi9Ata9vCutF/kn11sNYdcmPTAAAHDhxATk4O6tWrh6ZNmwIAFEUx27NzpWxZWB1nZXiuycKqa2z+o+mppmkRbqzesVTmFw2r/hJW/baml223CUojxRUtTKxglYdgtFHUlldH9pyaCTfyTwNWkbIVBkaDEssNxpmCOlj6fyoHT9E6iGhY7x8IBHDo0CG43W6kpqaaBtK5gK7rUBQFgsXgIdlIkmS9JCZh9ZLOWag9oP8w2gTdGCDRNaqqwmazmXJTVRU6Y1BG01HrvaznViguVsetcauqii+//BITJkzA3r170bhxY9x22224++67kZqaetyA5VyCylpVVZSWlsLhcCAuLs4sJ/qNdVRVBQw9tuaXdImVCel6VW0C1QtW7yuCyqEynaaDdRdFEYqi4IcffsCCBQvgcDjQt29f9OzZ08wXKshbLMDKRBRFHDhwAL/99hsuueQSZGRknDM6HKtwS/M0wFYIRVFQUlJiNj7cwD91UONEBiQ15GcS6kyocXz//fdx5513YsqUKeeUgQ+jPGw2Gw4dOoT//ve/2L59O2RZjtnOsTqQbrB6Eg0y4MlfEATY7XaIooiCggKUlZWZOs7Gxx4E1QFyq+gati2ipwX0n712wYIFeO+996DrOrKzs7Fx40b84x//wLfffgvEsPFTXURRRG5uLsaOHYtff/0VsMj+XMCqgxVhbZ9JB9mZfRZr+MqgsOw1ujGYoL6CDkqrKIoIBoOYOHEixowZg19++QVvvfUWHn74YSxatAiSJEGSJIjGYONcYOfOnZgwYQL27dsHnGAZcGoe0Xsczl+GGr3du3fjnXfewe7du80lDJxITlYmOjN7vnXrVpSWllarozkRqoqPTXteXh5+++03LF++HHl5eRHhYh2248zNzcX//vc/bN261RrsnIA1pOkgY4b+s0agIAiQZdk0JmRZNgdHeXl5GDt2LDZv3nxc/BQnxafrOiRJioiL9FM0BsKiYdTTf4qHnVGlMIIgwOfzYdq0abjyyisxZ84czJw5E+PGjUNqaipmzpyJ4uJi87pzESpHr9eLn3/+GTt37jT9TrZdq02w+sXqNZv3aPoKwFyKNnfuXCxbtiziejY+OiqSp1XHCVa32evpP6Vj/fr1+OOPPzBkyBDMnj0bb7zxBvbt24dPP/0UXq8XMAbhlLZYhfInCII5uOHUfriRfxpgGyOfz4dVq1ZFdIYVNVbnEjrzmLuixpOdgSHC4bD5nxr/5cuX47333kNubq55HREMBiOujyZ76ywS+8g3GAyaDT2M62nWlV1aAQDdunXDXXfdhUaNGsHlcpnXnAuw5STLMgRBgKIoEf5WOccqJAf69fl8WL58OWbMmIE//vjDnJXXNM00Zvbt24dZs2Zh+vTp2L17N2Do4bRp0/Df//4Xs2bNwoEDB8yOd+/evZg2bRo+//xzrFy5EqFQCJIkYe/evViyZAkWL16MHTt2wGazobS0FPPmzcPPP/+M4uJiSJKEQCCAxYsXY9y4cfjss8+Qk5MT1Ujzer3o1KkT7r33XiQlJSE5ORk33HADunTpgqNHj8Lv9xu5PjchnXY4HEhISIDD4Yjwj9be1GaonlN9Jn0pKyvD4cOH4fP5AKNtpnYSRjt88OBBFBQUQDcGo4IgYNGiRXj66afx888/Q1EUs04AwNGjR5GTk4NgMGga7OFwGIqimPentKiqClVVI+pUeXk5du/ebfYLVHfIyKe0paWl4fHHH8ddd92Fpk2b4t5770WLFi3g8/nM5TrUH8Qq7JO8+Ph41K9fH06nEzjH2u5YRBo1atQoq+OpIJYrRFWwec/NzcXSpUtx0UUXITMzE2Bmys412A6P7SREUcShQ4cwa9Ys/PTTT9izZw9SU1ORmJgI3ZhxOXz4ML777jtMnz4df/75J5KTk5GamoojR47ghRdewNy5c+F2u9GkSRMkJyfjyJEj+OGHH/Dtt99i9erViI+PR7169VBeXo6ffvoJCxcuxOHDh5Geng6n04l169Zh9uzZKCoqQpMmTSCKIlasWIGPP/4YX3zxBUpKSpCdnQ2HwwFVVc0ypLKm36NHj2LevHnIzs7GZZddds7UAypLQRBw9OhR7Ny5E7169UKjRo0Ai86fCzIhvd2/fz9Gjx6NH3/8Efv378fUqVOxYcMGtG/fHikpKQCAGTNm4I033sCuXbuwcOFCzJw5E4mJiUhLS8MHH3yAlStXIhwOIysrC23atMHSpUvx0ksvIT8/H9u3b8c333yD5ORktGnTBqtWrcJTTz2FL774Ag0bNkTXrl1RUlKCkSNH4o8//sDVV1+NhIQETJ48GQsWLEBJSQm++eYbrF27Fh06dEBqaip05qmMw+FAhw4dULduXdOAKikpwddff41mzZrhtttuO+eWpVkhg7agoADt2rVD8+bNI/xqO9Z2G0Z9lyQJqqrixx9/xPjx4zFjxgzMmzcPgiCgWbNm5mB/w4YN+OCDDzB16lTMnj0b+fn5aN26NTRNwwsvvIBffvkFhYWFiI+PR5s2bRAKhTBlyhRMnDgR33//PVavXo2srCykpaVh9erV+Pjjj/Hrr78iFAqhefPmCAaD+Oyzz/DVV18hIyMDGRkZ2L59Oz755BNMmTIFM2bMQDAYRPPmzU3DFUabpGkakpOTUa9ePdN91apVmDNnDvr27YuLLrooIv+xUJ7RoDovGMsEGzRogObNm8PlckX4cWof56a1eQaghiExMRHdu3dHcnIyEMONxInANpqSJGHdunUYPnw4Zs2aha1bt2LkyJF44okncOjQIYiiiB07duDRRx/FggULkJ+fj5EjR2LQoEHYsmULCgsLsW3bNvh8Phw8eBB+vx8+nw8vvvgiJk6cCFmWsXjxYjz++OPYunUrPB4PFi9ejCFDhmD06NEoKCgAAGzevBn//ve/sW7dOkiShBkzZmDs2LGw2WwIBoP417/+hffeew+BQAA2m8004qwEg0GEQqFzrlEUmaUhjRo1wogRI9C1a1fozIzZuSIPwRi4er1evPnmm5g3bx7uvvtujBkzBhdddBH++9//4qOPPgIArFy5EmPHjkXDhg0xZswYDB48GL/99hsmTZqEhIQEtG7dGvXr18fw4cPRt29fBAIBvP322+a6+DFjxiAcDuOTTz5BeXk5evbsifj4eOzbtw/BYBAA4HQ64XQ60b17dzRo0AArVqzAlClTcPHFF+O1117DxRdfjClTpmDatGlm+mkQLssy3G53hD5v2LABOTk5uOyyy+BwOCLK+FxEURQkJSXhkUceQa9evUxZxJpM2PzQwO6LL77A8OHDoSgKevfujU2bNuHvf/87pk+fDgDYs2cPnnjiCSxZsgSXXHIJDh8+jEcffRTfffddxOAwKSkJCQkJ0DQNEydOxAsvvIAGDRrgqquuwq+//oo33ngDgUAAsixj6tSpeOWVV/Dnn38CxkB00aJF+PLLLyFJEnJzc/Hcc8/hyJEjuO+++xAKhfDYY49hypQpgKHf9CSBXcpTVlaGRYsW4YUXXkBxcTE6dOgAMAZwLEPtt6ZpSE1NxcUXX4zExMSIJ+ec2snxVgrnL8N2eg0bNsSgQYOQlZV1zneGZCjQIcsyDh06hH//+9/Yu3cvnn/+eYwfPx4DBw7EjBkzMHHiRBQUFOD1119Hfn4+nnjiCYwZMwY33HADNm/ejF27dqF58+bo2LEjsrOz8fjjj6NVq1bYsGED5s+fjyuuuALPPfccHn74YWzevBk//fQTAOCWW25BRkYGfD6f2dE4HA507NgRffv2RU5ODt555x243W48/PDDePDBBxEKhTB+/HjzZSQwnR7bAYTDYQSDweMe28c61EEoioKEhAS0a9cOHo8n4tH6ucYff/yBSZMm4aKLLsJNN92ElJQUDBgwAG3atMG0adOwdetWfPXVV1AUBY8//jjS09Nx9dVXY/To0bj11lvhcDhQt25deDwetGjRAjabDZqmoUOHDhg+fDiaNm2K/Px86LqOnJwc5Obmwu1244EHHoAsy+Y7Ebt27YIsy7j++usBAIsXL8batWvxyy+/YOzYsVi7di1E4wXfUCgEGEuFaKkClZ0kSfB6vZg6dSq6du2KK6+80vSPdSOoIqgNEEURSUlJiIuLi1jiEQtY221i27ZtGDNmDOrUqYN//etfGDp0KF5//XUEAgG89dZbWLduHd555x0cPXoUo0ePxuDBg/HKK6/gvPPOg9frhc1mQ9u2bSHLMu6991707dsXkiRhzZo1aN68OZ5//nkMGjQIHTp0wOLFi7Fz50506dIFAwYMgMfjMZdR0mD0hhtuQLt27fDZZ59h6dKlaN68ORo3bozWrVujtLQU06ZNQ0lJCRBlCYogCFixYgXefPNNLFu2DPv27cM333yDgoICc8Y/VsrTCjuIEUXRnDBTFMUcBHFqL9zIP8Wwjb6iKLDZbEhLS4Pdbkc4HIbGrH07F7EaxgsXLsSCBQtw3XXXoWPHjrDb7XjwwQfRqVMn09BftGgRbrzxRrRq1QpxcXF49tln8eGHH6JHjx7mwIm2rgOA9PR0/Pvf/0b//v2Rl5eHtWvXoqioCAcPHgSMtfNXXXUVcnJysG3bNgDA6tWrccEFF6BZs2bYvHkzdu7ciQMHDuC9997DlClTkJSUZA7UouWDzmVZPifLVzeebFAnsW3bNhQVFUFi9stHDBk+lUF5Xb9+PXw+H1q0aGH6NWjQABdddBEKCwvx3XffYe3atWjcuDEyMjIAYz3sE088gTvvvBMA4Pf7EQgEzLXOHo8HzzzzDFq3bo133nkHc+bMwdGjRwHGGL/mmmvQs2dPLFmyBHv27MGiRYuQkZGB9u3bIxgMYtmyZUhKSkLLli2RlZWFO+64A+PHj8e9994Lu90OjVnXDObJBABMmjQJmqZh5MiR5vZ6tNb5XEUURZSWluK7777D1q1bI2aoY7EtIF1YtGgRduzYgcsvv9xcitqzZ0/ccMMN2LBhA95880388MMPuOqqq9CzZ08AwHnnnYeJEyfipptuMuNyuVzmO0yyLGPEiBEYOXIkVq1ahcmTJ2PNmjXw+Xymgd63b180btzY1P0NGzYgPz8fd9xxB3Rdx7p16xAOh7F27Vp89NFHKCgowCWXXIKuXbtGvCckWF7mzc7OxjPPPIOxY8eiefPmmD59OtauXWuGjdWJCmqT6Xfr1q149913zSfpnNoNL8FTDGvEyLKM0tJSrFy5EsXFxbDZbOeEkVMZGvO9AF3XsX79eni9XtSpU8cMk56ejp49e2LTpk0YN24cioqK0LhxY/P61q1b49Zbb0W9evUQCAQQCAQgGOtiAaBJkya4+OKLMX36dLz33nvmC4s0SynLMq666iooioJZs2Zh5cqVyMnJwQUXXAAYM1QejwfXXXcdLr30Uvztb3/DBx98gA8++MD8CBBr3LONv6ZpUFXVvBeFicXOnkVkdmrZvXs3Ro8ejdWrV0M0douxdqixDOlGIBCAqqoRj7xlWTbXve/evRulpaXmhABBHaumaQiFQgiHwxGyW7x4Md566y0AwG233YYuXbqYegcAqampuOWWW5CTk4Nnn30WixYtwuWXXw673Q6v14uysjKkp6fjrrvuwt13340HH3wQgwcPRps2bcy6RIM2nZnlmzJlCn7//Xc88sgj5lIGtj6fi9CA6MCBA3j33XexbNkya5CYgtoyXddx5MgRKIoCt9tt+rtcLlOPpkyZgr179yI1NdX0l2UZbdq0iVgDb7fbzYGiKIpo1qwZli1bhv/85z8Ih8No0qSJuSwMhjF+zTXXYMOGDZg8eTJmzJiB1q1b45JLLkFBQQFyc3PRunVrPPLII3j00UcxevRofP7553jmmWeQnJx8nL7qxvc9srKycOGFF+Lhhx/G008/jXA4bO6WpMXwTL7VyC8sLMTy5ctx+PBhS0hObYQb+aeZQ4cO4cMPP8Tu3bshnGPrtKPBykAQBLjdbui6bq6NJ5KSkiAYsyfBYNDcIYGVXygUMmeCyCABgIKCAjz11FNYsGABbrrpJgwZMgStW7eOmGG7/PLLcfnll2Pq1Kl4+umn4Xa70aVLF9M/GAyiWbNmuPjii3H11VfjiiuuQNu2beH1eo9r8Nn/qqpCUZQIw47SFctGLmsM0q4WpaWlEX7nmu63bt0akiRh9erVKCsrAwxj4cCBA3C73ejTpw9atGiB33//HUuWLAGMJTFHjx7F/PnzUVJSAqfTaT4NAYDDhw/j1Vdfha7rePjhh9GwYUM4nc6InUwA4LLLLkODBg3w9ddfQxAE9OrVCzDeEWrfvj02bdqEX375xQy/fft2jB07Fjt37oTArMmnAcc333yDd955B5deeik6deoEr9eLP/74Az/88INZzuciJJ9gMIiCgoLjthSNVZ0XBAGZmZnQNA3btm2L2IGM3lvq0aMHPB4Pfv31Vxw4cAAw5BUMBrFv3z5zNx3BWLpJvP7665gyZQoGDx6M++67Dy1btoTdbjfDCIKAq666CsnJyRg5ciS++eYb9O7d2/RzOp0oLS1FSkoKGjZsiKysLGRlZWH37t3Ys2ePqd+6sSsPmB3BqA61bdsWmZmZSExMNNMVq2Vp7ZfsdnvM5vVchBv5p5lgMIjCwsLjHhNyjtGtWzd4PB788ssv5rKDYDCI3bt3o0OHDhg6dCicTiemTJmC7du3QxAEhMNhzJo1CytWrDAb5nA4bHYC8+bNw08//YRbb70V3bt3hyAIKCsrM19EBIB69eqhf//+KCwsxG+//YauXbuau51kZ2cjHA7j888/x5EjRwAApaWleOONN/Djjz9W+gjT5XJFbSRj3dBnO0jdWMJhs9lMP9Y/1qF8du/eHb169cIvv/yC+fPnA8YL3suXL0ePHj1w1VVXoVevXti3bx+ee+45TJ8+HStXrsTo0aMxb948OBwOxMfHo6ysDMuXL8eBAwewePFic0veLVu2YP78+Vi6dCn279+PtWvXmu1My5YtTcPniiuuQHJyMnRdhyzLuOKKKxAOh/HCCy9gwoQJ+OSTT/DPf/4Tubm55qwrW17Lli3DqFGj8Mcff2DmzJkYMGAA7rnnHtx3331YsmTJObddLAvV87i4OGRlZcHj8UT4xaLOU5569OiB7OxsLFy4EJs2bQKMCZZly5YhOzsbTz/9NDp06IDvv/8e77zzDvLy8lBUVISPPvoIU6dONZ8CqKpqDhK2bduGmTNnIi0tDVdddRWCwSC2bduGQCAQ0X6fd9556N27N7xeL1JTU9GjRw/AeIrVqVMnbNiwAR9//DG8Xi98Ph+mT5+OsWPH4tChQ2Z7BGNQXVJSgn379sHn85nuK1asMHengjE4sT4BiFUyMzNx7bXXom7dukAM91nnCnwLzdOIIAgoLi7GsmXL0L1794g13eeqfNiGUhAE1KlTBzt27MCcOXOQkpKCjh07YtasWfj8889x55134p577sHGjRsxf/587N27F6FQCP/73//w448/4oorrkCTJk3w/fffY/ny5UhPT0coFMLcuXOxZMkS1K9fH3FxcZg0aRLmzJkDVVXRqVMnc/1oQkICfvrpJyQmJuLpp59GWloaYMxkrF+/Hj/++CP27t2L/Px8fPnll9i8eTNuuOEGZGVlmTNQVI6C8eGgGTNmYM6cOcjMzESvXr3MT9yz5R7LZS8YT19EUUTHjh0jHsuTf6xDeUxISED9+vWxZcsWLF++HIcOHcLPP/8Ml8uFxx9/HI0bN0ZaWhoOHz6M+fPnY86cOfj5559ht9sxZMgQNGrUCD6fD/PmzcNvv/0Gv9+PFi1aYP/+/Vi2bBlWrVqFQ4cOQVVV5ObmwuFw4IILLkB8fDwkSUJxcTH8fj8GDx6MevXqIRwOQ5Ik1K1bF6FQCMuWLcPChQuxceNGdOrUCf/4xz/QoEEDKIoC0fiIkN/vx4QJE7Bo0SIkJiYiLy8PW7Zswfbt21G3bl0MGTIk4p2DcxW73Y7GjRujY8eOEctTYlHfqQ2rW7cudF3HTz/9ZA4QP/vsM6xevRqPPvoo+vfvj1AohF9++cV82XvWrFnYsGEDbrnlFrRq1QqHDx/GtGnTsG/fPpSVlaGgoAB//PEHNm7cCL/fjyVLluDnn3/Gvn37EB8fjwsuuABOpxN2ux1lZWVYsmQJBgwYgD59+phpS05OxuLFi/HDDz9g9erVmDt3LubPn49rrrkG119/fcSTMVEUsWDBAjz66KNYvXo1/H4/5s6di+XLl6Nfv3649NJLI9q0WCxPgmRCOwImJSVF9HOxnPdYhhv5pxh21CsIAhwOB+rVq4dmzZohISHB3GP9XJSPdUZA0zR4PB60bdsWJSUlWL58OVauXIk1a9bgggsuwPDhw5GZmYnGjRtjx44d+OOPP7B48WKUlpbi3nvvRZ8+fSAaL70tW7YMOTk5aNq0Kdq0aYPdu3djzZo12Lx5M2w2GxISElBQUIBmzZqZszMejwd+vx+tWrVCnz59zJnnhIQEZGRkoKysDAsXLsTq1auRmJiIESNGmC+Q6caaZbYRXLx4Mb777jvExcUhMTERiYmJyM7OhmTsJw1m7XqsITCPwOPj49GhQwdz0ETu51JHQXlu2rQpzj//fNjtdpSWlqJ79+548MEH0bZtW2iahpSUFPTo0QNt2rQx1wQPHTrUXPOempqKBg0aoEOHDrj66qtxySWXoGPHjmjevDm6du2K2267DbfeeivOP/989O7d29yfXNd1pKen48ILL0R2drb59ElVVbjdbnTv3h09e/bE+eefj9tvvx133XWXabQRVKapqano06cP7rjjDvTv3x/9+vVDv3798MADD6Bbt27nVLlGQ1EUOJ1ONG3aFKmpqVCZD/zFklyonAXj/SdRFNGuXTtkZmZi586d2LBhA5xOJ+6//370798fDocDrVq1QlZWFsrLy3Hw4EGkpKRg6NChuPbaayGKIjweDwoKClBQUIDmzZvjyiuvRGpqqjkDX79+ffTu3Rs2mw1JSUk4//zzER8fDxh1IysrC1dddRXq1q1rpikzMxNNmzaFz+dDXl4ekpKScM899+C2226Dy+WKWG4pGE95V69ejb1796K0tBQulwv9+vXD1VdfDZvNZrbdsarnbNutGTsV2Ww2czAkMF/ppnNO7UHQrZbXX4SiO1cVgc2/qqoRO08oihJRYc5FSD6snKihXbFiBXJyctC8eXN069Yt4sMlu3fvxvr16xEKhdChQwe0bt3abHC8Xi9WrFgBWZbRvXt3uFwurF+/HgcOHEBiYiJatGiB0tJS5ObmokmTJsjKyjLjLS0thaZpSEpKApgX6QAgPz8fa9asgcvlQuvWrSOMVhhpZzsMehzt8XigGR+LycjIMDsKKvtYhJ7QkDxoYKMzgyGR2bEllqEOE8yabSvUobLtgxVr+1Ed6N66Zdcbq2ETDWtXUFX6CLbOnEtQGYrGl1gPHDiAhIQEcxOBWO0L2Tacyv3IkSMoKSlBRkaGucsZtc8w3iUpKipCnTp1TPmQ7IqLi+Hz+SJ2oSssLIQsy0hOToYoiuZSzuTk5Ag9pjqiGbvWsX1rSUkJysrKkJiYaA4M2AGYyLxYXlxcbG6OQemgPFA6Y60crVA+9+zZg59//hnXXXcdMjMzTRnHqj7HOtzIP43oxos9gUAATqczonE6FztFK6zqRdOXaA03oVdiSFVldETTUYpPYHYWiQZ7bVXph6Wji2WoM5QkCUeOHMHcuXPRvXt3tGnTxqwHgmH8n0tE0zXWryJ3MDpm1VPrNayb9VrWv7o6iyrqEMXHxoUq4otVSBYHDx7Ev/71L1x44YV44IEHIvxijerkq6pBZUX1ojpxR7tWZ9pvqx8bhvyqWw+qk57aTDRZLliwAE899RTefvtt9O7dO2L1QazLIxaJ3opzTgmCIGDv3r2YOHEi9u/fD8n4sASvJMc3uKqxK41qfISHGm3N2BqQDUPfGyA5qqoKzZhJph0byE1RlAg3uielge7BpsV6T4qLBh3W9LPnBBuv1T0WEZiB6759+zBx4kTzZTzE8DKlqqD6TrpGsHp0Mv9Z/aL/Vv1msd7fSrT4K7ovnbP3iXbPcwHKd1lZGTZt2mS+qB/LkD4TVr2w6garO2wbykJ+YCZ3Kjqs7TdB7tb0oYKwbFxs+84edG20tjwWqKj/grFLEixtGKf2wY3808zRo0fx66+/mo8bcQ53iCzWhoMaUjqnRpUGRhqz9p2MSdY4h2HsE2zcorFchL0X+8uWh2DMNtM1FCcZqdayo47C6k7pjOYei7CdoqIo5n7rrF9FM8OxiLVDZHWE1Zlo+sDqjjUc+0vypP/WpyR0XXX0kI1XMOoAuVnTa02PNa5zCbYNEixbQSKKHsQKbJlXpA9WNyGKXrNxkJ+1rWXDR3Oz3pfOWazhYXkCLBpLCa1h6DzW2y62/a5Tpw7atm1rbh+qG32zVTac2kFsa+5Zgq0wsHwiPlYb/b8CNR5kXFsbW3Jj/1dkuEiSZBo7rOFD4dnGynq9FWrcKwtXmd+5BDuISk5ORufOnc21t+dCJ2mlMr2w+tF5dXXSGoY9t/oRrM5XFCYaJxr+XCUlJcV88ZkTqdN/hRO9vrLwlflZORf1ntrvli1b4oUXXkCrVq1MN2631F74mvzTAM18wXhhdNq0abj++uvRpk0baJWsdT3XYeV2qrHO+p/ofbheVw497pZlGeXl5dizZw/q1auHOnXqHDfbyeHECjRpEA6HzZfuaa98as+4znNqMtZJSdY+YZcAcruldsKN/FOMNf+hUAh+vx9OpxOyLEPTNHOrRs6Zgx1AWMuoOpzOAUgsoBvvL1ifwtBXidmnMRxOrEADWD3KlroEbzc4NRnWyBeNLal37tyJJk2aIDk5GWqM7wwX6/BSO8VQA08VR5IkJCYmwuFwmB3AKR5X1WrOlCxYA9/aCVcEm7bqhD/XIbn6fD5s2bIFhYWFUb/+y+HEEqIooqysDB9++CEWLVp03ECXw6lNbNmyBf/85z+xZcsWwNJ3cmof3Mg/DbCGZFFRERYsWIDDhw/DZrNBNPbm5RzjTHeEJ3K/EwnL+X8jf//+/XjttdewfPlygJnlZ2eMOJxYorCwEDNnzsS6deusXhxOjcbaLpeWluLQoUMIh8OA5X0ra1hOzYcb+aeZoqIifPPNN9i/f7/pxo1HTqzBdgSapiEnJ8fcUYrdqYXDiSVIrxVFgdfrhaIoph83hji1Bbb99ng8qF+/vvlBMNpCmiZxeFteu+BG/mkmFArhyJEjCAaDAF/bzTkHcDqdaNGiRcSXP7nOc2IR0muHw4E2bdpEfE2b9edwajKsnrZs2RIjRoxA8+bNAWOSht2elw9eaxf8xdvTAGvU7Nq1C2+++Sbuv/9+9OjRI+LlxBNHB3Ay13E4pxdajiPLMkpLS7F+/Xo0atQIWVlZ5iNeenHr5HSfw6l5UH/n9/uRl5eHxMREJCcn8xlPTq2CfV+QfcE2HA6busy6c92uPXAj/zTAGvl+vx979+5Feno6kpKSoKrqSS1f0KEAqgpdckAAQN/fYz9/o0OHrgOKIEAHYNcACDogCMeGBlTSdGtdh26EFQGEAIgaIAuRY4moM7FWrbFmR2fHJPqx4EYcx5wMz2jXWbGG4dQ4yMinjoDePVEUBZIkmVvH8h0aOLFEtO1hw+GwOfPJjX1ObYE1Bdldo8B8Z4brcu2D97inGLai6LoOu92O1q1bIzk52VyveTLjqjBEhOCAGFKh+4og+IIQLF/a1nVAVxTopaWAr/yYaU2VMtotBQG6rkD3lQHeIBSo0IUQoB//CW9rvnQAumAc0cIxAwUNgMra/Dh2olte4tF1PSLOYwMD05tTgxGMD5FReaqqas4CwfJBMw4nVhAEAaqqIhgMYufOncjNzYXNZuPGEKdWIggCdu/ejbfeegvbt2+HLMumLnOdrp3wXvcUw1YEGvn6/X4oimKen0xlsemAXQKCu1bj6OAH4Rs3GaJhi+uaDmjHZuVRchjeJ4chMPRZhAq9ODaZb7HwTQsa0A/noOyJJ5E/ahxsvjBkwf7/AwMDa5oFwTIDbzH0TQyDHYIQ8TRB146FPuYcGa8x538sCScuJs5ZRNM0SJKEvLw8vPvuu1ixYgVkWT6pQS2HU1uw2Ww4evQoXnvtNcybNw9g2syTaes5nDOJdbJt9+7d+OKLL5CTkwNw477Ww43804DA7IVfVFSEb7/9FgcOHIAsy9ag1UbQhGMGe9F+2Od+i/DazQBFJwqAeMyIFhwuuK+4BvLVl0J02I4VsGGUHzO4GeMbAIKlkBf/BNvSNYBkgwCYS3gA4+mA2Qgcc6V5fiY60x4XhGPpPPadvGPuIo4lVdB1QAAEI70acx8YS41EGIMBJk5OzYc1aHJzc/Hll19ix44dgPHilrUj4XBiiVAohC1btiA3NzfCnes8pyZD+sm2z06nE263m+tujMCN/NMAWzny8/Mxe/bsiMb/ZCqPLh0zoATRgUByCgSnHeH1GxGYNgP+Ob8gXFIOAFDcLtiysyA0aw5RdkIHoAYPI7xwPryTvkR45RoE/twM/3cLoZepEJwOhBJTEE6RoO3cjLLvZsD7/ffQDh1FCAD0EARNhyDo0CFAKc1DaM730FZthLppHbxfToV/znyoJQGEAIQBwH8U2rKF8H7+DbxTpiO8diMUVYcqCFCgI7x9PXxfT4L/06/g/3Ulgl4fFAiAoEMvzIP/h9ko/ex/8M6ai/CeY7MJx4SgR11KxDn7sEa+w+GA2+021yXT+k4OJ1ZxOByoX78+nE5nhDufBeXUBlg9TU9Px4UXXoi0tLSIMDUd1q6qysaqaNIpmlttRxo1atQoq+OpoDY3blTQJ5sHuk4QBOTn52POnDno1q0bmjRpAt34Cu7JIh7cCXnmfOhHwgge3IfgwjkI/vcraCUKHBf3gh4sRMnDd8M/exvc/fpCcBch8PILCI76BNruA/BvWInwF59A+3oxpD7XQqwjQPh6KqRdBQgdOApt6WKEPvkawpZCiL27Q4i3QxEFaNAgQoSyfQ1KH3kS4dm/AOs3IbRyJQJTv4Jvyx7YzrsIdjkI/wv/hPLSRKhHchBcNh/qlPkQUxpDb98YwoLp8D39Cvyrt0LdvhWhjydD2FYI6eqLgMK98D7+L5RMmw1nTg6Er2ai/Ps1kDq0h9CgzrG1+roGUeBj05oGNZqCICAcDqOoqAitWrVC8+bNj6tPJ1uvOJyaCA1wExIS0LFjR2RkZET4cTi1BV3XER8fj06dOiEjI+O0vUDO9hd0zv7HCdQd2uOf7V/oP/tivJVo9xGYVRhWv9rKOWEt6boe8bEHK5qmRcw26sYXOhVFMa+p7mwkKS+Rnp6OO++8Ew0bNozqX10E/VhhaVIY0MsgKEHY7r0XCdPeQ3z7FGDyDAR3FcAm2uAq0+EIi5DdAgK/zob33emQLrwSnumfwj38dtiO7IdQVggdNujQEZJ8CPhCkK67GslfjEPcVW3h/WEmtA07oUMGdBEwltHYNQEOXzkCeSVQ+t+L+OmTEHfnTXB89jm0j76GJjkQbNkGyiOPIu6HaUh9fijU/VtQPusHyIEy+P83Ccq+MqSO/RgpMz9F/NP3wNG+KQQ5BGXejwjOWoi42wfDOXsW7B++DMeV3SC6jz2RECH8/zIjTo2D6ljdunUxYsQI9O7dO6IOnYzeczg1Geor3G43brzxRnTu3DlC5zmcmg5rH+m6DofDgYyMDMTHx1fb7qkuVluMtYfoPx1smiqrT4KxvafOGPp79+7FwYMHTXey8Vhbjw27adMm6JYvs7PX1WZi3sinwqKvtrEKVVEBsqNA9qhM0QgaRVIcSUlJuP3229GkSRNoxouJ1YmnYlQcFXSE27aBvVc3yAmtoLdtCjXog+YNQ3MAql2A4pYQVv1Ql66FFPJA6tcXqJMCe68b4bj0UmhwIKwJEFQNCLqgNmsFx5WXQ01oAKlTM0haKcSCEggAbIoOm3osPyExDF0II75TdzhvvRpCXCKct94AoVkSfIt/gyLaED/wYbgvbAv10y9xdOocqHI54FWghlWIjepBLDyM4jfHwD9lPoSLr4P02N2A7ICWaIOWqEP4YiZCr3+OoCMBtn8+ALF9I8gKICg6ZL5Sv0ZDW8QmJibC7Xab7rEwI8LhVAZNDP2VJ7UczpnE2i5LkgSfz4fNmzejuLj4L71HWBlkf7F2GdlZNJtu9a/IbqLwoihCURRMnToV77zzDoqLi4EKBg9k9wmCAK/Xi/Hjx+Onn36KqLuCIJyQ7VdTiXkjH0Yhs8a33+9HeXm5WXDkTkrAGul+vx/BYPCEdgmhcGx4URSP20v8RNAFQAEghAC74oboqQ8Nx9xCsgJRKoccDgOqirAsQIEAMRCA7WgBNJeEULIDNgACQlDqumCDAlkSocgCBE2D0+WCIB1LV0iVoAkyoElQASg2HbooQAUgQIUm6lDr1IEoHXuhNhznQrCODbaQDeLOXfA9/zBKB45EaM5KuOQ42JxJsAdk2IQkiMMeg/xwXwir58L32D/gvfFuBIa8hPARL+x97kTqqGcgJJbAP+YZaDcORPi6JxBcsAZhGVDlCnbx4Zx1SNepoV2/fj1ycnIi6o21Q+FwajuCsXVseXk5Jk2ahPnz5x/Xn3A4NRlql+l369atGDVqFDZs2GDuj3+qEIxZd4n5iq4kSaabYGxJK4oiZFmulq1ENhsALFy4EJMnT0avXr3Qtm1bgPliLx2yLEMyvt2iaRratWuHHj16YPz48fj9998j7smms7ZStQTPMNZGkT0/2UaTFEsURWzfvh1ffvkl9u/fD8my6wcbtyAIkGUZW7ZswaRJk5Cfn28++qkqHaxRU1pait9//x0FBQWw2WxVXlsRtA+NCjscagiSrsN+bLMayGEdsmqDKgoQFBU2TYIzDIiSE3rd+rB5Q1AOHUUYQBhBhPYcgaKLEHQdii5A1MMQNRugypAACLoKSZcQEiTY6YNbgg4RgAQZsi5C37kHWoGKIACpoABxu71QMuOhblwO/b0pEHtdCvvUcXAPvRWw2RCWAghChzO9DWwjX4Ln13lImf4h5PYJCIx/A4FpCyFLbuDe+2CbOh3xv30Pxz+uR3jJdJR8NAWaDgjQuJFfQ9GYj10dOnQI7733Hv744w8AMGeD2MaYw4kFqC0vLy/H5MmTMX/+fNOP6zqnpsPaKoTX68WuXbtQVlbGhPzrsLYTO5seDocjZu1hPBWjSVEw6avMfsrLy8PHH3+MBg0a4PrrrweMeAKBAEpKSqBpGo4cOYJ9+/aZH6wLh8MAgJtvvhk2mw3jxo1DSUmJaehXdr/aQo0x8kmY0QrTqhQnAsUhiiL27NmDsWPHwuv1IisryzRM6J7WUasoisjMzMTKlSsxceJEc697Sk9Fhc/GcfjwYXz00UfmdoIn2/ArEBAEIOohSOVlUJVShCVAhwYxFEA46IcihaE4NCDgg6O8FAGHA+qNN0CpJ0H+8D2oC5ci8N7nEBavhs0mQdc0yKIINVSOsOpFyKYem63XwlADJRCFAMLGdpiUal0XALcEZfty+N94F+IfCxEe+wGCxRLibrkRQkYKwrINwp7NUFcuQdF/v4Kw/xAUewBCKB/+t0bD238gsGQnlIYNICa7EXZnwpGRDmXlbyi+6TYE3/4f7LY4oHEW/AmJsCWnwG5szS/y5To1EqoXABAIBLBjxw74fD6Aqb8cTiwTDAYRCoWszhxOjYXsEdYuSU1NRdu2bZGQkMCE/OsIgoDDhw/jtddew0MPPYQffvgBwWAQn3/+OQYPHoyRI0fizz//hCzLmDVrFh599FGsXbv2uCU0VhuM0v7TTz9h+fLluPTSS81drjZt2oTHHnsMDzzwAEaNGoVhw4ahX79+eO2113DkyBE4HA5omoaEhARce+21WLZsWcRAPRaoEUY+GfTWkRsdrEF9okayYMzil5WV4cMPP0RZWRnuuOMOxMXFmf50wBj5kbuqqsjMzMRVV12FqVOnYs6cORFxV4dQKIRDhw6hvPzYFpcni6QDLgCClIDy7HZQM+pAAiBBh5raGFrTlnBDgE2xI5zVCoGs+rD7AnC1vgjOD0ZCEIrgf/IlCBt3wNWyIbzxMlQZsKtOiJktoTaoB5uuHtvT3pUJpWULwGWHSC+8minRgZAAqV0baDiA0CPPonxXKcSxr8J560Wwn9cNticGAwdy4R/+JuRwEtTrr4GgAvBpcHRuCpe7EN4xzyNwz5NQ9whwvvNvOPp2h1jHCU+zugj8+g3K7noA5e/Mh+vOh5D05L0IA9B0/f836efUKGgWH8YjzgYNGiAxMREw6rd1AM3hxBIejwdXX301zjvvPKsXh1OjsRr6TZs2xeOPP24udzmVEzQOhwPLli3Dxx9/jC1btsDj8SAUCuHzzz/H7NmzTTtv3759mD9/Pvx+P1DBU2CyGen/b7/9hrp166JLly5mGJfLhRUrVmDGjBlYuXKluTXoa6+9hqlTpwJG3wUArVu3BgD8+OOPCAaDx92vtiLoFU1HnyQnY4yzs/SyLGPnzp1YtmwZBEFAp06d0Lp1a7MgTiRelhkzZuCFF17Av//9b/Tr1w8AcOTIEfz+++/w+XxIT0/Hrl27kJOTg86dO+Paa6+Fy+UCjL3uH3roITidTowfPx4JCQnmUwAr1vzv3r0bH3zwAW6//XZ069bNXG92ovnQcGyLeC1QBu1QLgRHCuSMVIQkAIcOQSoJQWyQBTh1qAf2QxcTYK8fD6WgEEJIh+K0QRQdsNexwzd8MAI/7EP8nJmQW9aBtncrdMEDsX4WdJsG5OdDKzoK1GsCMcEFEToEQQMgQd2wAIFbHkR5l5uQ8MmLkA8dhOBOhVC/Do7tpK8DqhehA3kQwwL0hllQ/cWQcr3QGzWCw22DECpBOOcQ9PIQhPR60NLSIEGECuWYDX8kB3J+KXS5DuRGmQg7AVFXIKkiFEGATfr/D2ZxagY0EJckCV6vF9u3b0dGRgYyMjJMnSdjn8OJFWiCCsaSHUmSIvbKP9F2nsM5W5Aus200O+n5V9tuMtQnTZqE4cOH45FHHsGLL76InJwc3HjjjfB6vZg1axbatm2LUaNGoaSkBKNHj4bT6TwubXROfU5OTg769++PRo0a4ZNPPoHH4wEAKIqCv//975gxYwamTJmCq6++GrNnz0b//v0xcOBAvP/++2Yd/fPPP3H77bcjKysLkydPRmJiommXCqd4C9EzyV8rtVMIvRCxdOlSjBo1Ct999x0mTZqExx9/HOvWrYNg2b/0RPD7/fj++++RlJSEbt26me6HDx/G+++/j8GDB2PcuHHYu3cvfvrpJzz55JNYtGiRGS4tLQ29e/fGqlWrsHHjRoAx5iuC/OvXr4+hQ4ciOzvbVPKTURYBgCDoENzxkJu1hK1BGkQBsGsibBmZEFs1AeJkiJINcuNmkBqmQZCdUNcvRPltDyHw8lgovy1B6P3xCM1eD6lTN2iZxtOMxq0gNcqCJAOyCghp9SC1aAMp0QVZ0yFqAnRdggIASghiaTkSDhdDlj1Qm7eEVr8ORGiQdB2AAFFKgLNRC9ibZ8Nud8KdmA5H6+awu2Xo0AB7ImzNWsHevgNsafXggAhZO7be3wkZrrpNILftCFvLTAjOY+8E2CBCFAVIxkfBzgRVlfGp4kzd53QjGE+/4uLi0KVLF2RkZCAUCkEwnsZxOLGGziwljYuLg8vliljWGSt1mxPbkG0iiiJCoRBKSkqgKApwCgeqFE/Pnj3RokUL/Prrr/D5fNA0DYWFhdi5cyfWr1+PwsJC7NixA7169YLT6YwwtOk/1SuKs7CwELm5uXA6nccNUjRNQ2Jiovn9itTUVLjdbgSDwYh+yel0wmazReyQZb1PbeSsG/ms4asoCiZPnoxVq1bh3//+N1577TWkp6cjPz8fMARdUaNJDWo0/yNHjmDLli3IyspCnTp1TPeWLVuiffv2EAQBV111FV599VUMHz4cBQUFmD9/vjmKBYDGjRvD6/WaRj4pnPV+rDLoug6n04kmTZogMTHRXI5kvaYyzPC6DlEQIBsvwgoAIIoQxWPndAjCsUKVdR0aAPm8q+DqdwnkNSvgf+llHJ00E7jmOsT/+1HY4pwQtWPXicCxzfglMSI+SAI0UQf0YzvpaPZkFHXsisIWDaDrQTgAqJoKFTogiBB1ZmmP/v8vDFP0gl6ByonH4ifpCcwhA4AgAqLw/3k/RVRUHlS21TnYsNThW8NUdtTmBoRg66au6/B6vfD7/Xx3HU5MQ31XOBzG8uXLsWPHDthsNtOPD245NR3qt6id3rdvH8aPH489e/aYm5OcCiiepk2b4sorr8TatWsxZcoUzJs3z/xK+jfffIOJEyfC4XCYE7Jsf0r9jLXftNvtcLlcx6WV6iD7Uq8kSbDb7cfZk5IkwWazQZZlM27rfWojFVhcZw+bzYbc3Fz8/PPPaNy4Mf7zn/+gZ8+exxUewSooq6hs+NLSUvh8PiQnJ5sNsKZpsNvtyMzMRJs2bXDhhRcCADp27Ij09HQcPXrUHMkCQEpKCjRNw4EDBwDGYImmAKyfqqooKSlBMBg8ocddpMjsQQZkRQebdx06oGhAUhrUp56A/PMsJMybiaQ5M+EZ/yrEdo2hqoAfrFF6/LcBNE0HoEHUFGiqBrVVJyR//V8kvfkYQjYJerkOu6ZD1/Rj/poKzXgzXtVUqOqxCvb/A6bo5Xg2iKYz7GEN9/9yiiyLivyt8UXzi3bfyg42vTUJSpMkSSgoKMCHH36IZcuWmUvTamq6OZy/iiRJKCkpwRtvvIFp06aZ7sIpWOLA4Zxu2H4Ihr1EOwKiAhvnZNGMffBvvPFGpKWl4cknn8Qnn3yC559/Ho899hi+++47fPDBB+jUqRMaNmwIjRkkU19CO+KQGwA0aNAAbdu2RVlZGQKBgOkvCAJcLhdsNpuZD1o1YrfbI74DUF5ejlAohMzMTDgcDtO9tnPWWyCBWb4iyzLuuecedOzYEU899RQGDBiA1atXm+urKDxhNYCs/kR5eTm8Xi9kWY6YZYExqKA3rMk9ISHBXI9PaMZokHZPiHYfgjVmjhw5gk8++QR//vnnCa3Fr044a/5ZOeg6jk2dBxXIqgbdlQChTj04U1KPrX/XNKiCDlEHgMqXEQkAdFGDCBV2wQlXcj24ElLgEmXAoSEsHNuBpyoDXq9ho2LB6ISjpUmoYBclVsYUjj0qIlo4+rWWn/WgMNa01FTKysowb9487Nmzx3Tjxg4nltF1HYcPH8bRo0cj3CprEzicsw3pKNsP6roORVFMY/p06HCbNm3QuXNnFBcXIyMjA7fffjv69OmDxMREOBwO9OjRw3yPSzfW4muahpKSkuP6RQCIj49H27ZtsXfvXuzfv9+8TygUwtGjR+H1es38eL1e06BnBwx79uzB0aNH0bp169P2EbCzwVnvecl4URQFiqKgc+fO+OijjzBgwAD89ttveOyxx/DLL7+YRpfVyCEllYyPFrAGFIVNTk5GnTp1UFZWdtwuN7R3Pc3aUxyBQCBiuY6iKJBlGfXq1TPdKlJ+No3FxcVYtGgR8vLyjvOrDMoX5UM0di+p6GArqvlfkiA4RMiiCBcAEToAHRJ0yKIOFwTYRRGi+P9bVFnjFUUBAiQIggxdEo9t82OY86IgQJAkOEQZDlGGaPnohPUQauDja1bG7LnIfLCjssMqr4r8KF6K21pWlR1sekiG1dWjMwUrQ91YpkYDZVaXOZxYgtozXdeRlZWFhg0bmn7R+isOp6bB9k0AULduXVx//fVIT08HTsBmqQr2HnFxcejTpw/cbjcuu+wyyLKM1q1b44ILLkDHjh3RsmVLgFmqs2bNGjz++ON48803I5aB6ob9CABXXnkl/H4/FixYYN5z48aNWLVqFY4cOYLvvvsOgUAAq1atQnFxMZYtW2Z+ywUA1q5dC5vNhgsuuMC8dyz0WWfdyGcNHfpqoKqqmDBhAt544w3k5eXhxx9/NA1dMEqnG29WkzsLawilpqYiMzMTe/fuRVFREcDEoShKhEEvGl/sFIyPYRF5eXmw2WzmtlLsAKAy7HY74uLiIDF7vVan0ujG9lCqqkZcy8JWzmgyEABIEM1F7CJEHNuX5pgPRKBaOizg2Hp7SJCMGOhuuq5D1aK/a8BWQEKzLC0627Dp1pkZDK/Xi1AohEAgAJ/PB5/PZ84A+P1+BAIBcxmY1+tFaWmpeZSXl8Pn86GkpATFxcUoKytDcXExCgoKUFhYiKKiIhQWFqK4uBherxc+nw/FxcXIz8/H0aNHUVhYiKNHj+LgwYPIzc1Ffn4+ioqKzO3EapL8YKmPuq4jISEBN954o9lQx0JDyeFEgwa3SUlJePLJJ3HTTTcBzMCWw6nJkI5S263rOho0aICBAweiWbNmUfv1vwpNqF5++eV45pln0Lt3b8CYjP3HP/6Bv//970hOToamabDZbNi5cyfeeOMNvP322/jtt98qtL169uyJPn36YMGCBTh06BAAwO1246677sLw4cORmZmJ4uJiZGdn49lnn8Udd9xh5v/w4cNYsmQJrr76anTu3NmMk5VPbaVGbKFJDWJRURHuv/9+pKamYvz48di+fTvuuOMOXHPNNXjjjTciBK0bRr+qqvjjjz+wYcMGNGjQAF26dEH9+vVN41I0HvOMHj0aX375JT766CP06tULAODz+TB06FBMmzYN48ePx913343Jkydj6NCh6N27N9577z00atQIAPD4449j5cqVmDJlCjIzMys1vlkZlJaWYtWqVcjOzjY/wEWGeWXohpEvyzK2bt2KP/74wxyMkEEviiLC4TDC4bBZceilETIEaSaYKqtqvPxLgyON2Qo0FAqZ5z6fD4qimC+oiMajM/rAUVxcHMLhMEKhEBRFgcPhgGjMPMOoyIIgIBgMQlEUNG7cGP3790dGRsZJ6cjpgtUpQRBQVlaGyZMnY/HixUhJSYHdbjeN/VAoBEmSzBnq0tJSuN1uqKoKr9cLVVXhcrmQmJhoDgQ0TYMkSVCNF39IZ+jJEC1FEwQBfr8f4XAYLpcLoVAIxcXFcDgccDqdCAQC6NChAwYOHBjxIbeaAMkwHA6buk16KstyxIxITUkzh3MqYA0Otm6zfUNNaOc4nIqgiTfq50lfyZ21N/4qZIfQoWma2UfA8nV03bALS0pK8OOPP2LYsGFo27Ytpk2bhrS0NPN66nMEQcD+/fvxyiuvIDU1FSNGjEBaWpqZBwpvtdvy8vLwxhtvoLCwECNHjjR3QrTaKbW1Hp91I5+EKRoz+S+88AJ++eUXXH755cjPz0cwGMSTTz6Jzp07m4Wk6zpkWYbf78eHH36IOXPmoFevXnC73di2bRsefPBBnH/++QgGg5CMlyx27NiB4cOH4/zzz8cLL7wAANi2bRteffVV7NmzB3fccQfuv/9+TJo0CV988QWaNGmChx9+GD169MCuXbvw97//3Rx5gnmUU1k+rWFUVTUrUlWQggPAs88+i08++QStWrWCzWYzDShRFBEMBmG3282to+ipQWlpKTTjPQIyuOllEq/XC5vNZm4jpSiKGZ/b7YbL5YLP5zNfFqYyVY1PRMuyDJfLZXZwqqoiOTkZTqfTNIjD4TA8Hg+CwSD27NmD8vJyTJgwAZdccgmTy7MP5Y108ODBg7j77rtRUlKCCy+8ELIsm0Z6IBAwZawoCoLBIOLj402DPBgMwu12IyEhAX6/3xwIisZSG4orHA4jEAhAkiQ4HA4IgoD4+HjA+FpsYmKiuYYwKSkJoVAIv/32G/Ly8vDhhx+iV69eNc7Ip7oJZskXDN0gGbPuHE4sQG0sjLoLYwKEqKx/4HBqAqyRL0kSjh49inXr1qFt27ZIT08/IbulOlB/wdpG0exG1gY6dOgQLrnkEtSrVw/ffvstkpOTzWsI1ZgU3bJlCz766CN06NAB999/f5V1cM6cOZg1axaGDRuGDh06RKQPMVCHz6qRT8IEswTh6NGj2L17N/Lz8xEKhdCpUydkZ2ebBgSFlyQJ06dPx4gRIzBgwAC8+OKLOHz4MAYOHIj4+Hi88847qFevXoShPWvWLHz22Wd49NFHcckll5hLLWB8ic3j8ZhLMwRBQEpKCgBg9OjR2L9/P1599VXz4z4UpzWfpBysWCmMdd1/ZVA8oVAIgwYNQnFxMUaNGoW4uDiEQiFzTVooFDL3Zw6Hw5CNt8YVRTH9aYaVZttp8ONwOKAoCkLGXua0DZVgzMSyMqc8kXHJ5p9mn2VZhmK8W6FpGhwOB2RZxpIlS/Dqq6/iiSeewA033BARX1VyON1QOemGkb9r1y488cQT6N+/P+68806EQiGzcWPzTmmn/yRvMuip42cbRsFoRFnZisYgip3BiCabX3/9FWPHjsUTTzxhPt6sKejGEyKBWXa3ceNGZGRkoFGjRmZ+acDD4cQKVE9LSkrwzjvvoEmTJrjnnnsi/Dicmgrb/+nGE/61a9fiueeew6OPPoprrrnmlBv5BFs/KB1WyD8nJweXXXYZ6tati2+//TZiK3REGajk5+ejsLAQTZs2jZgYJSheTdNw+PBh2Gw21KlTJ2o6ansdPrWldoKQkUSHKIpIT09Hz549cdNNN6F///7Izs42DSaCZqpnzpyJ5ORk3H333RAEAenp6bjqqquwaNEi/Prrr2Z4Krgbb7wRffr0wfTp07F+/Xp4PB7Uq1cP9erVQ1JSEgRBQFJSEjIzM1G/fn04nU7Mnj0bR44cwYgRI0wDn+KrrPApT8XFxViwYAHy8vIgy7JpJFaGzsyKqqoKu92ODh06oEuXLmjRogXatWuHVq1aoXXr1ujYsSOaNWuG+vXro1GjRsjMzERaWhoyMjJQv359NG7cGNnZ2WjevDmysrKQmZmJpk2bolGjRkhPT0eDBg3QtGlTNGnSBJmZmUhJSTFfVK5bty7q1q2LevXqmb8ZGRnmeVpaGurUqYOMjAwkJSUhLi4OSUlJ5rWJiYnweDxo3LgxJElCMBgEqpDbmYbVPxiyd7lcSEhIAIx3KmRZNgdPNBtPv2TU07Iau90OydiHl72WwoPZj9dms5lxselhf4n4+HhzEFXTYGUnCAJyc3Px7rvv4vfffzf9T3UHweHUJPx+PxYvXow1a9aYbmQ4cTg1FbafoTZaVVWUlpaipKTkuDCnEjZeaz/M/ieoHyXYAQrrpqoq0tLS0LJlS8jGZKj1XhRWEARkZGSgTp065oQohYmWhtrIWe952UIF83ifHoNaDXzizz//xMqVK9G+fXvUr1/fdM/OzgYA7NixI8IgpyUp99xzDy699FJzvbRm7OwTDodNBSH38vJyJCYmmo9xyPBmlSQarHthYSGmT5+O3bt3A8a1FV0XDTIi6d4wZESHZtmbnZVbNH9FUUy5sHImdwrPxkPxWsPTNWwY8qdfGI+x6XqWmliBSAdoQMLmi5UZmxdWNlY5UpxW+ZD82PIgWdJ96IAhw3A4XGONZZFZiqPrOoqKiszlCzBkxOHEKprxpIq2aEYFhgqHU9NJSEhAx44dzS/EohJb53TA1hm6L/WTNInGQvWMnUClPthqrLO2G/3XNC3CuI+1vuqsWwxUiGxBWc/ZQiX/nTt34ujRo8jKyorY075OnTpwu93YsWMHysvLIRlLYwRjCYrT6US/fv3QtWvXiPhpVpY1Vux2O6644gq0bdvWTCf5s4rDwioRjPDs1p0nqkCscQlLZWMVmD3YNLLhYMwiszKJJoOK4qBfq6xYedC19Atjm1LrDkM1GY1Z787mm8pBNJbYhMNhlJWVmYY5KtAPViasjNiDvTYatASKncmoaZAM7HY7GjZsiNTUVNOPZMHhxBLUnns8HvTt2xeXXXaZ6XcmDSMO51SRmZmJxx57DF26dDEnps401Ney/SqYzUEQpU+x9qvR/K2w/TE9bY8WrjYT3aI4C1RkCJHArYZTcXExwuGwuYyBoBdA8/LyzC0H2fgI2diFhh1ksAXMFjrBpq0qRSD/uLg4dO7cGYmJiRHu1YXSRelg82JNhzV9VqOR/rMViK3E7LlujHTZOKwDDrrGilVGNpsNLperVhj5OrO+nKD/JA/dMPS3bNmCMWPGICcnxyyPaOVijYdkSoe13Nj7sdfY7faI8qxJUN4BoF69enj00UdxwQUXmDpTU9PN4fxVFEVBfHw8Bg4ciCuuuMJsI4UTfGrL4ZxtVFWFx+NBixYtEBcXZ+rx2YC9N/WTNENvxdp/WtNsPWcRokxcxlK9rRE9b2UFYIUK2O12QzS2gGQLXTa+akufMias96BCjKYUViOWlM0aR0Ww4erUqYOBAweidevWFY5Ao0FhRFGEzWY7bga3OkpIabdCMqPZYTLAdGY5jvU6iktjtkOkMOzAwHoNQfeK5ne2YeUkCIK5Vp7O6Zf9D+MLefPnzzfXLlaENX4271Y5UFirjghGA0dLoGoalD56CbtNmzZIS0szl8FZ88nhxAKSJJn6Te0013VObYL6JN148TYcDiMvL++4lRBnCp1ZEkt1ifpjm80Gu91uhqusrlWW5sr8Yo2zbuRXR9hUkGyhNmrUCGlpaSgtLY0o6EAggGAwiPr160cs47EqamX3tYarLGxl6IaxRi+gRhuBRoO9J/3SmjEw8qgqXay/tUJQ2mw2GwoKCnD06FHoxoyrbLwgzF4jGB8HKy0txYEDByAYo1/rfaKhKIq57/7ZoLKGgPJIYWRZhtvtPm5QRWHZX7vdDrfbfVxZRUOoYFavInerm2AY0WdLhlVBgz9BEKAoCoqLi+Hz+SKe3ljzxOHEArIsIxQKYcmSJdi4cWPEpEllbQKHU1Ng+6H9+/djzJgx2LBhgzVYtWH71BNFtxj5uq5jx44d5ockDxw4APxF26wqTle8Z4OzbuRXh2gCb9GiBerXr49NmzahsLDQdN+xYwfy8/PRrFkzOJ3OahvW0WCVrLpKS2GogVcUBfn5+ea+6NFmvCtDN7ZnpH3XTwQ2LWAqMslElmVs27YN77//PrZt22aO2imNbCWia/x+P7755hv89NNPgPGkoar80FKTaOVYU6A80AAnmqwp/fRrHQhVBsmTfRJCULlQmGhIxi481bnX2YDyIMsyCgoK8O6772LZsmURy+IqyhuHU1uh+uz3+zFhwgRMmzYNYAyQmlpfORww/R4tU4HxkcclS5Zg//79QAX2V1XQNdSvnchB1wvGROL27dvxv//9z3zKMHPmTOzbt8+Mn1M5tcLIR5TCzMjIQLdu3bBy5UqsWrXKdF+4cCHi4+PRpUsX0816bVXoUUaSJxKHzhg0xcXF+Oyzz7Bx48YTavjZikXLYQhanxYNSisZqXRPCi8wL5nk5eXhzTffhNfrRcuWLU1/MvZZKN3p6elISkrCf/7zHyxdujTCvyLsdjsSEhKizo6fTk6k3Cj9WhW7OrGQ4V0R7P1pLaFofHBr8uTJeO655zBp0iTk5eWZ8qVytsrTel7TYPPq9XqxbNky5OTkRPhzOLEG1Utd17F3717TMCK43nNqOlYdpafZZPSfLGzdiDa5yfa11D9SOHbyMDU1Fffddx8mT56McePG4corr4z44Byncv5aKZ5hWENIkiTccccdaNq0Kf73v/9h8eLFmDRpElauXIkHH3wQF1xwQYTRdDKwSskaMZXBGoswlg+tWLECBw8eBKJUqOqgGzOkVOkqMvgojarx4QdBEBAIBMwXkMEY8eFwGO+++y62bNmCBx54AHXq1DErGy0N0jQNhYWF8Hq9ZqWTJAl9+/ZFvXr18M477+Dw4cMRSzIIq+ysa/LPBNUpM5Il/SrGl2wrSisbp9PpPO5pkTXfbKMliiI2bNiA4cOH46mnnsKYMWPw4IMP4pVXXkFeXp4p42j3rk5eziakGzDkkpGRAbfbDRiD0qp0hMOpzUiShHbt2qFFixamm2DZ7CEW4XW4dsMa4vS/fv36GDRoEFq1amX6sb8nCnudwEw60iRZtElLsvUURUFqaiouvvhiXH755bjssstw3nnnISUlJSLNnIqpNS0QFbrALCfp2rUr3nrrLbRv3x7ffPMNfvvtN9x///0YOnQoHA5HlUpAhhOrhNEUmYwUSkNVSk9KDOPatLS0iPcDWCpKAxl6lAd2uUtl94XR4SiKgnnz5mHUqFF49tln8eGHH+Knn34yn3qsX78eM2fORM+ePdGmTRvAWPc/ffp0PPPMMxg/fjz+85//YPDgwXj55Zexa9cus8NKTk7GzTffjDVr1mDevHnmvdl8s//D4fBxa/KteWbd2f/RziuSWbT4KpIZGwerIzSjUJneELSdF8nFGheY+4uiiMLCQkycOBEA8PLLL2PChAm4+OKLMXXqVMydOxdgvoZsTS8s8VfkH82dsMqusrBWrGGt54Su60hOTsbtt9+ODh06mG5WmbLX0/+K4iSiXRPt3Prfml/21xrPiXKi11f3ntHSW12qCh9NPlZ/9rBS2fXRrrWeV4U1Pvq1ukeLtzK3aERzryw8YY3f4/HgiSeewJ133mm6UT9ljct6TlTkzmINU1H8rLvVn4h2rdXd+j8a7P2sB+tvJZpbNKKFqypNlRHtmmhptObFmh9rGqzuBNuXW/3IPdp/OrfeyxpPtHSwRAvPnrN9iqZpSE1NxV133YW2bdtGTM5Z+za6hv2NBtkCoihi3bp1mDlzJtasWWNuWEH2FXvozHJhjVnJoFWwMQinYmqNkW+FDMaePXviqaeewuOPP44XXngBAwcORGJiYrVeUCSljaa8ArOtUigUighHChbtOoL8UlJSMHDgQHTs2DHCnQ1HB6JUFpqVtw4SrPGAWdYjCAK+//57vPTSSwgGgygqKsKzzz6Le+65B19++SXKy8uxZs0a+P1+XHPNNeb1oihi2bJlGDt2LN544w3s378fLpcL//vf//DRRx+ZH4gCgA4dOsDtduOXX36B3++PyAPBNgCC8eIuQaN3tsGh/1YZkF9lRJMhzYyTf7TwVvmLxlImNrw1TeSnaVrE2/7R7sH+5ufnIzExES+88ALuv/9+PPDAA3jxxRfh8XiwcuVKU2et8ZAbu4VmRWFYWHlGS781nPU/62+9xiof+tU0DS6XC1deeSVatmwZsWzMmgZys/pVhDUN1YHuQ9eyeWHTcLJUlSarPNm0VJcTTWNV8bP+0dLDyszqR/7s/2jnrLv1vCqs8dGv1T1avJW5RSOae2XhCTZdurGzTrNmzdCoUSOzrKiNs8ZlPScqcmexhmHjp/uSG5tGK1QPovlRnqxhrPcht8oONhzBprM6RAtnTdNfxZpe1s2aH2tYq7s1HrbNtvqRe7T/dB7t3tGusf6y/tbwFYWhtJKbbHxllnVnqeieBMVJ13/zzTe49dZbcdttt+H+++/Hiy++iMmTJ2PNmjXIz883r2PrDsVNhj7Fy6ke0UuuBsMqIy0vsdvtaNKkCTIzMwFjAMAqATVY1kMztpFUFMU8p19BEODz+TB9+nQ8+eSTGDNmDPbs2WPGS6PJaAf5aZoGh8OBLl26oF69euYyGFEUUVxcjKVLl2LTpk3w+XxmWq2VjfIYbbmDFd1YMhEIBDB58mQEg0E899xzeOONN9CmTRvExcWhf//+cLvd2LZtGzwej/lVO5Jjjx49kJSUhD59+mDMmDH4z3/+g6ZNm2Lx4sU4cuSIea969eqhYcOG5kfJosHOADidzogtTQmSp250KGSYUxkIzMuq0Q4KS3FQnFSWFG779u1455138OWXX2Lz5s3wer1R00Ez6Wyc1oP8bDabmWYwTwHo3my8MB6DDhkyBK1btzbdMjMz0bBhw4hdeuhaFp1Z8lMZ7P2ssqKD9avsPxtPZQjMtxxoYCwYcqFz+rVS2X0rwxqWPbf6ERXdI5rbqaKie1aF9bqTiYNzZiC9PnToEI4ePXpc2Z0pTuSeVYWlOhyNitwrwhreen6mOVX3P1XxnCwqs9uaxqxvVxQFoVDIPHw+H0pLS+Hz+eD3+1FWVoaSkhIUFRWhoKAABQUFKCwsREFBAY4cOYI1a9Zg3LhxWLx4MfLy8nDgwAHs27cP27dvx86dO7F9+3Zs2rQJ69atw/r167FlyxZs2rQJy5cvx7Jly7BixQosWrQICxcuxLx58/Djjz/it99+w9y5c7F8+XJomoZdu3Zh5syZeOGFF/DAAw/g5ptvxu23345hw4Zh/Pjx2LRpE1CBHkbrRzgVI+jRLIq/QDTj5lTBGk/VMXr/Coqi4PXXX8fbb7+NgoICyLKM66+/HmPHjkWTJk2swU+YtWvXYujQoQiHw+jcuTM6duyIzp07o0mTJkhJSTGX5+i6jiFDhqBu3bp48cUXgSpkrOs6CgsL0b9/f4TDYfz444/weDx45JFHsHXrVsycORNutxt33HEHNm7ciNmzZ6N58+bmQGLevHnmmvEHHngAgUAAAwYMwM6dOzFt2jQz74FAAA899BA2bdoU4R6NXbt24Z///Cfuuece9OnTx+p9Rvjuu+8wYMAA+P1+tGvXDtnZ2ejUqROaNWuGxo0bo3HjxkhNTcWOHTswcuRI3HHHHejbt69ptFPHTU9WJEnCggUL8Prrr+PNN99Ehw4doBtrCFkjF8xAgY0Dhg7Pnz8fzzzzDJ5++mn079/fvBcs5bt27Vq88cYbeOCBB3DllVdGxMlWYbonNfqwDKDY++vMgJT2s3c4HBBF0Rz4kh6y7ymEw2HIzNcBdWY9viAIKC4uxqpVq+B2u9G5c2fY7XbzejZPujFwCYVCpmzIX5ZlKManzOkJUCgUMu9ts9kQCoUQCAQgCALcbjc0Y9BOgy2RmQig9IXDYaiqilAoBFEUER8fb+ZLFEUEAgEzPF2vKIopH5H5WAp7H9nY+SgcDpv5cTgcZppsNhtUVUV5eTk0TYPdbjefGLFxUVokSUIoFEIwGDT1jb1vMBhEIBAwB5oq8y6NJEkIBoNmuVN+VOZdHbYtpXKx2Wym/CgeygMZDJRGQRDgcrmgGI/zbTYbdF03y8TtdkOSJJSXlyMcDsPpdCIcDqO8vBwC81SP4tJ13XxS6HA4YLPZEAwGoaoqbDabeV9Zlk2ZkyydTiccDoepA/QOElt+lG9JkszvYFC+HA6HeW+aiCC5CsYOaXRvileWZYTDYdhsNjgcDhQXF2PJkiVwuVy48MILER8fb+ZXFEVzW15Wl0jG9CRQNT7CR2nUmG+ZUNnFx8eb5eNwOMz6QnWQ1UmSM9UVwZhsEY3vy7BlTTpGcVF5kj8YmYDZhUyWZaiqikAggHA4DIlZakH5oryEw2HTKKU6kZCQAFEUzd3jNEP/HQ4HYNT5YDAIj8dj6hvVA8WYzKO6RfKzppvKTjTaGkoPDPmHw2FTZnQtXa8zk38EtY1UX9iv2fv9fui6DrfbjZKSEoRCISQlJZnhSIaiKMLhcEAx3gGj/MiyjEAgAJ/PB8Gop4oxEakZk4Ykb5KZzWYz2zXSr3A4bNbB0tJSBAIBuFwuyLIMv99v5p/Kg3QzGAwiNzcXmzZtQpMmTdCsWTM4HA6Ew2GzjJ1OJ1SjvQmHw0hMTITL5UJJSUlE+YSNttBmfLfI6/Vi69atKC0tNe/H4nA44HA40LhxYwwbNgz33nuv2f5QXWShMrG6cyKpFUY+NRowOmlqeHXjhVRCNQwWaqwEY2sz0eiYyUighoCgCgKjsXO5XPjll1/wyCOPIC8vzwzn8Xjw1FNPoX///mb8dH+2ASOlFEURXq8X27ZtQ1ZWFrKyshAMBmG32zFnzhw8//zzKCsrAwDEx8ejYcOGaNKkCerVq4dGjRqhRYsW8Hg8GD9+PLp27Yp///vfZvyIMqKlPCmKgueeew7Tpk3DW2+9hXbt2mHEiBFIS0vDhAkToCgK7rnnHuzatQvffvstGjZsaMp40aJFGD58OB555BEMHjwYgUAAgwYNwvbt2zF16lQ0atQIMIz8v//979i6dSumTJlSqZF/8OBBDB8+HHXq1EGfPn3g9/vh9XrNcgoY24sKhjFJHWcgEICu62bjzjZIuq4jEAgAxleFNU0zZ+ftdrvZYDqdTgSDQSxbtgxfffUVQsbSKxidj9PpRN26ddGyZUu0bt0aJSUlWLZsGUaPHo0bbrjB1AvSP9FYW79y5UpMnz4dc+fOxd/+9jfzhaDU1FSzfKhh0o2OgjpX1Xhqous6/vGPf2DLli345JNPkJmZCUVRIvSX+PPPPzF8+HDYbDZ06tQJijFbA0MeMMqfOoHS0lLTkKV72419/VXDyA0GgwgGgxCMF7RVVUVSUhI0TUMgEDANBDJo2I5ENwYZsizDbrfDZhhHTqcTubm5WLZsGZKTk9G9e3e4XC4cPXrULFe/349AIGAaumTIUv2VjQGEZhgGlEfq3ATDqFcZo5k6HupUVKPDFw1jkIwpn89nDjgcDgcSEhKgGx0syRCMwUV1TDc6f0VR4HA4zIELlReFJR0OBoNmWQSDQSQkJEAQBJSUlJgdPMmM2iVakqcaX50sLy9HaWkpXC6XeX960TtgfA/E4XDA5XJB0zQEg0HIsoy4uDhTViQL6tidTqepe6phVJGhS0Yy6assy4iPjzf1o7y83JQT5Vc3jB3BePJJupGQkADJeKooy7JptLHtJBlYqmHAqsaAzuPxIC4uDqWlpSgrKzMNAkq/aBik5KYYhg3pF+kNhaH8aMaGDXZj2RsZIU6n04xLMgZXrP5RXimfpDtUB+k+mzZtgiRJaNu2rfmFczL0KD7SK/aesjFw0ZlBpMr0R6QTVB5BY4AnGAMCSifVCYUZ6Ho8HjOtbF6obaH7qkbdofrncrkQMgZ2pO+kN2VlZXA4HKYulpeXo7y8HLqum4NmjRnQu1wuUz9Uo44rigKXy4WEhASoqoqSkhIEg0FIxmBWNpaJqKoKn88Hj8cDj8cD1ahPVO+oXEiuVBfI2IZRvyRmC2KPx2PKVFEU03h1u93weDwIh8MoLS2FZAy2BMPeUJnBP+WLyhRGv0vtlcvlgmoMFmzGYEBjBve60a/JxjcWdKP/dRiTLHT4/X74/X7TUKY2gtoQMAMR0ZikkI122+FwIDEx0dQnmzFwA2NQS8bAEEbb7XK58Oeff+Kbb75Br169cOWVV5ryonLzeDxmnkieiYmJ0Jh+z+FwmO0a6UppaSnee+89fPfdd4DRpqekpKB+/fro1q0bevTogfT0dKSnp6NRo0ZISUkxdYj0lnPi1AojnyBF9vl8mDhxIhYvXoykpCSzcaTKSBVRMzpDaviLioogGDMM1GhSQ03ppq2Z/vjjD+zduzciHy6XC4mJiWjYsKHZcFFDoBqdKlUYmzFbVFBQgB07dqBp06Zo3ry5GebgwYPYsWMHRGPWlBpbwuFwoFWrVmjYsCE2btyIBx54AP/617+Aahj5giDgjz/+wMCBAyHLMlq3bg2Px4MHH3wQPXr0QDAYxGOPPYYVK1bgyy+/RMuWLc1GZtmyZRgyZAgGDhyIRx55BIFAAIMHD8aff/6JadOmoXHjxgAAn8+HwYMHo7CwEJMmTUJaWlpEWsAMznJzc3HPPfdg/fr1OO+886CqKoqLi81Gp6ioCA6HAx6PB4rFOA+FQmZjHBcXZ3Zq9OtwOCAbsxOSMfNIRlxCQgIcDgdKS0uxd+9e7Nq1yyzPEGPsA0DDhg3RoUMHSJKEnTt34rXXXsP1119vlgtdJ4oiNm7ciAEDBmDt2rWAIe+mTZti/Pjx5mftqZNjGyndMqP/008/YeLEibj33ntx4403ApYlTqzurVmzBvfddx+cTic6deoElemUHYzBKAgCQoYBb7PZzI6fBkAejweyMYPs9/sRCoXg8XjMe7lcLgSNGVQyRAjqWGw2G3w+HwLG4Iw6dt0w7vbu3Yvp06ejQ4cOuPrqq6EaxrggCGZH7ff7zXQIRp3Umdk52Rg8kCxlw/CnvLndbiQmJkIwjGpKnyiKpvGhGwZLwBgs2u12U58oH9RugFmyRvqkGZ2y01hqRvmgTovqusDMlpM77UilGkYN26Ha7XZTfxVmuSAZ1IqimHkg44M6e+rk6b6SJMHNbHcnGkaPZBjQdB+aGXQYBhvpIt2DjAKKg/SU5E51UGNmicPhsKkTivHBO8kY8JBxBGZQTuVDZWC32837i8xH+KgMA4EAQsZAVbUMuigNdD2VhWiZkVaNAQSlXTKMPZXZuo/SSjIhHVSNOiYbBifJnPRKM/oXm82G0tJS/Otf/0JaWhqeeeYZsy1j2zDSBZK1atnJjGSnGxMYJFuSI4Wh64LG4JjSQfWYzsnAIvmHjScLqtH3kZGp6zrKy8vNCSfSp0AgAEVRIuqAoigoKCiAzRj804BDM57mkFEZYp6ySczLlFRGojHIonJhZ6VJ9rLRDwBA0JjtlmXZHEyyBi/pnMfjMeVH96P7UFri4uLgdrsRDAbh9XrNeuB2u5GWlgZN08z+ia23dH8qE4dhV1B9o/IhJMYO0Zg2jPRPNOoq6bRm9Bmy0fbJxgAgbDy9dBoDXBh1is4VY/ac5E5pJHmKTH3WjPpL8RDkDwB5eXl45513cOWVV+Kyyy6LCPdX+eyzz/DOO++gVatW6N27N9q0aYMGDRqgQYMGZvtDUN8jME95KY2c6lNrjHzNGDHbbDb4/X5MmjQJS5cuhdPphG48HqMZGsUw3F0uV0SnHQ6HzRkmn88Hl8tlNhBUCamBW7p0KWbOnImQMQugGp3IRRddhNtuuw1xcXEoKyuDrutwGo+L2cpEHemOHTvw+eefo1evXujbt68Z39KlSzFu3DiEmEf7derUQWZmJlq1aoVOnTqhY8eOSEhIwNixY9GiRQu88MILpiyiKTwr+1mzZuHNN9/EpZdeigsvvBDt27dH/fr1zbBjx47F22+/jXHjxuGmm24y07106VIMHDgQDz30EEaMGIFwOIyBAwdi/fr1mDFjBpo1awYAyM3Nxe23347s7GyMGzcObmO7RBZqUHJycjB06FBkZ2fj/vvvh8DM2KvGzAw1bJQvahxDxmwSjM6HOguBeSmIOmOn0wnZMOokY8aOZDRr1iw89dRTCAaDSEtLQ926ddGkSRO0bt0abdu2RatWrdC8eXMcOnQIY8eORd++fXH99debHQCY2YS9e/firrvuwu+//27mtX379vjf//6HLl26QLO8D2BFEARs2rQJr7/+Oq677jrcfvvtgFF+bBmy165cuRL//Oc/8dBDD6Ffv34IGE8xVMP4kZnlDzoz6KVfMiZY+dH9ZObFKt0wjChOio+g+Cgs60+dx5EjR/Cf//wHPXr0wC233GKGxWloFzicmsKPP/6I1NRUdO/e3erF4dQadF1HaWkpHMZsP/UnrD/bjlM/YO2z2H5DN1ZYFBUVobi4GPXq1YtqM1BcYCYbEKU/5JwA+ilG0zRd0zSr819GVVVdVVUzfvqvG/e0Es3tRMjLy9P/9re/6QDMo2PHjvqiRYusQSslGAzqX3zxhb558+YI93Xr1ukXXXSR3q1bN33w4MH6uHHj9J9//lnfu3evHggEIsKOHDlSf/nll83zimRMbqFQSB88eLDucrn0AQMG6C+99JI+ZswY/dtvv9ULCgp0Xdf15cuX623atNGff/5583pFUfQ33nhDB6DfeeedellZmb5r1y69a9euenp6uv7jjz+aYX/++We9ZcuW+scff6zrFaSJzg8ePKg//PDD+pw5cyL8zyTbtm3TH3roIX348OH6559/rq9cuVIvKCg4Ls2HDx/WhwwZos+ePVvXDb0jfVMURdcNOT3zzDOmXtjtdv2hhx4yy410VVVVXWdkQ/fas2eP/uCDD0aUaUlJiX7gwAE9GAweF17XdX3NmjV6v3799AULFphuNRVN0/SCggK9pKTE6lWrYcvDqjeEtdxYyL0ifz3K9dUJW1UY0kM6j3Yde07XsO0t61fRORsfS7R6QPdg/0cLQ26E1Y91VxQlol+I1kdY722Nw+pGsNfROf2Gw+EIGVckOxbW3epvvY49t4aNhjWM9ZyobnznEtHkEc2N0Cx6bIUtN1Yvovmz59Fgw0YLb3Wje1qvsWKNgw0XDoeP02823IkeVsjdms6KwnNOHGnUqFGjrIb/qeBUjrpo5MjOIrL/o90rmtuJEBcXh06dOiEcDmPr1q245ppr8PLLL+PCCy8EmFlqK9ZRriRJaNGiBerUqWP6i8aLWN26dUO/fv3Qv39/XHTRRWjatCmSkpIgG49QBWPpxbx58yDLMi655BLmTtHzKBhPJZYsWYK9e/fC7/dj/fr1WLNmDX766SeEQiFccMEFyMrKQmFhITZu3Gi+KFZSUoLVq1fD7XajadOmaN++PQKBAPLz85GVlYWWLVuiRYsW0HUd7733HkKhEIYPH47k5OSoI3lKj9/vx8KFC9GgQQNzT34wI326xiq7aGGqC11HMwMJCQm4+OKLcd1116FLly6oX78+3MyONsTRo0exdOlSZGdnm3klXaP/oiiiqKgIP/zwA8LhMOLi4tCvXz/07t3bvKcQZQ2hIAg4cOAAnn32Wfz666/o1asX/H4/VqxYga+++gq6rqNt27bmdWza9u/fj59//hndu3dH8+bNAeY+VrlFk1m0MNa8E3Q9S0VhwcgYzHsxcXFx5iNjFmt6relg0271Y2Hzjijpq8yfzZ81HdHCs5B7RWEFpg5Y82L1rwz2PohSphXFZ5WZ1b8qd4J0nj3AXGc9p//REJiyZMNb70Fh2YMtK/KP9h+W+Mif/W91o/NoabNijYv+68zTN6q3bHwUnqUq/6rSgijXENbyRyVh6R7RrqkKq25XdL1Vb0+GquKI5m9NX0X/rb9ERfeyxmE9WKzhwOioVQfYcKw/xUP/2Wus943mbr0HG449Z68Nh8M4ePAgBOblaWs81vit97K60WGVMYW32nPsf85f43grtQbCFjqdn050w2hp3rw5HnzwQVx88cUYNGgQevfuDdFYRgJm/TQLmzbNWItHy0g0Zk2lx+NBt27d0KFDByQmJpr31Cwfe9CMNafR7lURa9euxaFDh/D6669j9uzZmDFjBmbNmoWhQ4di+fLl2LRpEwRBwODBg1GvXj18/vnnKC8vR0JCAh566CF89tlnGDlyJOrVq4cmTZrg5Zdfxttvv40rrrgCqqpiwoQJ+PPPP/HEE0+gSZMmx6WZbdxgrIksKiqK2CqU/KsqV2uY6iIYDQrJVJIkJCcnm40WwTY6dE7rP8HEA6MhonJo1aoVsrKyAAAJCQno1KkTwCyXiSaL8vJyjBs3Dl9++SX27NmDF198Ef369cOdd96JuXPnokmTJuY9rHkWBMFcS8q6sb+sezS3ys5Z6Hr2qA60zEcQBBQVFaGsrMzMj7WjIqxxs/ez+rGwYaKFq8yf3KKlw+rOYnWvLCyi5KWysERF4azu1nPWvTIqu449TpSqrrH6W88rIlq6oqXRel4V1viqizWsYAzmFUXBggULsHTpUtNgiVaP6ZoTwSqDyq6vzK8iTvaa6sivqvRWh6riiOZvTV9F/62/lcVlDVcV1nCV/bfGZ/WvyK26WPNghe2zjhw5gjfffBNLly413yuwhq2Miu6BCtJRnf+ck6dWGPlnGoEx7OLj41G3bl1ztwTW2K5M2TVmN5UjR47A6/VCMF4oojhU5uUvqxFP5yLzQlpVUKVYvXo1li5dCk3TEB8fj4yMDIjGi07t2rUzX5JNT0/HQw89hKKiIvz6668QBAGJiYlISkpCQkIC7MauKR6PBwkJCXA6ndiyZQtWrlyJe++9F1dddRXAvCNgheQTCoXMXVDONILxshXJnpU3GZ/0H0aZFBYWRuyjrzNbTRJNmjRB586dAQANGjQwdx0CUw5W/QiFQqbMH374Ydx+++244447MHjwYDz33HPmNpzRrpWNXVOsg5SaBMm6rKwM48aNw+zZsyEwRpA1TxxObYf0OxgM4uOPP8bXX38d4cfh1HTIwKf2mZ7+szsLsnC9rl1UbTme4wSDQXM7QjDGlxjlDXVCZ15U8Xq9mDJlCrZt22a+HElGZ1UHhbXepyJjidy7d++O7OxsvPjii7j99tvx6KOPYsyYMSgrK8PgwYPRoEEDcweVDh064KGHHjI/1qVZ9k8m4zhk7BCRkpKCRx991NxGVGX23rbCGqyC5Yu3bKNyumBlSWmMlk5YGi7aLcEKW65xcXHmS8jZ2dnmcixr+ZGbbuw8M2zYMIwbNw5vvfUW3n33Xbz33nt47733cOedd5ovItM1VgKBgPnCbU2E0uz1erFs2TLk5uYCjNyi5YnDqc3Q5ICiKCguLjb3TMcZauM4nFONLMuoU6eOudMg9d+c2kl0K5VjEgwG4Tc+rgLGuLcacoS1UQ8EAtiwYQNycnJMfzI6rXFFMxA1Y7kO7Y7CYr0XjPDdunXDuHHj8Oijj+K8887D+eefj/vvvx9PPPEEmjVrBo3ZglLTNDRt2hRdunSBzdiGkdJEnRSlV9M0ZGZmokOHDhCZbe0q6szIINaMbcbYfFnzeTqgdNO9SN40cIomc9HY1owdkNC1VsM/OzsbLpcLzZo1Q3x8fER4Nm+sDG02G2w2G+zGvtOSsaUahYs2qIORLtryrqYjGE+EaIu7013OHM7Zgto9m82Gtm3bRnzNmus9pzZg7QNTUlIwYMAAdOjQAajAzuDUHo63JjjHjVydTqdp4FkNOCvkRxVDFEWkpaVFvMBCsMYx687eQze+Ihltnbg1Hex1rVq1wpAhQ/DPf/4TgwYNwnnnnWeOzAXmS4isQUlGsNUwFpjvARCSsfcx+cnGnucUP4tg7P3NznKhBjQeVjnDkIHOfDGRwljzBEPGzZs3R3p6uilHNly066LlmXWzpod1pz2lo/mfTUhPYKQrJSUF/fv3NzsJqww4nFhCVVW4XC4MGzYMt99+e0Q7zXWfU9Nh7RDd+F7HjTfeiOzsbHOL75rU33BODG7kV4Fg7HBDH2Y4URISEnDffffhvPPOAyowAqN1BKzRZA0XzcAnKnJnqW4YCldRGsHEFS0MNQw0i8/KsKJ1/GcbgVnDXxFkaDdq1AjXX3+9OXtH7lbYuKLFy8qQhW1YdeNjNjT4qImIzJcV+/Xrh549e0Z80IR3FJxYg627jRs3RmZmpmk0cX3n1EYE46VxMJNenNoLN/KrQDhJI58qitPpRKtWrVCnTh2Ejc+Knwi68bEi61KR2oQgCEhISEBycnKEW01EqGCwYu24dV1HWloahgwZgo4dO5oDr9PZINZ0w4HtGARjdp/SHE2uHE6soOs6du3ahby8PFP/OZzahmDsjPbFF19g8+bNEU/oObUTbuRXgSRJ5tdsqwtVCtbo04zddqprqFEY0dhdh3U73cbkyUJ5s+ZRMD45zn62uibngd5VoHM2P6y7KIrIyspCXFxcxHXsfzo/0cNKRe41BZ15uTocDmP69OlYsmRJxBIvDicWkSQJXq8Xo0ePxttvv33CE0IcTk3iyJEj+Pjjj7F69WrA0G9O7aX6lus5BhlUsixHGKfVga4VjL3R586diy1btkCSJNMYqi60Rp62fQSzF/vJUpHBaHWPFgYVuFvdrHn0+XwoKSkxz09UDmcKkoHVyI82KGHDsTPV7LXW8Oxh9TvRcDUNSlthYSEmTJiA+fPnA/yRL+ccIBwOY8uWLVi+fHnE90C43nNqI4FAwNzsg+tw7YYb+RVAik0z+CeyFpo1XsvKyjB58mSsWrUKOAnjVmN216E0CVG+pnoisAYpa0hWla5oRidBcbLx0n966ZbdIaiqe50tdGN5FMmXBlmUN9r9Rme+fkvQOR3WXXys/qzMKgpHcpIkKeKjaBWVw9mELVPaeYn1o7RzOLEC1X9BEJCRkYHmzZubk0JUnzmcmo7ATGIlJCSgT58+yM7OBmpoX8OpPidvKcY41HhX1wCuiGAwiKKiInOQwBqFlUH31XUdiqJEbOvIGn9/FWtHVNF/OreGj4Y1jN1uh67rcDqdpltNaTis6aDGji0nygubJ/YRJlse1ryfKgoLC1FeXh6hAzWVuLg4XHbZZWjZsiUQRcYcTqxAuh0fH48HH3wQ999/v9nO/dUnrhzOmcDar6elpWH48OE477zzuP7GAIJ+ikvxrxrFNQXdmInevHkz/vnPf+LBBx/Etddeaw0WFVYGBQUF+OKLL9CjRw/07NkTmrE2vyooXCgUwvDhw3HgwAE8+eSTSElJQTAYjHgkDObruWSkCoIAu90OQRAQCATMSkwGrG4sNaF3Dvx+PxRFgWC8aKyqKhwOB0KhEGw2G1wuF1RVNT+iRYfH44Fg7JwjyzJkWUYgEIDP54MgCHA6ndi6dSumTZuGp59+GrfccktEus8mVE70K4oi8vLy8NBDDyEQCODqq68GjEeXNLNO4QKBAMrLy6EbW47R7J2maQgEAvD7/RHGP61VVxQFcXFxsNls8Pl8CAaDEI3980VjWRbN2NM9VVXF0qVLUVxcjI8//hjnn3++kYOag2485RGNr9sWFRXBZrMhLi4uIi/V0f3TgbWZq+3tE6dmEG25HqtrXM84tQW2DSfIJhD+4uoBztmDG/lVsH79eowcORLDhg3DNddcY/WOChnZYIw+2iFHN5aDVBdN0zB69Gh88MEHSElJMV8CJiObduwJBALQdR1ut9usmAkJCdA0DaWlpXA6nXA4HOZTAUmSEAwGzXMyLAVBMA30hIQEBINBOBwOOJ1OBINB07AlA9bpdEJRFIiiCI/HA1EUUVJSAq/Xa25FKQgCmjZtipdeegldunSxZvGsQY0a/ZckCX6/H2+//TZmzpwJGDP2VJ70S/IOhUJwOp3weDzmy3Z2ux3BYBDhcBhOp9OUa3JyMsLhMPx+P+Li4uBwOFBeXg6v1wsASExMRHx8PGRZRjAYNL9sS3IvKyvDJZdcgmHDhiEjI6Pag8UzBTvABPOkIxAIwG63m7p1tl7iitbMxUobxTl7UFsrSZL5H4z+s30Bh1PTYPs/GBNYfr8fBw4cQEpKClJSUsy2uyb1N5zqw438Kli/fj2efPJJjBgx4oRm8lmjkGA7hKogA1QQBOzbtw+bN2+Gz+eDz+eDzWaD2+2GpmkIhULQdR3BYBCCIJgGp84Y/KFQCHa7HS6XyywfMuzLy8shGLP+tF1WMBg0Z+Vp9lVRFHNAwYalwYbEfCxLURTT8BcEAQ6HAxkZGcjKyoLT6TRlYpXP2UA3nmhQWkRRhNfrRVFRkTmDL8uyGY6ga9inF5RXCidJElRVhW4sVVKNl6dJpqqqRgwOHA6HeY3KLO+iMktISDDjqUmNLqWPOgNVVXHw4EE4HA7UrVvXTKdumSU6k7BlhwqWYNV0rPXFes4581B99nq9mDRpElJTU3HrrbdG6DwvI05NRmc2eZAkCdu3b8eoUaNw22234eabbzb9zlbbzflrcCO/AqhxXr9+PZ5++mk89thjJzSTD0MG4XAYu3btQnJyMurVq1ftGVh2ZrQ6g4LaABnGNSk/usXIr0lpi0ZNliGMgU1BQQFee+01tGvXDvfdd5/ZSQin6X2F6lBRM3e20nMqIJlyzj75+fm45557kJKSgk8//fSEd2TjcM4mrCG/efNmDBw4EIMGDcKgQYMAZjDLqX3wUqsCWZYjXhitDqwxU1paiilTpmDFihWmX3UQjN1IaFaXKiEYQ4/Orf+tsOHpPwt7Lfmzv3R/NryiKObMdLSD7seGwQnk/0xAeaLyorRRntm8WPNlzW80WbBys/rTLL4WZT9+q9ysMhRF0fxfU2D1w+v1YsOGDcjPzzf9WH/OX4OVJ5drzYCW2R09etR8CgdePpxaANsPwnhi3LhxY7hcLktITm2EG/lVQAYVrZGuCjIAqeKEw2Hs2bMHhYWFwAkYuaKxBSMtmWGhONjKycZrNQLYjsYalqAwdC/W8I12jWRsDykaS3KsB8XJpp38akrHR+lh8wFmtxzys+bNeg2VlTU8m3cKzx4kQzYtgmXtv/U+bPw1CVq+BeM9ggYNGiAhIcH0t+rhmYaVb02TXXWhtoUd+LFunLOHw+HARRddhN69e0d8AK626hrn3CCaDZGWloahQ4eiR48eQJSljpzaBTfyq0Aw1hize7xXBmuowTB+UlJS4Ha7AWO9enUrDRl2VuOE/rNGJHuNNSwZoKx7Vdew/633qSi89bCm3XpdTcKaLkq7NYwV1o3+R8ur9Vrr/VhYYx5MWOtgraYgGE+dSK9TU1MxaNAgXHjhhRFhahKVyb+mww6Y2DxUNLDnnD404zsmNpsNI0aMwNChQ2Gz2SImejicmgr1K6yuOhwO9O7dG9nZ2eY7Y5zay/FWIgewdJ60u0x1sHa+cXFxGDBgAM4//3zozMud5xK12aAiakL6a0IaKoL0XjVewu7Zsyfatm0LlXlJ2DpQ4ZwYVI9InqKxk1VpaSlE4wVtLt8zDz1tTUpKQnJystnOgy/X4dQy2KeD1HZzajfnlrV5krA7x1QFVQrBmN202+3o3LkzsrKyItZqcjixBmvYsMaN9Zzz12CNfa/Xi23btuHw4cPmIIr8OKcX0mmS+b59+7B7926ghg/IORzC2l6IoojCwkKMHz8eq1atqlEbPHBODm7kVwA14GSsV/exFRk0Fc3m0CiZw4k1dOMdjFAohJkzZ+Lnn38GKlj6xDk5WANf0zTUqVMHkiRh27ZtKCoqMg19zumHNYxCoRA+/vhjvP/++/D7/dagHE6NhG2Xqd04evQoPv30U6xbt44JyamtcCO/Akj5NWPv7+oaKWxYwfho0ty5c7Fx40bz5cTqxsXh1BbY9whKS0vx+eef4+effzaXplkHvpyThzX0nU4nsrOz4XK5UFxcDDCP3DlnjvLycqxYsQJ//vlntd/f4nBqCmybIUmS+R0eWGwaTu2DG/nVQJblk9732Ov1Yvr06fjjjz8AowLxCsOJZUKhEAoLCyPWdLLbiXJODSTbxMREtGzZ0lwPDr4W/IwjCAKSkpJQv359s6/g7TyntsAa+QkJCbj00kvRrFkz0590mSZrOLUHbuRXAS3VOZHlOmAqhaIo8Pv95np8XkE4sQrN2judTnTv3h3t27c3/bjBc+qhDlfXdSQkJCApKcmUM5f3mUPTNHg8HgwbNgwDBgww39/ibT2ntsDO1qempuLRRx9F7969AYthz9uV2gc38qtA0zT4fL5q75NvfbQVHx+Pq666yjR4+EiYE6vQQDYpKQmPPfYYbrjhBnMG31ovOH8dkim1KVb58nbm9EMylyQJvXv3Ru/evc+53dM4tRuB2f1M0zRIkoTk5GS4XC5zy2+2LbG2M5yaDW+NKoCUmpbqyLJsDVIhdK2u64iLi8Mdd9yBbt268dEwJ6bRjZfKRVFEVlYWUlNTEQ6HzfdaOKcWak+s25OSkcllfmYgOYfD4aiDLQ6npkM6K4oiAoEANm3ahLy8PL41bwzAjfwosEpts9mQlJR0Qmvy2Q4Xxj77drs96qiYw4kV2Fnl/fv34/Dhw5Blme+3fJqwylRgXsi1+nFOH4KxwcJXX32F77//PmL3NN7Wc2oDrJ7m5eVh1KhR+PHHHyGKYsTXzDm1D27kV4Gu6wiHw9Vek88iCAIURcH+/ftRXFzMKwsnptF1HZIkIRgM4v3338d///tfiKIIu93OjR1OTEJ6rWkaZsyYgU8//dRc2skHW5zaAE3MsLq8a9cuHDp0yBqUUwvhRn4VaJqGkpISlJSUWL0qhDVo/H4/vvjiCyxatAgCs/aNw4k1SK/D4TBWrFiBjRs3Rsxqcjixiq7rUBQFhYWFEVto8raeU9uw2WyoU6cO3G631YtTC+FGfhXQJ8tPdu9jVVWxadMmHDx40DzncGIRGtyqqoq0tDQ0btzYfJeFz+RzYhGaAZVlGRdddBGuuuoq2O12azAOp9aQlJSEYcOG4bLLLgN4213r4UZ+NTnZHRNEUUSjRo2QmpoKGDM7fHaTE2uwW8TGxcVhyJAhuO222wDmg3IcTqxB7bndbsff//53DB06NGJ5GjeQOLUF0uX4+HjcdNNNaN++/UktU+bULE7Oco1x2LWUtM74RHbXAfOY1uVyYcCAAbj44osj1r1xOLGCzmyRqWkaZFnGpZdeis6dO5sv3fKBLScWIb0XRRHx8fFITEyEYNl4gcOp6bBbaIbDYXPb8JOd3OTUHHgJVoGmaSf1tU72MW6rVq2QkZGBUChkdggcTixC9SQcDptbCtJAmc/mc2IRwdhg4ffff8fy5cuhqqq59SCHU1sge6W4uBjjxo3D4sWL+TuEMQC3NquAZmpOVtEFQUA4HEYwGDR31+GzmpxYRZZllJeXY8KECZgzZ07Emnxu9HBiEUEQ4PP5MHHiRPz3v/+NWOJwsv0Gh3O28Hq9+Omnn7Bz506rV0yiG993idX+iRv5VUAv3p7I2jR2YBAKhfDVV19h4cKFfDaTE7OwRnx5eTnmzp2LxYsXQ9d1/uSKE/OIoojDhw8jJyfnhPoKDqemQLaJLMsnvDz5bEJ9j6Zp5kFUZbyTPz15qyp8bYT3vhasBSwIAmw223HuFUEKR+EDgQB++eUX/Pnnn2YYbuhzYgnr0y7BWJJmHdRyvT/7sG0T569DBoXdbkfz5s2Rnp5uypfrO6c2YNXThIQE9OnTB61btwai2ESngqrirMq/Iug6TdPg9XrNpdZWu4wQjA/ZlZSURExGWcPVZriRXwWSJMHlcsFms1m9KoUqjqZpcLvdiI+PN885nFiDNejdbjcuv/xydO3aNaYay1iAHYxx/jqiKEJVVciyjIcffhiPPvooXC4XEGOGAufcISEhAQ8//DAuvPDCqIbxX6U68UVroyq6jto03Xj3q7y8HNOmTcPvv/8OnZml140NItjZekEQ4PV6MWvWLGzYsCEm30HgRn41oJdvqwMpCCmR2+3GzTffjPPOOy/CncOJRVRVhcvlwv33348+ffpEdBKx1nhyIqGyPtVt3OmK91QiCAJatWqFzp07R7x0yyd1OLUNQRDgcDggy3K17Z4T4WQnGiq6hpboSJIEVVUxYcIEzJo1C/Xr1ze3sxVF0ZypJ0Oe6mhaWhoEQcCHH36I3bt3A5XcqzbCjfwKYBvp8vJyBINBa5Aq0XUddrsdV1xxBdq0aQON7xfOiVF0Y5ZEN9Y1JiYmIj4+HrrxJdCTNdJYA6+2HjUNShfNaLHptKa9OgeYta0nckSDOmz2qM51Zwvd0HtRFLFz505s27Ytoo3n7T2nJhOtbvl8Pnz66adYunSpuVnIqSBa/bWeI8rAmA1jTS9b/wDgu+++w5QpU3DdddehXbt2QCV1UBAEc4vnPn36IDc3F6+88grKysqAKPeqrXAj3wIphLWhrkhRKoIMHnb7zdquLJzoRCvT6rohSiNWGTVVhyhdNPszc+ZMzJs3DzBmTqr78m1l+bPWQaqXVneC9beGpV+r7K3hrOmhc/ZgH/+y4Woq1rxRHhRFMfMSzbimg6BzGsSx8VqvZ6+J9p89t5ZpZdfUBGjm/rPPPsPLL7+M4uLiCnWSw6nplJSUYNKkSfj9998BQ79PBYKx1ezu3buxfv167NmzB4FAAPn5+di4cSPWrVuHffv2QVVVFBQUYOXKldi1a5fZLlEcBNvOAEBeXh4+/PBDZGZm4tprrwWMvKxcuRKzZ8/GmjVrsHz5cnPnt9LSUjNvderUwY033oh58+bhxx9/NO8RrW2vbZya0othJEmC2+0+4TX5uvGISFEUzJ07F6tXr7YGqRS2g7R2lNYw1vNoR1X+f/WoiKr8axJsOtl0V5UHa8MT7Trr9ZXFGc1dtzRo0cKcTdj8BAIBzJgxw2wsab3+iRg+FJfV4GZ/KwpbnXux17DxsfegeCpap8mmi66L1hnVVCjvlFY27eRGYXTLI2+ClSOdS5Jkhqsobjp0YyKElgWw9yX/aPepKbD53r9/PzZt2hTx1JfVLQ6nNiAIAvx+P4qLi61efxlN0zBx4kT06dMHY8eOhaZp2LBhA+677z707dsX8+fPh81mw/bt2zF48GB89tln5g6HFbUBdL5q1Sps2bIFl156KVJSUgDD8B81ahT+9re/YciQIZgwYQI++eQTDBw4EJ9++mnEAOLSSy9Feno6vvvuOwQCgYj7WO9Zm+BGfhUIxiOdk90WLRwOY968eVixYgUkSYIkSdYgUbF2hpUpGav81qM6YSo6TiQ8GQLswV5fG6B0smk/kU5at8wEs3m3ysHqV5W8rHFGC1NTcDqd0DTNfOwJY61+dWUZLX9svq1Gd7TwlWGVI8XHxmv9pf9k6LLXyLJsDmTYAQ0dbH2oaejG4FGSJNjtdjP9bB6t7RYrN8n4GjgblsKwMqpooMfGz8qM9auoc68JsIMXl8uFxMTEiO0Ha2KaOZzKkGUZ7du3R6NGjYBTPFB1OBxo2LAhcnNzsXv3bkiShHbt2sHj8eDAgQOoV68eYNQru92OVq1aQahgsG9tLzZs2ABVVdG+fXvzfo0bN0bHjh0RCATgdrsxYsQIjBw5Ej6fD19//TWOHDliTkjUrVsXjRs3xsqVK7Fnzx4zjtqONGrUqFFWx1NBLDRugvGRk/nz56Nx48bo3LmzNUilCMaHsH7++Wc4nU7zbXVWMauCwkfDquTRiFYZqsuJhLfe50SurWmw6T+R/FQnTEVU51pKB60jrM41ZwrB2LWAGsxVq1bB6XTisssuMw0/8qsOFeXNOuNLTzfo/nROgwo6VFWFZixJURTFPKeDlpyoqopQKGQav5rxmXe/32/GRe6qqiIYDEJVVYTDYfM3GAxCN2a0WSrK09lG13UUFhZi9+7dyMvLQ0FBAXJyciLODxw4gP379+Pw4cPIz89HTk4ODhw4gEOHDpnHkSNHcPDgQezbtw+HDx9GXl4e9u3bh/379yM3Nxe5ubk4ePAgDhw4gIMHDyI3NxcHDhwwf+nIy8vDoUOHsG/fPgSDQcTHx0OW5RNuO88ElCbSnebNm6Nr167mtss1Lb0cTmUIxku3rVu3Rtu2bREXFxfhdypIT0/HmjVrcOTIEVx33XXIysrC+vXrsXz5clx88cXo2rUrfvnlFwSDQTz00ENwu93mtWx90xmDX9M0TJ8+Hbt27cJtt92Ghg0bAsaApaioCD/88APuu+8+3HrrrUhJScGCBQtQWlqKm2++GXXq1DHjWbRoEdatW4cbbrjBjIP8aiuCTpI6RbCCr82QMuXm5uLxxx/H5ZdfjkGDBlmDRYWVQSAQwIcffojk5GQMGDDAVNCq5ENGCM2okbEhGDNj9Iib/BRFQTgchsa83CsIAmRZht1uhyiKCAQCpvFBaWTPyXgkQ0qSJDNeio/uz1Y0Otg0ORwOM/+iKMLpdCI+Pv6Elz2dLtj8E5SnoqIiHDp0COFw2DQIbTYbRFE8zgDUdR3hcBh2ux02m82UMa1NpzgExgglFEWB3W5HXFwcysvLEQgEzDg0YyYjFAqZ5VivXj20a9cObrf7hAzmMwHpAOkfvYDYokULUx+rk2bdqBv79u3DDz/8gEOHDsHv9wPGLBDJw+FwQFVV089utyMcDpvyh1GepKske6orpPcOhwMwXjaj+qZpGhwOh1newWAQwWAQCQkJkIwdHKguKIqCUCgEh8OBcDgMn89n6lG3bt0wZMgQpKSkRKSpJkDlJYoifD4fxo4di6+//hoejwdJSUkoKyuDz+eDy+WCIAgIBoOmHpKMgsEg4uLi4PF44PP5oBpPPBVFgdvthq7rKCsrg67r5jbE1NaQrGHUA4qzvLwcTqcTgiCgoKAAXbt2xejRo9GsWTNTt2qKDMHIkfSWZErUpLRyOFaoXWJhdZbaOlSz/a4MqiMA8NJLL+HNN9/Ep59+ihtuuAG33HILvvvuO9x777147bXX8M4776BJkyZ46KGHzH4Wlp1xWLdAIIABAwbg999/x1dffYVevXqZ9/38888xdOhQvPLKKxg+fDhKSkrQv39/5OfnY+rUqWjevDlgtENDhw7FDz/8gKlTp+KCCy4w++u/mvezCTfyo8B2gLm5uXjmmWdw6aWX4v7777cGrRJd13Ho0CHIsoy0tLQIxawI6gR1w1hcvXo1pk2bBp/PB4fDgUAgYBqCZOwEAgFzxlFVVdjtdgiCALfbbXa45AdjBlQy1s5KkoRQKGQanTRY0DTNvIZmJWnQIBiGE5Uza+xIkgSbzQZVVc2diTweDx555BFceumlZh5RA/TEKmtVVfH2229jypQpyMjIQDAYhN/vNw0PMjLJmHS73eYaXEmSTMPIZrPB7/cjFArBbrebRqDf74emaabBqCgKHA4H/H6/WV40mLPZbFAUBbIs49ChQ0hMTMRbb72F7t27W7NxVmGbEKt+kx4JzA4I1Snzzz//HCNHjkT9+vVRr149yLIMp9MJMIOx8vJyU360RCgUCkEylpCwnQMZpw6Hw6wLMLa4FQQB5eXl0I1OyGazwel0IhgMwufzwWazwWazIT4+HuFw2NQBGrBSPSwvL4csy3C5XJg/fz6Kioowffp0nH/++ebgtzp5PxPoTBt38OBB3HnnnQiFQrjrrruQnJxsPpmQZRmhUAjhcBiyLENRFAQCAXg8Hui6jri4OMTHx6OsrAyBQAAw6gEZ81RPHA4HHA6H2XZQOdlsNpSWlsJms0HTNBQVFcHlcsHpdOK3337DqlWr8Nprr+HKK680y5PaopoA6RdbB0g/K2vjOZyaSjgcRk5ODhISEswJCrb9PhmovYHRNyxduhR/+9vf0KVLF/Tu3RsLFixATk4ONE3DZZddhtLSUvzjH/9A586dzT6EbBaKg41PVVUMGjQICxYswOTJk9G7d2/z3h9++CGeffZZvPrqq3j44YdRXFyMvn37oqioCFOnTkV2djbAGPkLFizAjBkz0KFDB3OQ81fyfrbhRn4U2A7wyJEjeOGFF3DxxRfj9ttvtwaNClUK+iUUY12/XMUno9n7A8Drr7+OTz75BDfeeCPi4uKQn58PQRDMDhPGTKbD4UBxcTH8fj/i4uIQDAZNo5wMVdaIt9vt5rnf7zdfMKZZO5pho5ljGiBQumRZNg0g3TC6PB4PRFFEaWkpwuEwUlJSsGfPHkydOhVPPPEEhg8fbuYRNUBPdMPIh2GclJeXY9iwYcjLy8PQoUMhMLOYYJ5mkFEeFxcHwViWRYaR2+02DSIYM9B2ux2KopiDJo/HA6fTCcV48YfKg4wdmVmeYLfbsXbtWkyaNAnDhg3DLbfcAo2ZCT3bkAx15qnQ4cOH4XA4kJiYaMqM8lNRmbM68d5772H69Ol45ZVX0KlTJ4RCIbORF4ynTTT4pLhJHkKUGXzyI3eqY+TGQmlUmBl/0XiiplqesLH3pnKTJAnTpk3D008/jbFjx+Kmm26q0Ub+3r178dBDD+H666/HI488Yg161li9ejWeeeYZDBkyBP369YvQsZqGqqqYPn06CgsLMWDAALhcrhrTxnE4J0JRURFefPFFdO3aFXfffXdEW/FXoH5CkiQcPXoUgwYNwqxZs5CSkoKXX34ZrVu3xn333Yd9+/ZhxIgReP31183+0HpvavtZv5deegnjxo3Dp59+iuuuu84MO2nSJIwYMQKjR4/G4MGDUVxcjFtuuQUFBQX49ttv0bhxY8DYiWfQoEHIy8vD1KlTkZ6eHhNGPvRTjKZpuqZpVudahaZpuqqquq7rel5enj5w4EB90qRJ1mAVwuZfURQ9Ly9PP3LkiK4oiq4oSkTYaGiaFhHuX//6l37nnXfqhYWFuq7rut/v10OhkK4oih4Oh/VQKGTeMxwO64FAQFcURQ8EAmY4ctN1XVdVVVcUxbxGVVU9FAqZ99MtefirlJSU6Pfff7/+1ltvmW6nMv6/Ask6HA7rupHWBx98UH/55ZetQc8qhw4d0u+991598uTJul6D5KczMiT98nq9+vPPP6+//vrrETqnqmq10z127Fj9+uuv1/fv32/1qhWsW7dOP++88/SZM2fqupH/mgTbxh04cED/29/+pv/3v/+1BosoWypDK9Ut02hYr2XPf//9d/3iiy/WZ8+ebfpZw59tSB7hcFi/++679W7duul5eXm6HiVvHE5t4PDhw/o111yjv/TSS6ZbtHp/olCbQ/ViwoQJOgC9ffv2ek5Ojq5pmn7ttdfqkiTpU6dOjbg2EAjoO3bs0P/880+9vLw8anzff/+93qBBA/3VV181r9M0TX/11Vd1APrTTz+t67qub926Vc/OztaTk5P1hQsXmmG3bNmit2/fXh80aJBpD1C7V5upxcOTM4NuzFCXl5dbvSqEZvcAIBgM4tNPP8Xs2bMhWHaLqAoKRzPuNCPkdDrN9a00m05+siybS2YcDocZjtxgzFzSDCid09IDwjr7xM58RoP1s4YVRdH81HtFYWoKNFtIM8CsGyzpZtPPhic/us4ajvxpVpgNRzPU5EdPT/x+P8LhsDmjYC2fmgDlU5Ik7N69G1u2bImQYVVpZuWkG0tqqN6xcmLDsOVFMqSwVtmyB8nW6k4HES0e63/2IMrLy816V1sIhULmf1au7FMLdkaL/Ol/NLdosmPjtv6S7tP1bLtE4WoSbHo0Y3ljmHmHicOpbQjGuzeno66xtlHv3r3Rs2dPXHvttcjMzIQgCLjiiivQt29fdO3a1bxm3bp1GDZsGG688UbccsstePLJJ7F27VqzflF7ceGFF+Lqq6/G/PnzkZOTAwDYu3cvVq9ejeTkZBw6dAj5+fnYtm0bJElCamoqVq9ebS63Xb9+PcLhMC677LLTlv+zATfyoyAwSwo040U9UqTqwCqHruvYvn079u3bZ7pX1fhTZ0rhPB4PwCgzdZRs51nRQUQ7r8ivMiicznTmrJ/OLMmgsIqioLi4GCUlJWbYmrR0wVreJGfWoCF/CktLOVjY/LBlyLqzcVr9BWY7QfKjgRmV94no4ZmC8kB5E0URiYmJcLlcETqiVWHoW+WkG4MeOrfCypiVJXuQO+kmW28EYzlPRbC6zh4sIrOlJpvGYDBoLuGicDUVVsesULpJnkePHsWSJUvMJYOwtCWsHtD/aOfW/2x5UXiaiGBlSPesKZBuSZKEDh06oFOnTuZyzGj6wuHUdDweD26++Wb07NkTYOyOUwHbBjdu3BhjxoyJ2NDkjjvuwL/+9S+kp6cDAHJycvD6669j9erVaNasGVRVxfvvv4/nn38eBw8ehGj0E4qiIDExEYMHD0Y4HMann34KGB+5GjZsGL7++ms89thj8Hg86NSpEz766CN89tln6NOnDxwOB3bu3ImvvvoKN998M26++WYzPTWxzTlRam7Pc5ahglWNHSNOtrEWjVlsUpaTafh1xtiBxahiO8hoh/Ua9rwiv2hY4xQss3pWfxYKdyJPQ84kbJoprTTLa/WHUR7y/7F33vFVFF0f/+3u7WmE0EInlNBBpEkRCxYsiCBFEGwgggioWEEsKCqISlXECipFsYFKsdAEREGadAIJvaQnt+/O+wdz5p273BSQkvjcr5+V3N3Z2ZkzZ2bOdIsFubm5+OWXX5CSkiLeK27ayvIKJzfzPUVa6FlSobhrmobrrrsO11xzjdlJsbFYLIiOjg6Jc3EL3HAyVUx5T25ImaF78r/kXpd21gn3LuF0Os8avSqpkGFtLmNkqAGwf/9+TJgwAdu3bxfuCpIFyZsVsZuYWd6URrSOhXraCvrO5USR9GrAgAF4/vnnkZCQIJ6VtPBGiFAUTqcTDzzwAK699tqQevDfIpcVOt+xrl27dqhbt65Y3F+pUiU0bdpUbLLw66+/Qtd1fPTRR1i4cCHmz5+PLl264Oeff8bq1asBqSwHgDZt2uDZZ5/FihUrMG3aNLhcLlxzzTW44YYbcMUVV8DhcKB69epiFKFBgwY4cuQIxo0bhzJlyuDRRx8V5XZhZVtpImLkF4BZsc2/i4umaejevTtuuumms4z1wpAVizKAzPmG53Kg8gODfHxPcZSwXi45HBpfzOPz+cL2bMocPXoUr7/+OlasWAFc5EpdNU2xKoko0kLXbt26oWfPnrDwXW7IkCwMOR1oQTgtXjY/Px/I2NQ0DXv37sWuXbuAMAatjKqqOH78ONatW4esrCyxEAxFhIem2JEb0vfC3rlckEwKg2Tk9/tx8uRJ0WAvLE7/tpIkvaGecdKtkgTF3TAMJCYmIjk5uciNFSJEKMmQnVJQvv63yOUCdaLKnShkIxiGgTJlyuD+++9H8+bNYbPZ0KxZM9x1110An4oDXkbLZUOXLl0wcuRI5Ofn4+jRowDvtPP7/cJ/Q5r6l56ejsaNG2Ps2LGoXLlyoWVaaaTwWjcCNOkkyPNBVVVcf/31uOqqq4TyFqfSk5VM43PvSysWaftDyoj/pvK/GFBYFH5yZXHkbfBTXeW5zBcLMqCL20i81Kh82JTSl3YaIopTcMr6QKNn5oZBUX4UBOmbpmnYuHEjpk+fjkOHDoX4T36bv6FpGn799Ve8++67yM/Ph1aMdTWBQAB5eXln9UKXJJ0nDH4GR0Fxku8rfATPnLbhoDQv6jlBFS+lCXUKkMzMulASoLBpmobNmzdj+fLlISOWBcU9QoSSSm5uLqZMmYIff/zxgpdZcj0LqQygvK3y0VUyxK+//np07tw5pHHv8XhQrly5kK0vmbTGDQC6du2K4cOHo1y5ciG7GprL+2AwiPr16+Oxxx5DUlJSietEuBCUvFKzhCArIW2Ld66Q8gb4KZjUWi1OwS+3NGnx7Pli/p75dzjCuTFXykXdJxR+eBFtLYkC5v+WBBRFgcPhEFOszDDT1IPo6GjRgCkOBclK3kpTTnuC8UJM7tm+WMjfNoejIKiHhEZCPv74Y8ybNw+qad71uSKnQUF+yHIrCMbnTWdkZGDy5Mlwu91o2bKleE7Gq/wNSquKFSvipptuwvLly8VcT6WIqXc+n09sI3s5kMNWUBiJYDCI3Nxc0SAxQ3GFlG+pPKL0NX/DkBbR0jOv14tjx46JtTkKb7gyqXEopy81JqhBYf5GSYD0JhgMYv78+Xj11Vdx4sSJEDclMdwRIhSEx+PB4sWLsX79elFuXijMZSaVt4zbSlQGk1uasknlQ05ODn777TfUr18/5MArhXfgyGUVnbdBdpd80XdVvukILbQ1h++/wNlWTIQQdH50/bkYV6SkCm+Rrly5EuvWrQPCKHk4mGk/cXmXEXoeDhZmOhC5pUqXMovZkGS8VStXqHSRW9lvs0Eqx4v+lTNrYQbY5UY2LMCNngA/SwCFpFlxG22yfChdT5w4gU2bNmH37t3iPAOz3GRI1heywDUjh9N8FYXKp1UofKHkqlWrsHr1apFvqPAtzD/5voUfKlWcdQgkL5UP26ampmLnzp3Izc09y82XX36J3bt3o3fv3oiPjwd4/jp58iRyc3Nx8uRJbNmyBUeOHBHvAkDLli1x/fXXY/bs2diwYYO4X1BcLHzXq4uZXuGg8JC+kJFMvwmzjjF+cnNBkHsL371LHumSyyomlReyTqxYsQIDBw7EjTfeiL59++Lbb78VB2JRuGQ/wv1mRcztvxxQ2CwWC7Kzs5GWllaiGyURIhSFhZ+tY4TZn/58kct+ysdymWI27uk5lWH07IcffsCOHTtw7733olKlSgjwHeeoLpb9hVQ20T35tyJ17NAz2Z//ChcmBf/DUGVd3ALbXEEFAgH88ssv2LhxY4hiFYZZwXTegytXhuH8ULghtXv3bixYsAC//fYbAvz0VEgVMFX6CjfINm3ahLS0NCim3UbILWVMVVWFAQWpp81cSZvDr2kaAoEAcnJyQoy+kghldOoVMCPfs1qtwrAsDiTfH3/8Effddx/uuusu9OrVC2+//TaysrKEQRjOmJELsouFnH6kx8Ut8OT8QfKD5CcZfnQvXH6SvxPkpy8XN74qP9r8o48+wjPPPIMnn3wSjz76KJ5//nl88sknyMvLw+HDh/Hxxx+jTp06aNOmDcAPQJk2bRr69u2LkSNHYvz48RgyZAgefPBB/P777yFhuu222+B2uzF37lz4/f5Cw2a32xETE3NOozwXApKtIu1UQ+GUZS7/rfLNAYqz3SeVReHSz4zCOzkWLFiAp556CgcPHkRMTAx++uknDB8+HL/88gsgjQqY/dQ0DS6XS4SLyqGSBsk7Li4O5cqVg81mA0xTEyNEKC04HA60aNEC1atXL3bdVhRULqm84U/1ilwXyPUDlV+UtzRNwz///IMvv/wS99xzD3r16iXc0rslsWwoCRRcS/2PQwpjsVhEb1RBmJXLrHAejwd5eXlCcWWDpzjQiamE2X8ZRVGwaNEiPPjgg/jqq69CRiDkTGXhJ7J+/vnn+P7770WrnXrWZP8po6uqiqysLHz66adisSnt0W8OjxzGwjIi3Qv37HLAGIPf7y905IbCqfF90OVezYIgGSxbtgwvvPAC/H4/WrdujaNHj+LVV1/FggULQtyZsfApYwVNqbhQyAWsHBaKc0FpJOuApmlo2LAhateuLXSJ8QK+oPiZcTgcxTI6Icnsyy+/xIwZM9C2bVsMGDAAGzZswCuvvIJVq1bBYrEgJSUFaWlpaN26NaKjowGet06cOIFffvkFGzZsQOvWrdGvXz9s3rwZH330EfLz88V3ateujdq1a2Pt2rU4fvx4yLfNBAIB+P3+YunGhYTSQK5EydAnY1p2R24LatQS9IzcyfoQTifo24cOHcKnn36Kli1b4uuvv8Z3332Hl19+GYcPH8YXX3wRcg4CTI1KWrh8Kda8/BtIx7t27YqRI0eiTJkygClP/C9QVBlRXArSqcKgd871vZLK5YyP0+nEo48+il69ekEpYpvhc0HhnYpZWVmi81Eup+Tyh/EOSSq79u7di3HjxqFhw4Z48sknhT2kFtLREuEMEQlJyBmK/ial9Hq9Ic/MmbCgv202Gzp06IAWLVqI3viCMi/dNxvZmqaJXmPZbTg0TUOTJk1gs9ng8XiEoUSZiTINACxYsACffPIJrrrqKtSqVQu6rocYBFqYw7aaNGmCihUr4q233sLGjRvFd80GglzBUc8fzY8jwsVBlmtBcioIciu/axQxVzscuq7D6/WeZeiHCw/1ShBy+prdZ2ZmYtmyZWjXrh0+//xzzJ49GzNnzkRMTAy+/vprsfd4uILL4Isj5biY4yn/G+5ZQb/pHpGXl4e9e/eKnQnk78n/hntm8BGi/v37Y8CAAdD4IlXSB4/HA4TRF5j8tVqtCAaDZ6VBQeTl5WHBggWw2+24//770atXL7Rt2xY1a9bEkCFD4HA4cOzYMVgsFlSsWBHg33M4HGjatCliY2PRr18/9O3bF/fddx+aN2+OlJQU5OXliW+4XC5UqFABx44dO2vetRnKOwWll5wOxcH8brj36B7J9tixY9i0aVPI+RSEbEwrigK/3x/SoJGhsIK7LSoPywQCAdxwww0YPnw4KlSogPLly4vdMvbt24ecnBxACo85bub8W9T3CqIo2aEI/SbM71Ma6rqOq666Cn379kVcXJzIB3I5KGMOj9lNuGfhfhf1zvlg9sfsZ0H35H/DEc69GSaNYhbkpiDk98xXaYHCS7oTrpy82GiahsTERCQkJIj6KFyddK4oioLNmzdj6NCheOKJJzBr1iysXr0aR48eDcnjVMZQ/FNSUvD0008jLy8P9913H6xWK06dOoVVq1YhLS0tpCyLcDb/PuX+Q4QrXBjv9Tb3pEOqgJhkTFImpd+apuGOO+7ATTfdJCpHlU9zIYOHkCsFWWnJuKN7BWV+Clft2rVRs2ZNMMaQl5eHo0eP4vjx4yKjapqGLVu2YNKkSWjevDk6d+4s3s/IyMCpU6fg8/lw7NgxbN++HVlZWVD4AVCapqFXr17QdR0zZsxAXl5eSKUvQ2EkI1+eX02ykuMhy59kSHGie/JFyPI2+0V/u91u7N+/HydPnjzLneyW/DUb7/QNmr4E07xnmXBhpPvt2rXDI488gkqVKsFms6Fr167o1KkTvF6v6KWX4yy/q2layPQPWVfMukFXuOdUKMoXxXXr1q0YMWIEevTogT59+mD69OnIzc0NkZH8N0ENQ/KratWqSExMhManGGmahvT0dEyYMAFjx44Vhbs8MiH7q2kacnNzQ+aJm+UpY/BeH7fbjYyMDIAfhJKUlISkpCQAwPHjx6HwaRX0DmGz2UKM/7i4uJBTosHD53K54Pf7Rd4Nl87gDQLzVJ1wMg8ny3CY3w33nvn+5s2bMXjwYAwdOhTjx4/Hp59+ii1btiAzM1O4B4+7qqpnjRLJekxxpFO0aYRCMfX0URgYN3xr1KiBIUOGIDk5WbgjfShXrpw46I/ekfM8jahR2atJ08DOlaJkB0keBT1HGBlrvDFn4VsE0zoQcx4zYw6P2U24Z+F+F/XO+WD2x+xnce+ZMbsPh9m/4mJ+z3yVFkpCeAOBALZt24a9e/dC4fmSRibp8nq98Hg8Yr2g1+tFXl4ecnNzkZeXh6ysLPE7IyMDmZmZ8Pv92LBhA+bOnYupU6diyJAh6NOnD3r37o0RI0Zg5syZWLNmDU6fPi02KsnMzMSECRPwzTff4NChQxg3bhz69u2Lu+66CxMnThTlsFwGRQhFYeFqqH8BeXe5FfXfQJWaqqo4efIknnnmGXTo0AEPPPCA2el5c/z4ccyYMQNOpxNt27ZF5cqVUaVKFTGNQGbq1KlYv349Jk+ejHLlygE8jGYZ073U1FT069cPGRkZuOmmm7Bjxw5YLBY88sgjuOWWWwAA48aNw+eff445c+agVatWAIDdu3fj9ddfR0ZGBq644gqcOHECf/zxBzp16oTHH38c1apVE9+aMGECpk2bhtmzZ+Oaa64RRpYMhcfn8+HZZ59FVFQUxo0bF+LmUrFr1y48++yz8Hg8aNGiBRo1aoT69eujSpUq4nRW8AbJsGHDUL58ebz00ktQTXPuDd7Y0jQNJ0+exKhRo3D77bejZ8+eAB8FkCsc+pd0it4nIyA/Px9DhgxBTEwM3nzzTXFKrNmPw4cP46WXXsI111yDfv36ifAURTg9kZHza0pKCkaMGIHFixeL506nEy+++CJGjBgBu90eks70rhwn8Epi3759CAaDqFevnhiF2rFjB+666y7s3LkTFStWRHJyMmrXro26deuidevWqF+/PsqXLw+bzYZPP/0UCxYswMSJE9GwYUPxvYLiYhgGZs2ahXfeeQc9e/ZEu3btMGXKFDRp0gSvvPIKrFYr3njjDUybNg2TJ09G9+7dRVwWLFiAkSNHYuzYsXj44YeRl5eHAQMGID09HV9++SUqVKggvvPYY4/hu+++w7x589C6desQw1Vmz549ePDBB9GrVy888MAD8Hq9IXpEcdH49LhgMCjipuu6MKJpcarKd3BR+TxVeSE+5TGPxyM6JOx2O7788ku88MILwnh3Op1ITExEgwYNcN1116Fx48aoVasWfD4fnnrqKbRq1QovvfQSEKbSZLyRuWzZMowbNw6PPfYYunXrJkb/ZONbrlIoTmS8a5qGn376CQMHDsRjjz2GUaNGieeUTxRu6OzatQuDBg3CFVdcgZ49e8LtdsMwDFgsFni9XgQCAVj4VEpFUWCxWKDz/bDBGyQBvpUryUXTtJB1RCRPxjceAG/gy/pMz+k9m80mvkF+qqqKFStW4MCBA7j55ptRqVIl4YambdGOXZTe9H05DHSP5EFxIL8URYHNZhPrxKgDhcKlmaZd0ZQn0nVqoFHHhM4PJSK5G4YBv98Pp9MJja+lIj1ljMHr9cJutwu3JCeSGbmntLTw0SxKN+rconBRGEm25N4iTU8MBoOw8AXflA4kC/ny+XywWq1wOp2ig8DlcgmZMMbgk85qIb3183NorFarKKt8Pp+ID+H3+4XMKd7kr2EYYsSb/JfTR1EUeL1ekV/k71Mcdd6BRPIOBoPw873dKQ5kZBuGIYzrqKgoOByOkHAFg0F4PB6RNpQuFt4YdbvdyM/Ph6qqiI6OFnKxWCw4ffo0fvvtN5QvXx5t2rRBgO8OGOSdfBSXAN92V+NrZ9xut0hTj8cDl8sFVVWRkZEBq9UKu92OLVu2YPPmzUKmZsqVK4f69eujV69eGDhwILZu3YqhQ4fi0KFDAN+1jNLm8ccfxwsvvAAbPzTPrPsRzhAx8sPATEb+Y489hrZt2+LRRx8Vzyl+5JZ+y5UVeCGampqKYDCIWrVqwcp33NixYwfuuecebN26FVWrVkXNmjVRr1491K5dG02aNEG1atVQvXp1xMXFCSP/rbfeQsWKFYuU8bFjx9C/f3+sWrUKffr0QcOGDTFnzhyUK1cOCxcuRJkyZfDAAw8gPT0dn332mdhl5ODBg7jvvvuwcuVK9OvXD127dsXy5cvx/fff46WXXsLDDz8svrF48WI89NBDePbZZwuVi8pHLUaNGoXjx49j1KhRsNvtokCxcGMmEAgII9Ln84HxwlxVVdj4wUgej0d8Q5YvVdyMMTidTgSDQXi9XjA+emC1WrF27Vq8/PLLyMrKAgDExsaievXqSEpKQuXKldGgQQM0bNgQqqpi6tSpaNmyJUaPHg2YDB6qgLxeLzZt2oTXXnsNnTt3xoABA+ByuUJGK8zpQ2En/zRNw5o1a/D0009j2LBhuPvuu0W8YHqfGhQ+nw/dunUTlTH9q/ATcfPy8hAMBmHl010Yr2gMw4DT6RTf9/v9yM3Nha7rcLlc0HUdGzZswLJly6DrOmx8d4VgMIjq1avjjjvuELpHcjX4OQHBYBB2uz2kQvn111/h9XrRuXNnOBwOqKqK/fv347vvvhNTNGQqVKiAevXqoUmTJqhSpQrWr18Pt9uN9957T+yHLOuXjMENmNTUVDzxxBM4fPgw6tevjzp16uDee+8VjdP58+dj+PDheP755zFs2DDx/sKFCzFixAiMHj0aQ4YMQX5+PgYOHIgDBw7g22+/FUesB4NBDBo0CLt27cLcuXNRs2ZNkZZUcROHDh3CXXfdhfz8fLRr105U4qTTft5L7XK5RIVNRhXjW8fRfcoDOjeEvHwqGemawkfZ3G43HA6HMFRSUlKwa9euEP2VKV++PFq2bIn4+Hj8+eefeOSRRzBixAhA0nmFG1BHjhzB+++/j+XLl2PHjh1o0qQJmjRpgvvvv190EhCyDtPfjBsDbrcbQ4YMwdGjR/Hxxx+jatWqQqcI+ubRo0fRr18//PXXX2jevDnADXe73Y6srCzk5uZC5YYr+OgJGSSapsHpdArDysKnHRqGIcoRm80myhIyqshYMIeddI/0j9xT+eL1erFjxw643W7UrVsXcXFx0HUddrtd9Hg6HA64XC4o3Fgz+Egv+UsGLvh2o5SfyLCm9FdMo0CkN3JZauGNGp0vlFa48elyuWCz2YShRHKg8hI87aOiomAYhjAErVYrdF1HXl4eoqKixDdJ70nnqEGj6zoCgQBiYmIQ4Ifa2e12oafR0dEhsqd0ioqKQpA3Zi0WC/Lz8xEMBsUaHZU3iKhMg6Qv4PrhcrmQl5eH/Px8sW2zLhn2gUAAXq8XNpsNDocD+fn5cLvdcDqdYkvkvLw8ER+v1wtNOhvD6/XCwkd6SVcojBbe2HE6nUJeJHefz4dAIIDo6GgEeSMvKioKXq8Xbrdb6Iudr/OiMoPiSPWczus8xutIhTf8VN5gNHgdRfpO8mG80QVJfwGI6WV+v1/o6/Lly2G329GuXTvExcUJnaOGpNzoVHlDgUnT+ii/UD3icrkQHR2NP/74A1999ZWIF2GxWBAfH49atWohKSkJXbp0QY8ePUS+Ak87j8cDP+/4aNKkCRITE8U35TwR4f+JGPlhoEJd5a3QBx98EKmpqejcuTOCwaCYp0s9CwrfW11VVeTn54shW4P3XqWmpsLtdiM5ORmxsbGIj4/HwYMHsXLlSpw+fTqkt0BRFMTExCAxMRH169dHcnIyNm3ahPj4eEybNg0VKlQICZ8MheXw4cPo3bs3LBYLPv74YyQlJeHFF1/Ep59+im+++Qb16tVDz5494XK58MEHH4jpCwAwZswYTJkyBR988AF69eqF7du3o0+fPujQoQOmTp0qKtTt27ejX79+6NSpE958803RM0PpLoeRMYYnn3wS06dPR+PGjYWsHA4HAryXSuFGqlzRUiFE96nwooqLChsq/MAXbAakRT2U8U+cOIGUlBShn2YsFguqV6+OGjVq4NixYxg0aBAef/xxwGTkK4oCj8eDjz76CLNnz8auXbtQuXJl1K9fH3369EGvXr1EQUsFqywX8stiscDv9+PRRx9FZmYmpk+fjvLly4sK2VxgZWdnY8iQIVi+fDnatGkjCk9FUXDq1Cn4/X5UqFABAb6GxMIPICOjT+GGhSat7yCZxsbGgjGGrVu3Ytu2bQCvBJjUQ9WpUyc0a9YMXq8Xubm5sPO1HkG+3ajH44HVakV8fDz8fj9++OEH+P1+3HLLLaKSSE1Nxa+//nrW3G+FV0IJCQlo0aIF6tevj+3bt8PLd8upV68eUIiRT3zwwQeYMWMG7rzzTrRt2xZ169ZFzZo1xfPNmzfjjjvuQJcuXTBjxgyRf2bOnIlhw4bhpZdewnPPPYfMzEz07dsXe/bswaJFi8RIwr59+9CvXz80bdoUU6ZMEaMuCGPk7927F3fddReqV6+OO++8Ezo30EhPDan33ufzQVVVuFwuePnaH/I7KPViWrjB5/F4oGmaMLZU01QpCzcWv/vuO3zxxRch4QKv1OvWrYs2bdqgffv2Qp979eqF4cOHA2GM/F27dqF3797YunWr8Mdut2Pu3Lm48847xT0UYByTfObNm4dPPvkEzz77LDp16iTcyGlLbg8ePIiHH34YVapUwd133w2FGw0aH/2gCp++FxUVJfyy8A4EKluoPKHGFePGLX3LKvWMUzrJeVGWsd/vh8PhEAaWyo3ByZMnY+3atZgwYQKSk5NFz3IgEEBmZiYYY4iJiREGM8WZ/qX0pXBQvAxudFO54vF44OOjM9TIILcKn5oI3kNOjXAqI6mh7+MnelPcqGNF4Y0BkgvJj+7LBi7Jye12i3DQd8mwJ2OX9JjiHRMTI+RGxq8qdejovKOB0pouSGWTzhsSOjeO5TxDDTiKV5A3HFwuF8DLLUijJgHek+/ke6uTbAze6aTxRiPdY7xu06QRLAs38Mmg1XVddKTExMQIfZPTnxouft7oc0jr1ig9KF/Iuki/Ka8jTJltlfaXp7SheFn4SImcD+g9j8eDUaNGITo6GuPGjRPyoLLGHDZd6rAzpEaF/DexdOlSdOvWDV6vFw0aNEBSUhKSk5PRokUL1KlTB1WqVEFCQgJs0vRoWcZmdGnUhPJnhFAiRn4YmGSgBgIBfPHFF1i2bJnodcvJyREFi40PjVOPgdvtRlZWlshkwWAQv//+O4LBIDp27IiyZcsiPj4eqamp+OGHH3Dy5Enz52GxWFC+fHk0btwYjRo1wtatWxEfH4/p06eH9KZShjNz5MgR9O7dG8nJyZg1axZUVcXMmTPx5ptv4tNPP0WtWrVw6623ombNmvjkk08QGxsr3h0/fjxmzZqFDz74ANdffz2OHj2KAQMGoFKlSvjggw/g4POM9+zZg549e6Ju3bqYNWuWGA2QoYJA13U8/fTTWLJkCfr374+qVatC4/Nrs7OzRa+KLvVSUK+In/ek2Gw2xMTEiMqK3FHhTd8hQzYuLk5UfoqiYOPGjZg0aVJIL3JcXByqVauGBg0aIDk5GUlJSahUqRIWLlyIpKQkPPXUUyGFKBUkVAjOmDFDiu0Z2T377LOANKJD79HfdF9VVSxevBhz587F4MGDcfXVV4sCmuIjc/r0aTzxxBOoUKECHn30UWi88lNVFdnZ2fD5fKIi8fGhVRsf1qfKhypsKpAtvFfHYrHA5XLh119/xYgRI7Br1y4hZwC49dZbMWXKFCQlJYleMNI/SjefzyfygsfjwZgxY+B2u/Hmm28K/ZINxbJlyyIhIQG1a9dG8+bNRc97cnIyypUrhzlz5uCTTz7B5MmT0bhxY6AIIz8YDGLEiBGYMWMGatWqhZiYGJQtWxZVqlTBgAEDcOONN8Lv92Pw4MHYvn075s+fj6SkJGRnZ+Opp57C+++/j65du+KTTz7B3r17cffdd+PUqVOYPn06+vfvDwCYO3cunnrqKbz++uvo16+fyIfmigzcyB80aBAGDRp0TtOrLiQLFy7Eo48+ivz8fDRs2BDJycmoX78+WrdujYYNG4oRitzcXDz88MNo2rQpnn76aSCMkZ+bm4vBgwdj7ty5wv/mzZtj7ty5qF+/vrgHqQ6gv6mcWrZsGT755BP06dMHXbt2FW7IoJUraUVRsHv3bjz99NPo378/evToIdyXVBYuXIhff/0VL774IsqXL29+HCFCqWHlypWwWCwhB05dCA4cOIC5c+eiQoUKaNOmDZKSksS6HDPmRoJc/pvLGITpaInAYRcYwzCYYRjm26UOXdeZrussEAiwQCDAvF6vuNxuN8vPz2dut5t5PB7m8/mEO5/Px9xuN/P5fIwxxjweD5s4cSKbPHky83g8wv/U1FR2zTXXMACscuXK7Morr2R33nkne/7559m8efPYH3/8wU6dOsUYY2zatGmsf//+7OjRo4wVImO6d+TIEdapUyd27733im9OnjyZ1alTh61du5YdOXKEXXHFFaxnz54sLy+PMR5fxhgbN24cq1mzJlu+fDljjLG0tDR20003sXvvvZd5vV7xrZSUFNaiRQs2cOBAlp+fL+7LUHj8fj8bOXIkGzlypNnJJWPv3r3s2muvZXXq1GG33HILe+aZZ9iCBQvY5s2bWWZmZog8x44dy55//nnm9/sZY4wFg0Gm67r4zRhjs2bNYhaLhQFgAFj16tXZihUrGOOyDAaDwk9d189Kr2XLlrF7772XrVy5Utyj75jdMsbY0aNH2aBBg9i8efPMjy4Yuq6zjz76iLVs2VLE7eqrrxbxOhf+/PNP9vvvv4fcy83NZc8//zzr27cvmzlzJlu3bh07duyY0D2Zr7/+mnXr1o3t2LFD3AsnFyIjI4M9/PDD7Oqrr2YDBw5k/fr1Y/369WNXXHEF69y5M9u3bx9jPFzt27dnEyZMYIyHad68eWzixIls9uzZLD09ne3atYtNnTqVvfXWW2zVqlWMMcaOHz/O7rjjDtarVy+Wnp7OmJQPw4Vr79697Oabb2bz5883P7roUJj279/P5s2bx3788Ue2b9++kPJH5vTp06xfv37s9ddfF/dID+W4jR8/Xug7AHb33XcX6CflAeKXX35hrVq1YuPGjRN+btu2ja1fv57l5eWJ8lb+5u7du1mXLl3Yp59+KvwpaRiGIfTX7Xazo0ePhpSTESKUZgKBgMib/xZzeRLh0hBp+hQCtRA1vh86XU6nEy6XSwzt2Ww20TNqs9ngdDrFcJPD4UCvXr3QvXt30QsOAAkJCejTpw9eeuklzJw5Ex9//DFmzZqFsWPHonfv3mjdurVYZKvyKS80bCW3YmXovsIXbJlbthS+2NhYlC1bFidPnhRTJ+RhOF0artX5EK3ZPz+fk1erVi24XK4Cw0RQjzJNTaJeULqo51CGnpndm6H3zf7J9ypVqoRXXnkF8+bNwwcffICxY8eiZ8+eaNasGcqUKSN6CHw+H7ymBVLUm6Dy9QXgvZhVqlQRYWjcuHFIj7MMpR/FccOGDXj11VdRp04dXH311cjPz8eKFSuwZMkSuN3us3qFZT9oKtiFhEnD2f3798crr7yCVq1a4dprr8XUqVPRqVMnBPk0qgDf6UmOo1newWAQLVu2RLt27ULuOxwOMQLy0EMPoW3btqhUqRJUaTGi7K9Zfwtj9erV+Pnnn9G3b1/MmjULn332GT777DOxpzLtKNOyZUsMHz4ca9euxXfffYfo6Gj07t0bo0aNQv/+/REbG4u6deti2LBheOyxx9CxY0dkZGRg+vTp0DQNzzzzDMqWLRuia+EgWV0OGN8No2bNmujduze6dOmC2rVri/LHMO0IVVhcFGn9S6NGjcTGABaLBS1bthR+mvVBZvPmzRg9ejT+/PNPrF+/Hs899xyGDRuGhx9+GGvXroVdWshphkZLCbPfJQWDr3lJTEyEna8tihChNML4AmWa0nUh8xzVbbrpgM8IF4/i16L/o1Alx0yGpGy8kIFCSkv3aFpJ9erVUbVqVfFb53MjH3jgAYwePRq33XYbmjRpgoSEhJDpKJS5AoEAAnxBXnEIBoNnLW6kqS+5ubmIjo5GrVq1cOjQIbHdIFX6OTk5cLvdwkDxer04ffq0WNBJHDhwAOnp6cLQlY0BQv5NjQXZD1mWJD+Ku1mOZnnLFwpIJ7lAcTqdaNeuHa688kokJiaKeYZU2MhGD4XHHB9Vmg9ZrVq1kN2GGjVqhISEBMl1KNRI2LZtGx5//HGsXLkSq1evxkMPPYRu3bph4MCB2LNnj5gzakbhc20vtJHPJAM/yOfNdu7cGZ06dULHjh3RtGlTQAp/QfMjSVb0r1fafYHSQ1VVxMbGikWJcnpCakyBNyK9ph1pCiMnJwepqamYM2cO5s6dix9//BGzZs3CnDlz0KJFC9EAA4BevXqhX79+SElJOWu/e5VPlSJdAp8bXrZsWbz66qu44oorxDM5vGZIrpcaChfpKeONdpKzLE/SeSZV6oQcN5JDnTp1ULVqVQBAYmKiODWYvim/C2lB6A8//IB//vkHsbGx+Ouvv/Dhhx/igw8+QHp6Otq0aQOLtDBShvGGodw5QmEpKZB8VVXFxo0bsWTJEnj4riak3xEilCY8Hg8+/PBD/Pjjj7CYtpL+Nyi8IX85ysX/ZS5M6v0HoUpOruzMlR79TZWqXLFCMhh8Ph/y8/NDDAODL3KhudVMMirM37VYLKIyoefhKg/6/u+//45//vkHf//9N/bs2YOsrCysWrUKBw8exPfffw+v14vrrrsObrcb69atA3iFfOjQIWzatAnp6elim6t//vkHqamp+Oeff7Bv3z7xrV9++QUJCQmiojekOeiELK8gX8RG88AJkhsVJiQzQpaFxhf+yPfCuZUNNTlcZNSbjRL5myRXms9Pl7nhEB8fL+YiO/iBSoVB761btw5Hjx5Fo0aNcOrUKaxfvx4HDx5Eo0aNcNNNN0E1badHULjlXs0LBc2FJgOeGmOy8UVuZLkVhKIo+PbbbzF79mzofFGWLEdyI8eT0o2gBezhjL9wtGvXDsOGDYPb7cbbb7+Nd955B8uWLcMNN9yAYcOGwcG3mKPGa48ePdC/f3/ExMSc1dCT0zsQCKB27doYOHAg6tevL9KB3BUGNfovJZQ+ss6TXOV74cJeUFjpvapVq6JJkyYAgMqVK6Ny5cpAIXJgvGHXtWtXfPbZZ/jiiy8wb948zJ07F/PmzcOnn36KFi1aCHdy+hNutxse6TyR4ujfpYRJ538sW7YMb775pmg4lrSwRohQHHRdx+rVq7F27Vro0pbQFwLK5+Z6PsLF4+xSNQIgGR3hjEpZUem5+bfsdvny5Vi6dCmYZOTLxq75HbPyszCL0sJViJD2Pe7fvz9uv/126Hz3gyuuuAJDhgxBtWrV4PV6ccstt+C6667Dd999J6YyeDwedO7cGU8++SRq1aoFv9+PcuXKYejQobjrrrtEZf7HH39g3bp16NOnD5KTk8W3C6rsZVkQsltZfmZZypfsvqiL3tH4Al9qIJjlSH8TqjS1htJLTjfCZrMJg6dSpUpim0dIh/aQe4qrYRi48cYbMWfOHMyePVv0On/33XeYOXNmyAJGc7gY3zHEyffzv1CQrOT4Kbxhmpube1Y6ye7l+5CMOsYYVq9ejZUrV4YY9fI3KC3kdJf9pMXsBY0cmElKSsJrr72G+fPnY8qUKeIch8cee0wsVqdvUnqWK1cOLr6loRwn+bfFYkFcXJzYIk52Y46TDON7il+OKTuK1CCWG2d0WfjOGgTplWzky3mAdCA2NlY0ZpOTk8XiUllHCJKfxre669q1K2699VZcc801uP7669GtWze0bt1a9NKTHsiEk2u4e5cbij9jDPn5+QU2liJEKA1Qh5usy+a8+W+Qy4YL6W+E8EQkfJGgyigYDGLjxo3Yvn07UEhvmRm5MpPn/KMIP1RVxe23347JkyfjhRdeQJMmTVCxYkWMGjUKU6dOxbBhw8SUiaeeegp+vx9z5syB1+tFnTp18NRTT2HChAno0aMHNE1Dx44d8dprr+GZZ55BkyZNkJKSgokTJ6JRo0YYMmQIFGmrLDN0T+GHitA2YSigUr/UyIaPfI8MG7ofzggFgKZNm6JChQqoX78+atSoEfLMDBkCNWvWRPv27cWBXI0aNRI7nZBhZf4OYeG75FxsrFYrHHwr0uL2pJMe0N9kYBLyKFRxiImJEYZ1cbHb7ahbty7atm2L5s2bixNsIYVJNuYJui8/L0g3zG4KQuPreEoaFGY5/CrfJUkpYISQSaOIjRs3RlxcHGrVqnVWw+d8MctYDheNApVUVN6oBYAyZcqgYsWKIaNt/1Y2ESJcamw2G6666iq0aNHirJH3CKWPy2tl/Q/A+HxXWqgqVwrFxcH3ZJbnzBZm6FOjQONHrss9yzS0DADNmjXDiBEjsGPHDqxYsQKKNGVD7mWlylZRFKxZswYVK1bEk08+KRbhFWQcEArf31qmMPeXG5IVIRsekMJORnr16tXFIunCULghTI0Ig8+R1vk6BPpOONk4HA5xMuHFRjauCtMzMypvtKmqiiuvvBLNmjUT987V2FF4w9DcEx5ONmZIvvT35UDhDYKSPP+U0iTIT8c06zlBZQAA1K1bFw0aNBDbb14II78gVL7QXZ6uU9IgXWOM4frrr8fw4cPFuSMF5eUIEUoyqqqib9++6N69O3AZy9AIF4aIkX+RUVUVTZs2RbNmzQCp8i8KOWNp/NAnaiiYn4eDDDTZ2JGNH5ov3LlzZ4wYMQI1atQQO6fIhh35Y/ADQ9q1a4exY8eiTp06IQZrOGR/aJpEQW5LCoZ06IdZdgT9HRcXhyuuuAL16tUrssfD3EgI53dhxpKVHwsu68DFgvGeWys/NOtcoPjccccd6NevHyzSOQPngsbXqshGfmHyKYjzeedCQAaquZFSUpD1TpWmMRUEpWHNmjUxcuRItGzZUtwv7L1/A+me3FC6WN86X6g8Z4whOTkZ1113HWJiYs5L5yNEKCmULVsWZcuWNd+OUAo5txq8EIprrPyvQPJQ+cKz2267DQo/sKkozD1qOt+JRDa4CpIx3afKJ5w7SieqiBo0aIAGDRoIw4ouORyMrwuoU6cOKlasKBYgymke7lsEjWaUNB0xh4PxnkmzgSu7U6QpSr169cKNN94onoVDkeb1U5rQpUqLjsmtLHMiGAzCx0/QvNhQWM8FCjfjDYT4+HiUL18eTJqCdC5+0oiS2Vgqjh9yWGQZXkpUfqIzpdflCkdx0DQNNpstZDqdDOmDwY+n7927N1q0aCHKpOKkyblAsqIdrkgXSqIMSb8B4NSpUzh48CAC/PRWKiMjRChNMMawefNmbNq0SehvRI9LLxfMyCcudIH/X4D21KcKsTgZRpYj9WRRZUfG4bkgG1kKn5ZD01KoN06VhuXl76vS/GqaWiK7LQjZD9onnyiODC4lsmwMfpQ5Vd7hdJrk1bp1azRu3LhIg1L2g9LCnCbhvkPofAvSS4EiTesqLE4y5I50fMuWLVi7di2CfHtOFCDHgqCG7b+hKJkWN27nA5MWbcv3SgqybHRpd6FwYaS8Lhv05nuk//JlxiyLcJec5hQm+mZB/l5uqLHz9ddf45lnnsGRI0cA0zSnCBFKCx6PB9OmTcNnn30mOmhKYr6LUDwiJdBFQDbcGGPYtWsXdu3adU4ZRXarqqrYbvPfooTpTTZf5jnphFyxE/J7hUFG27nI4HJAjZ+CejVRgAzp/sWKHy28vhRzvCl+BelBUWiahq+//hrvvfcevF6v0JdzkQ1VLrLOn8v7xeF84nYuqHyUpqRDumw2SGXdlg3xcMh5QX6vKGT/mGkXK8qLZjclCUXaKe3gwYPYsWNHyLOSFt4IEYqCMYbMzEzk5eVF9Pc/QMTIv8gwxrB8+XL8/PPP5zS8LVeoNHVENjovVOYzV8jm32aKel4Q5jUF5+PHpUBVVcTExCA+Pr7IRhVV4tR4uVBpQpjThQz9iw0ZW3a7vUgZhIMxhlOnTiE3N1cYjueqN6TrcnzP5f3Ljcqna5gN55IIkw7MovQ2l1OUfv8mDcL5JzeWzd90uVyIjo4W28b+2+9fLChMMTExqFy5spDhhS4PIkS4FDidTjRp0gTVq1c3P4pQCin5NVAphzGGjIwMnD59+rwNNNp+Uq40LndlJ1f6BYWF7muahvj4+Au+x/vFgIxLTdPElJVw8ZPjrhZzW8V/g9VqDdml6WLCGIPb7YbX6y22oaJIvZaMMSQmJqJatWrCyC1oVKQg5IZGSaC4ciCys7ORl5dXKox8VVXh9/uRmpqK/fv34+TJkzh8+DBSUlKQkpKCtLQ0pKamIi0tDYcPH8ahQ4dw8OBBpKSkIDU1VVxHjhzB4cOHhZvU1FSkpKRg37592LdvHw4ePCjup6WlISUlBbt378aePXuwa9cu7NixA3v27MGBAweQlpaGLVu2nHUi8cXKX+eLrPctW7ZEly5dEBUVJZ6fq95EiHC50TQNvXr1Qrdu3c5744QIJQeFXaBSiLwpaYXwpcZsiOu6junTpyMQCGDkyJFi+LkwOTFpsaKqqvjkk0/w1Vdf4e233w45dOlcID9ZmNMlaYQBfFoNGazyvGjZgGWmXmv5N4VZ5wuM7XY7MjIy8Nxzz0FVVUyaNAlOp7NIGVwuDMPA6NGjsXfvXowbNw5ly5YVMvH7/SHzlzVNg67rYmqPy+WC3W4PcUN/+3w+6LoOm80Gu90utiT1+Xzwer0hvX+0ZzntU88Yw759+/DOO++ge/fuePbZZ83BvqD4/X6MHj0aqqrilVdeKXKxr5z+Kh9x2rdvH7xeLxo2bBii88VN8yVLlmD06NHo1KkTGjZsiNzcXOTn58NisSA+Ph66riMvLw8GPzla54e+eb1ecY+mN9G0I7/fD6/XC53vHGSxWOD3+xEMBhEVFQVFUZCVlQWv1wu73Q6bzQZN0xAMBpGTkwOXywWXywWv1yvS0+FwICYmRvhNhztt3rwZf/31F2bPno3u3buXyPKR8r3H48GoUaPw+eefo3HjxnC5XAgEAsjNzYXC12cEAgFofO9/RVEQ5KcHk4wCgUBImaHyqUqBQECsJaEph6RPHo8HQX4SNoXHwrf8dTqdSE9PR3Z2NqZNm4Y77rhD6FlJajgZfJMCKvN0fsIz6VxJLeciRCgI2R4gm4Hq9Qilj4iRf5GgjGEYBg4ePAhFUUTPZlHGDjMZ+V999RWeeeYZdOjQAfXr14fODWgynugdr9cLt9sNl8sFVVXFbiw638pP53vtO51OUTGTsUkVst/vF8arwg3NvLw8gO/VTnGyWq1QFAUejwc+nw+qtOWk0+lEfn4+rFYrypQpg5SUFKxZswb33nsvXn/9dVit1hKtL1OmTMG0adNQo0YNxMbGIhgMiulGdrsdXq8Xfr8fMTEx8Pl88Pl8CAaDcDqdcDgcIm5UQAaDQWRkZIAxhrJlyyIqKgqGtD++3+8XJ696vV7hj9vthsfjAeMnadpsNjz33HO44447zEG+oPj9fowZMwaGYWD8+PFnnXFghowvMmrIWMN5VBJUwezevRsTJkzAnj17hH6CNyIcDofQfVogrUgGJn3LZrOJfGGz2aDyhpqqqsKIDwaDcLvd4h3KK1arVTS25AaZxueJBwIBMMYQFRWF6OhoYcySIev1epGYmIhHHnkEDRo0EOEqSfpOBioA7NixA0uWLBF5XeNnbDA+lYdGkGw2m5AN5QmSk8fjEeWM1WoNKWdI13VdR1xcXIicyV+LxSLcOJ1OWCwWlClTBtdccw0SExNFWLXzmEJ2sSDdN+u8nM4lKc0jRCgKwzCQn58P8DqfbJbilN8RSh4RI/8iIRs9JBPqtSoqw1DFqvCFhzt37sT06dORkZEBm80Gn88Hu90OxpjoYYuNjYVhGMjIyBCGBhlEOu8N1nmvcnR0NBRuwGt8kSlV6Iz3JFPPHGNMHEZjsViEcUQVLlXgZAjS+263G1arVfQKRkVF4eabb0aHDh1E3GXZlCQOHTqEDRs24OTJkwAf3SDjMCoqCoFAQMhRlq3Oe/epMURGjKZpwpB0Op3CQAoGg6KxRMYT9epT44wxJnoGK1WqhIYNG8LlcgEXMa/5/X48//zzAFDsnnwybKgcyMzMRCAQQPny5aHxrVmLMs5I/1RVRSAQQEZGBnJzc0PkSO40aVEm5Su5MiLZyIa9w+EQ4dR4TyulrcKNeTL0VT7aRY0Op9MJj8cDwzBgt9tDDE6LNKSt8h5siq/GRwLM4brcUJpRuItK44Ig+VxsqDykq6RActQ0DStWrMDu3bvRq1cvxMfHi7xQksIbIUJRBAIBzJo1C4wx3H///XC5XJcsn0e48ESM/IsIySQvLw+6riMqKkoYD4XJSTaa6Lc8tB3kB1mRG0VRRE+wz+cT92QjQ+O984wxMc+Z3iejhu6RwU+/wY0XMsDIaJMNHQorfZviEC6+rIQa96VFh6lxdrEKXb/fjxdeeAGapuGll14qtnEup+vMmTNx7NgxPPXUU4iOjg7R1cKQ9e2/AJMa7OZ8cDmRwwVpmp3ZzYUML/lXkL+kQypvXJHxTOUIvRfu3cuFrNcvvvgiFi9ejC+++AL16tUrNeVJhAgywWAQQ4cORSAQwLRp08TIs7l8iFA6uGCpRgWZUQq2SbxUUOH/22+/4dtvvxWVVlHIFS5VbNHR0ShTpgzi4uKQkJCA8uXLo2LFiqhQoQLKly+PqKgouFwuxMfHC3e0M0VMTAxcLhdiYmIQGxsLu90Ou90upoVERUXB6XTC6XQiKioKdrsdDocDDodDzEN2OBxwOp1iPrnNZhNurHx+M/U4U0OAel/NlZz5d0mjpOovk3oNL6YMGZ8G4zct9i4IMtxk423Pnj3Yt2+fcFMcfxBmVxczJAO66LvmqyDoGeNGruyH2Z38DfnvgtyZnzNpmpKcn0sCCu8EkBvhFAcZkk1BcSQ3haUFXQSlr/k+3aMwyIY9/VvSoDKe/o4QobSj8i27zUZ9uPwaoeRzwYx8SAXe/3phZ84I27dvx8aNG8Xv4siHjIOL2WMboWDMaXixKcggkpENxuLo0PlCeufli1iLQ7i8L+ttQXEKR2Fxk2VQkBzC3SNkg4zyljnc9Fz+RkHfKyw88rdKIuZ4F/S7sDiSOzmtCyLce+bvyQ0P82V2X1Ig3S5TpgzKly8v5uaXxLBGiFAUiqKgQYMGaNasmZjGJ5cFEUoXRZfMxeTPP/9EVlYWlMgBICEwvmiS5v3SvQglD7kgu9SF2eX8thmN725iGAaC53D4FoVbURS0bNkSrVq1CjH+LpbelyTZheN/JXxmf8zXfxEmjTxcf/31GDVqFCpVqiSeRYhQGunbty/uueceqNJOeRFKJxfMyF+zZg22bt0Kw7SzwP86jDG0bt0a1113Xci9CBFKKozPi6ZdZYoDuaMpMLfffjsGDBggFogX158IEUoT1IDRdR2NGzfG9ddfLxrIESKUNmgkuWzZsihbtmzI/Qilkwtm5EdHR+Pw4cPIzMw0P/qfgwwaMm5uvfVW9OzZE1arNWRf6AgRSiLBYBDeczgIC1LloPC53bGxsYiPjxcGECLTFyL8ByG9V/l5AxkZGaKjS64HIkQoDSh86t3GjRvx888/IxgMitHYiB6XTi6YkV+5cmXoui4OPolwBsa3QFT5jhERQydCaSAYDCIYDJ5zwa7wedU7duzA77//LrZipWcRIvyXoIatoihYsmQJnnzySRw6dAiKtBg9QoTSxuLFi7FgwYKQacaR8rt0csGM/GPHjkHTNLGHd6Rw+/9W8Z49e/Dnn3+K/bojRCjJ0OJHOuSrOJChQzr/ww8/YMaMGcjPzxc7SkXKhAj/RUivDxw4gBUrVuD06dOAtB1shAiljUAgEOmU/I9wwSzOrKwsVK9eHXFxceZH/5PIBs2yZcvw+eefh/Rqng+MXxEiXEx0XQ85l6E4mHstc3Nzcfz4cfh8PiDSCxThPwqNXIHvJqXzQ/Hod8TQj1AasVqt4jydCKWbC2bkd+jQAU2bNoXK9zaO8P9kZWVB1/V/l2mCPsDrA3QGGLLFz/8I+X3GicF/MjAYonnAwOiZ/B5jZy7u4v/d8GfSd5j03hmXZ67Q+9x/cH/p8wDAQ8NC/P7/fyJcXiwWCxwOx1mGe2FQDz6RkJCAChUqhBj3EUM/wn8NhR9OCAANGzbEnXfeiQoVKojnkZHbCKWRm2++Gb179xb1QITSywUrgdq2bYvY2NiQOYr/y8jxr1q1KpKSkop1EBbBmAGm6zAABOCH75NJyLn/cXi37gdTAcPQEWRnLgMMQeZHgPnBGGAwIMh4e4AxGLxdoDNAN84ccGQYAHQdAcbgBwNjQUAPwjAAHQw6zuySYrAAdGbAz3wI6l4gCBgsgDNv6YDBzvjBAB0KDANghgE/dBgwoDMDHsYQZDgTMBYEWBCMGTxsOoL8P+gRQ78koGkaoqOjz8nIP6NT/39Y0o033ohHHnkEcXFxomezuH5FiFBakPX+2muvxbhx41C9enVxP0KE0gZjDG3atMHVV18NhW+kQPcjlD4umJEPrgT/68a9GcMw0LlzZ3Tt2vWcC/4zveRn8G/bAv+iHxE8dRoBAIYGaKoGRbGAQYWm2qApFuiGAkMBbApgVQAfFBiKAgsUMAUIqBaoigKLCgQ0C4KMAYYOg2nwWCzQVcACFTo0QFUBxQpd1aDCAc2wI2AFDMWKgGJDvqKBqSo0RYUlaEDRDUADFE2FDRoUaFAUDbqqQocBXVXgVywwFBtURUVQUeBVLQjCAs1QwNQgEFGfy47ZYC8O1LCn9xo0aIAOHTrAZrOJxkJx/YoQobSgKAosFgsMw4DVakV0dDQ0TRN1YUTnI5RGvF4vPB4PEBmBLfVoL7744ovmm+cDFWYRhQht7Oi6jjJlyqBs2bLQdR2Mb7dWlJwYY4ACKIoKDTr8K5bA2JmLqO79wGqXgxUqfBmp8C3/AWzFWgT9Kli1yjBUgP29Ab5ffoNeNhG2uCgYqXuQ/+MvUL0WOKqUR9B7CvlLl8N3MBtRNapC0wwoqgXMCCLw668wdu6BRQ3Cv3wtjD83Q4m1wlK2HHyaAo35oOzZBv/yn6Gu2QDL6UzoFcoBLidUNQhkpMKz9GcEVmyEvv8YLLF22OPioCoMuuGB8cc6sJ+WwrNlN+BTYE9IgGJVoTEVTAkCigolYulfVhRFwZo1a5CdnY0uXbrA4XCYnZwFNQxIr7Ozs5GXlweHwyGm8EVG+CL81yCdVlUVW7duxbfffotKlSqFrE2L6H2E0oSiKFiwYAFWrlyJZs2ahZx1EtHj0scF7cmP8P9Qo0fTNHg8HuTm5grjvjgZhabdk0urzqAqBgIWHVYAwT9WI2fAo/A9/xb0WV8gc+BDCD77JmwGwHb+hdyHnoP/hw3QAAS/nYOcfvfB/d5XAAB9z9/wDH0GwW9+ht+mIKACugLAyIX//WnwPTAE7kfGIDB9DvJfeQWZ9z0K/+otsAAwvvsKGb2GwDfxEwTnfYTcISOQ9er78OuAcuoYsp58Cp4xL8L/xQL4nnkOOXcPh+fvVChQoc+aBs/AJ+H56EsE3puGQO/7kT99NrRgELoKqIoWMe9LCA6HAy6XCxaLxfwoLHJPvaZpWLp0KaZOnYr8/PzIvOQI/1nk0a6tW7fiww8/xJEjRwBTnogQoTSxe/durFu3Dn6/3/woQikjUvteZBRFwW+//YbZs2fD5/MV22hSVW7lE5oKpvkAuwLdcxy5LzwLy65MxL75ARxrFiK299XwTZ0Mz7RvoF59FRw1LNDWb0cAARgHdiAWHrAd/8Cd44N1527Y8/1w3XQ1HABshnZmka1Vhc0RQH6OB75GrRD3zfuImvkK7AdT4B0/AwGfD4ivCvttdyP28/mI/up9+JKcwFc/wnIwA7lrfoLvm1WI7zsGUb98D8cnL0G9riPUmBgYJ3fA8/6HYAl1ETVvPmJ/+BiWIXfBqFUVgAodDMGQZk2EywntDFKcI81pdEoeodq/fz82bNgAt9ttdh4hwn8KMuT9fj9ycnJCpmRGGrgRSiOapsFqtRarQzJCySZSAl0k5Myxbds2bNiw4dwWsLBQP4JKECwAWCxR8G3dgMAff8Nx+21QbrgCuqM8XAP6giXZ4f5qCRRbdVhb1IZv11b4t2yDfiAbrEZ9+E7th/H3Znh27YW/al2gVWPejlBhAWAzrICuwVG2CmLu6goklIWj8/Ww3dgIyvqNYHvSYe3UCa7+18G7bglyJ8xG1LF0GEoQPp8f1kpxsDh9yPr+SwTe+gSG3wbbU3fDVqcsFIsDqFQW7r1/wxg/BfnLd8DSvQdie3SGYlGhBgNQaPgiwmWHGqPFXUNCvZZk1CiKIqbqgFcakQojwn8NeWQ2OjoaNWvWRFRUlHhWrLI+QoQSRoMGDdCqVauQHQEj5XfpJGLkXwLKlSuHatWqnUevDlUQCgAdimqFz6rAmn0EDp8DqFgNDDgzJSe6LBzloqGePg2mOWG7ugOCGbvh++wr+NMZbH1vh6M8A5u3EMG1O6Fe0RZKlWhpa02AKQyKYcBujwKLcSEAIAANrGIZeMCgZmci8M10ePsMhGf2DzBsDmgVE6HoQdjzsmC5qhvi3ngDmv0Ycl99Ee4+w+G/cziCP22Fv2wSol6eAOcdrZD30/tggx6Gu+t9yHt9FoK5AQQtNmiGFjHySwjUA1/cHaFozibRvHlzXH/99eJwvHNZxBshQmmCGsIdOnTAK6+8gtq1a4tnEZ2PUNpgjOGWW27B/fffD7vdXuyOngglk3O1OiOcI4wxdOjQAd26dQvZdaE4MHnqCtOgMEDTVbCKNeCJVeDe+w80BlgAKCcOwnckG/5q5cHKuKC17wi7S4d37jzoLAbW2++CvXFNeL77HpZdGXC2bQU7rAB0sJDPqMjPP43AwUPQADA9H9q+o9DLVQCDG3nvfgqPbkX0vA9R5tXnoVZKgMUbgBFQoMMBtc9DiP7ue8St+xLqsJvhXbUSnplfwWoA9is7IuHNaVD//AXanJdh19LhmfoxjO2psAPwWBQYEY0sEdAi8XMp4GmBLWMMnTt3xsCBA+FyuUIW5EaI8F9DVVUEg0FUrlwZLVu2RFRUlGjUFreRHCFCScEwDERFRSEuLi4yGvUfIGJSXWQMw0DdunXRsmVLWK3WYvdoKgAUML4ANwh4AtDz3dCzc6E164TYLh2BnxYh/+2P4VvzPfJenwpbdhTK3HcnNA1gtWrDWbkcHEcOwFK+OrQWraDWrg7l2D74FReU5rVgAPAzHYw3JxRDgaZZ4cg8Dd/HcxFcuhSYOgueX3cgpst1sDaqBNXqgJruhvLrCvg+mg332g0wdDc8UQqsf6+E/8474J7+KVTNhpiEBARjnPA1iYOWeQruUU8g/aGRcG7PhCMxCb7yZYCKcVATzgxv24zIjPySxLksvIXUa2kYBmw2G5xOp6gkzqVxGyFCacIwDFgsFuTk5CAlJQVer1esTzmXRnKECCUBTdOwe/du/PnnnwgGg+cxA6HkQHUS1UHF5VzclnRKb+qVYGRjRjGdBFpcZWNQoKg6/AD0oA69XCX4k2tBVQNgiIL9xZfgeLALgkvmwvf0JOhZdtjffA323jfBAoBFlYNxUwfo1RrB2rIDAnYFWtNmMOo1Qu61bWGtVQ0KADs7s8LXwJnpOgHDgK9yBdiqxcL9/gfI+WIJtLvvh+Px+6DHV4N12EiwhmWQ99ZEeNYfgOX2O2GpUQWWkxlQKlWDv24ivCuWInPoc8hZuB4x9w1F1NC+CJSJhtqwBgK5R+F9eRzyn54AIyEZ8S8+C0udSmciHZmUf1mR9dJms4XMqS8MWcep93L79u349ddf4fP5oGlasRu3ESKUNkj3N23ahDfeeAN79uwBeF6INGwjlEaWLFmCzz77DHl5eaVGhw1+Rot86boOXecHe4apg+T7TDof5r+EwsyxPk/Im9KiEJeSPXv24NixY2jbtm3InrOFEWSABV7oigXQNSDjCOANQIutDH/cmcUwKnSwo8eg5HphVKwIViYGKgBNNxDQdFjyc8FO5kONK4f8sk5ofg8sR09Ci44GSygDQ1FhMc609HwqoCETngG94V7jRrk5sxBsWA7+bC+iK1eG32aBAsAGIJh+FIHsfCjlq8JmD8J/PAeBmHhEx7vOnIJ7Ih3IzIM/2gYtsSpUDWAMZ6YF5WfDOJUNGAzWhFgE4+JgAHDoCoLambCokf78y4Ksl1OnTsWBAwfw8ssvIzo62uz0LKhA1TQNqqrizTffxObNmzF58mQkJCRA1/WQ3XciRPgvINd78+bNw8svv4xp06bhuuuug2EYYgpbRO8jlCaefvpppKWlYcaMGYiPjy8VOhwMBkU4aQQZfGSCDHdzHUTTUukdelbS43ouFN1NF+Ffs3HjRixatAherxcopgKpCgCoUBlgKAqM8lVhVKuFYNyZRoIRBFRoUCtXhZFcB5YyMbAAsAbOtAlUZoEWVRZqrWowytrgZB44bU5oNWtALZcACxRoBkNQAQxmwAoFFl2FmhsAy8mB31Bhi68AR83qYDYNduaD1QgiAEBNqAxHUl2oMU7othjYq1eBI94Jw9ARhIZgxQpg9ZNgq1oVhgYohg7G/PCDQY2Kg61mddiTaoDFxYNBhY0ZADOgMCVyEFYJwTAMuN3uc+rVkOcf5+fnIzMzM+T9C9SfECFCiUTXdfj9flG+R/Q9QmmlXLlyiI2NDRmhLS0YfA2YxWIJMfbDoUhT6shtceyz0kTEyL8E+P1+eDwesed4YUpHqNDP7JtjqLCqDBoMKEYQQBA26LAhAJWxM1ttMgYFQWhGELrGoBkKrEw5Y3TrAag6AFhhQIfKdMBgMKBCU1RoigEoDCoAP7PBl9wEzpaNYcQ5wQBYDQMG88OACgYGHQxMB3TDgMYMWAwGnbEz32AKEAwCugHDYGBgsOtBGGBQmQanzqAwA0FDh5/pUAwGu35mHr6h6dDOHPIboQQQCAREr3xxoF4Qcp+QkICyZcuK58XR+QgRShtMmn5Zs2ZN3HXXXahcubJ4di6N5AgRSgq33XYb7rnnHlitVvOjEgflP6qDbDYbAODYsWNwu92F1j1UX+Xl5Yn1B8U5G6Y0UbwaPMK/wuFwICYm5pwWMQIKoGhQuBKqACyKCgs0KIoKZlHBlDP3rYoCBRqYema+iwIFUBgUVYFVs0JVNGhn+u7PZAQVUJQzn9CgQlU1AAya5kTZZ15E3OfT4GpY/UwwVAWaYoOiWKEqVjigQFPPZA4VZ4a+NEWBoilgmgrNYoFNU2FRlDPTblQLFNUChRuMqqLComqwKhpU5UwEmKIBiiVi4V9m5B6MwgrGgiCDxzAMXH/99XjooYcQHR0t/CpugyFChNIC9f7puo5WrVrh+eefR926dUOm6kSIUJrQdR0NGjRAx44dYbfbEQgEzE7OG7lRLDeC5bqD5sgXF6q3qPceABYsWIDZs2cjNzc3ZIRZ9p8uq9WKLVu24JtvvoHb7Ra7IMIU3tJKpNa9BLRt2xa9e/eGw+E4B4XhSaPQ/1RAUcXfGjQoUM4Y69zhGVP/jBEPRQE3s8+8yhsEZ/4vT4rh1j7OGOsokwAkJECxKNz9GX9FMPi//BNn2iLUCOF79oM/o3c0ig1/n75If6hQoJ5pnUQoARiGgdzcXNG7URyooKUClCoJq9X6n+sZiRCBICPF4DtKRUVFRYz7CKUaTdPg8/mQn58PXITOGXl7ZkVREAwGxd8EPaeFs7JRHg4mHcT4/fffY8GCBWjUqJEYVZP9ph5/wzAQCASgKAoSEhLw888/44svvhBhoQZBaefCpl6EszAMAzVq1MAVV1wBi8Xyn1CaCP9tqPCjwrU4kF5TAZqZmYnjx4/D4D2akf3CI/wXIX23Wq3Yt28fPvnkE6Smpkb0PUKp5qeffsL777+PvLy8C6bLZKTTXHnyV/5bblBQvaEUsQ2zXEft2LEDb731Ftq2bYvbbrtN3Ce/NE0TnU40HZUxhkaNGqFFixaYOXMm1qxZA0h1WnHrwJJKxMi/yCiKAo/HA4/HE9LajBChpGKxWBAdHX1OukoFoaqqUFUV33//Pd58801kZ2dHejYj/GdRpd061q1bh4kTJyI1NRXgZf+55KEIEUoKO3bswOrVq8VmIRcCsn9SUlLw008/YfXq1cjKykJ2djaWLFmC+fPn4/fff4fP54PH48HPP/+MVatWwe/3h+QzM2T8BwIBfPLJJ0hPT8eNN94I8B13Nm/ejA8//BA///wzli9fjieeeAIvvPAC9u7dK94HgC5dusBms+Hjjz+Gx+MRjZGCvltaiJRAFxlFUbBq1SrMnTs3ZOeFCBFKMlarFV6vt9jzMam3hUhLS8PGjRuRl5cH/EfmNp4PJT3OJT18REkNpzwym5ubixMnTsDj8YhnxQl3cdyURv6r8bocXGpZRkdHw+Vyid8X4vvU4F27di0eeughDBs2DGlpaXC73ZgwYQL69OmDOXPmQNM05OTk4Pnnn8ekSZPg9/sB05QbGbp/6NAh/Pzzz2jdujXq1asH8HD//PPPGD58OAYNGoQFCxYgLS0NkyZNwlNPPYUjR46IcFWvXh2tWrXCihUrsGvXLuAiTFW6HJT+GJQCdu/eLVqoESKUBhhfTFgcqAKQjRpafyLP6S+okDbzX2oQyEPNJSlOcpj+bbgKm4JI82rBe9XMjUZd1+HxeJCXl4f8/HwEAgGhN7LuFNdgvtQwafFgQkIC6tatK4wjpZgn3iqKAp0f2JOXl4dTp04hOzsb6enpOHr0KI4fP44TJ04gMzMTGRkZOH78ONLT05GVlYX09HScPn0ap06dwsmTJ5GRkYGsrCycPn0aGRkZYm1Nbm4usrOzkZubC4/Hg5ycHOTm5gr3Pp8PPp8PXq9XyJ52hQsEAjAMA8FgELquw+v1wuv1wjAM8R54Wso7yF0I3boYUJrJYaOw0+X3++H3++Hz+YTeejwe8Xd+fj68Xi/cbreQpdvtFpff70d+fj5Onz6NzMxM5OTkiHSh9M3OzkZWVhaysrJE+h09ehRHjx4VDUU5rJdSljVr1kTTpk1ht9tDpm1eiHC0bNkS5cuXx+HDh+HxeFC1alW0bdsW4Kes22w2oXf169dHbGwsUEgZQPXK/v37kZ6ejqZNm4o8aLVa0bBhQ1gsFtSsWRNPPPEE3n33XbRt2xYrVqzA/v37Q/ypXbs2cnNzsXv3bnH/QsT5chI5DOsSMGXKFGzYsAFTpkwJ2VYwQoSSyuuvv44dO3Zg8uTJiI+PNz8OgSoiSNMXfvrpJ/z5558YNGgQEhMTEQwGxfzK4uDxeLB7926cOHECFosFqqoKw8LlcoHxRgjdDwQC4tuBQAC5ubmwWq3im1FRUQAAt9stKhDGh48VPq2CjJZAIACr1Qq73Q6LxYLc3Fzouo74+HgYfL0C40PEwWAQTqcTjDHk5uZCURQx1Sk2NhatW7dGYmKiCGtx43+xMfiiMpVPr9qwYQOWLFmCnJwcaJoGv98fEmYy1qnRovB5tGS0a/zAGXJD79GiOqfTKdLJ6XSGhMPj8cDn80FVVbhcLlgsFgQCAQSDQVSsWBG9e/fGFVdcEaJjJQUygCwWC1JTU7F//35ceeWViIuLE/KgYf+i2L59O959912kpKQIeXm9XqiqCofDgejoaBj8/AqSgd/vF/oI3ri22+3Iy8uD3W4Xek/prfAdSChdPB4PbDabqJcCfOtci8UCxhgCgQAcDofIV1arFX6/H4wxOBwOMZ3D4XAgEAggKioKd911Fzp16gTwsqE4cb9UUFmlaRq8Xi8WL16MFStWIBgMwmKxQNf1kLIhGAzCZrMJWbhcLiiKImRADRzGd2khfy0WC3w+HzIyMuBwOITO5+fngzGGMmXKwOBGq8VigcfjgdfrBWMMbrcb7dq1w/Dhw1GhQgWRD3GJ7CvGmNh0gfSH5rPT8/MJh/zeq6++ipdffhkTJ07E8OHDsWDBAtx9993o1KkTvv76a/z111+YNGkSxo0bh5YtWwr9RiEy+Pjjj/HEE09g0qRJuP/++8X9jRs34q677kL37t0xadIkAMDo0aMxa9YsfPjhh7j99tuF2/nz52PYsGEYM2YMRowYAcYN/JJU5pwrESP/ErB69WqkpKSgR48ecDqdJaqyjxAhHBMmTEBKSgomTJggelIKggpCMsI0TYOHr0OJiYmB1WoVBmVReq/zU3P379+PYcOGISUlBfXq1QspZIPBIHw+H5xOJxRFwenTp6GqKipVqgRFUZCTkyOMVDI+LRYLnE4nDMOA3+8XjQ4yeILBIKxWK1S+T7LK1xHQu3a7Haqqwu/3w2azQeG9r3l5eYiKioLNZhPbr8XHx+PUqVPYtWsXXnjhBTzwwANACSsjycCginvChAl455130K5dOyQmJsLj8Yj4evgZHyRDegeScaMoCtxutzB6FL4YVePb0TkcDtEoYLynXtM04Z8uLYajZydOnMCKFSswcuRIPPPMM+KbJQkKN0yHwVFjB1wWxUnzn376CQ888AAaNWqENm3aCD0FN6JJztRLrPNeZzLeDb7Dj91uh9frhd1uh6ZpyM/PF1MewMOm8kYt6TMZ734+/1njjWPDMGC1WmGxWOD3+5GVlQWLxQKbzQafzyfyEGMMp0+fxh9//IG+ffvi7bffFvmtuPG/FMhG28mTJzF06FBs3boVbdq0gc1mE/put9uFvGUTiTEGu90uergDgYA4xZ789Xg8sFqtsNlsIh2o3qcOhujoaFGuREVFCUNfURSsXLkSqampmDNnDq688kqhS5fK0KQGD7iuUKPo335fLv/WrVuH7t2744orrsBnn32GqVOn4sUXX0TZsmXx0UcfYdeuXTh27BgmTJgAm80m6o/CmDFjBp577jm89dZboswFgM2bN+Ouu+7CjTfeiBkzZgC8vJsyZQree++9kAW63377LQYNGoSnnnoKTz75JMDLypKkw+dKxMi/yJChQIoCvrAxQoSSzNtvv42DBw9i3Lhx52zkK9JuCVRJWIrZm0mG+aZNm/DQQw/huuuuwz333INAICAOOfF4PDAMAw6HA+Bzoa1WqxhxCPLjzckAo7KJDHX6jqqqwkAhI5Z67cgf6nkmA0DXddG4CAaDwhi28kNjaBvFnTt34t5778Wtt96KN998MyQcxZHDxcZc7E+cOBEbNmzAhAkTULNmzRAZkjGoaVqIDMkPahDRO/Rb5aMEJGtZ9lRpyhU3yUXXddhsNhw5cgQDBw7EFVdcgfHjx4tvlgT5EXJj6eTJkzh58iRq1aqFqKiokPxQnDD/9NNPeOWVV/Dqq6/immuuAaT6Q+ONVUKWIfmtmHYhod+6aZcscqNyQ5/chTNmzGlMIws2mw0BPnqm8kZBRkYGHnnkEXg8HsyZMwcJCQlh/SwpHDt2DC+//DI6deqEPn36wOfzCX1XpRE+s+woznLc6G/Zvflvep/8p/tm2SxatAivvfYaJk6ciPbt2yPID2mS88rFZvPmzTh48CCuvfZaxMXFiXiYw3ouyHrn9XoxcOBA/Pjjj+jSpQvy8vJQr149LF68GKqqIiEhAc888wxuueWWkPcKY+HChRg6dChGjRolDHQA2LNnD7p3744OHTrgvffeAwC88cYbeOutt/Dee+/hzjvvFG5//PFHjBw5EmPGjMGAAQOAEljmnCuFSy3Cv4aUk3oFzIVGhAglEYfDAV2aY1sYVAAqfCqApmnYuHEjPv74Y2RmZoqe/OLoPfmlqirKlCmD1q1bo2nTprjyyivRpEkTNGnSBK1bt0bbtm3RvHlzNG/eHB07dkTbtm2RnJyM5ORkNGrUCI0bN0azZs3QrFkz4a5BgwbCTcOGDVG/fn3UqVMHdevWFX9Xr14dNWrUQI0aNVC7dm3Ur18fNWrUQGJiImrUqIGkpCQkJiaiUqVKqFq1KurWrYvatWujevXqqF69OipVqoSYmBgkJyejRo0aooKS41YcOVxM6Pvyv6qqokKFCqhQoQJUbsTZ7Xa4XC5ER0ejbNmyiIuLg8PhgM1mE8+px9Nms8HlciEqKgpOpxMul0u4dTqdwp3VahVTSmw2GywWi7g0PiWAGnMul0s0nsxhLylQmQ6+u86oUaOwefNmwGTYFSfcZDRT/GFqMJOhR/UJyYzuUVjoHv2m9JHTjdKG0sLhcMDlcsHpdMLhcIjL6XSK9HM4HChTpgxiY2Ph4Ac8UnrbbDZUqlQJ5cuXh81mE2EuKTovI+dHTdPEVCVZ30kWFG9ZHqTLpMPy3xaLReg5jXJY+HRDSht6phUwfdHpdMLCRxjxLw3r82Xt2rX48MMPkZ2dDVwgQ1eRGp4OhwN33XUXgsEgvvjiCyQnJ2PcuHFo06YNduzYAUVRcOWVV4p3KS8FpDU9TNpLHwCSk5NRrlw57N+//6x6y+BrSgiyx+SGM3iDQFEU1KlTBzCN1JVWIkb+RUZVVezcuROLFi1CXl7ev84oESJcCmhoXi4Yi0IuMP/++2+8//77OH78OHAOhg7lD5U3hj18ARokP8xXuOf02ziHA03M/pr9C+fOfJ++ZfC1A5o0FYXcl4QyQA47Ywx+vsiQpnVQ/GT5yRWqwdcmyPdkzPIxu5MbfYXJU+NTv8J9oyQgp2VeXh7+/vtvHD16NMSNOV4F4eAjU3QIEQqQTUH+yW4Luig9yQ/z8+K6MbuFqZEiy6Uk6HtBBAIBsa5AhuLGpNEsSGsb5OeFXeEwuyE/6RuqqoZMi5ON40sFNbYvRtpRPDp06ICWLVsiJiYGXbp0gcPhQIcOHWC1WnHttdeifPnyAI//9u3b8frrr2P48OGYNWsWjh49elbYatWqhZYtW2Lbtm04duyYuL9582bs3bsX69evx7Zt25CRkYG//voLJ06cwLZt20T65+XlYdWqVahRowaSk5PF+3JeKI1EjPxLwNatW/HFF18gIyPjLMWMEKEkQtNrzlVfqaKieZ1yL2RxoO/puo4g381DfhbuCvecflMPWnEw+2v2z+zODH2P/qbe0XBuLydmGVEamWUNaTqBIU1NoGk5dD8cZhlRL6b8Ww6D2T3dV1VVNCboXkmC5AA+VcvO52oTBcknHKQv8uiFLCPzPTOyHGV5yr8pP4R7di5uZLfkzpCmuZjTi/4tSSh85DHc9FmKH7iuGoYhFsYqksFtlof5CofZDbmjf80GdkH+XEyio6ORmJh41kjahYBkV65cOdx5553o168fGjZsCABo27YtHnvsMXTp0kWUpcuXL8eoUaPw/fffY8WKFRg+fDheeeUVZGVlhehbVFQUevXqhaysLPzyyy8A32ghLS0NV199NZKTk3H8+HEcPXoUMTExuOWWW+BwOJCbmwvwswHS0tLQvXt3JCQknJXWpZXi1X4R/hVBvpNBuMIkQoSSiDzftjiQEUcVksPhQFJSEuLi4sxOC0WuPGUDqjDMhTD1kIW7F+5ZcTH7UVjYdL7VIA3NE4W9czlhUs8k/SZkY8Pv92P+/Pn45ZdfzjJSisO5yJ7WQJgN35IGxalRo0YYOnQo6tevD0hGb3GhOsIc13ORrxnKR9RTfC7yD5dfCnufyoCCpqGUNHS+cNY8WklxJnkpioKUlBRMmzYNO3fuPC+9Lw4kW13XkZ+fH7LldlHlzYWmXbt2uO+++0Lm419IyM/+/fvjhRdeQEJCAnRdR7169TBmzBi0atUKAJCeno4lS5agadOm+OKLLzB79mzUr18fX3/9dchhVtSovPHGG9G3b1/MmTMHGzduhMvlwoABAzBv3jx8+OGHaN++PerUqYM33ngD8+fPx/Dhw1G+fHmkpKTgnXfeQdu2bdG3b1/hLyvGWoCSTukOfSkhMTERzZs3F8OxlzKzRohwPrjdbrGDR3GQKyHDMNC5c2c88cQTYr5rcStFKvw1TYPL5YLdbjc7OQu5EqLdW8z3qcA2h1N2G+5vg09LAY+DLA/ZfzNMWohqvl8SCJce8m4uZqii8/v9+Pbbb/Hzzz9DL2Rb0MLiaZZ1Qb3d9Kw4OnC5oHgEg0HUr18fTz75JJo1a1agHAuD9pwvTHYFEe4dkh9dcprLaWCGnpF72Q96bnYr/y5uHikJ6GHWHSlSBwPJ69ChQ1i4cKE4zdgc74LuEeZn9Fu+T3mMZE2dAwX5ebHQdV1MfbHZbGfJ50LAuG6WKVMGlSpVEnHXNE1sFcv49qL33nsvnnvuOdSsWROtWrXC1VdfDQff1lX2L8h3SBs+fDjatWuHadOmYdeuXahQoQLKly+PMmXKiDUVZcqUCTnwa+XKlXA6nXj00UcRGxsbUiaFKytLExEj/xLQtm1bPPTQQ4iPjz8rs0eIUFLRTbtyFIa50qpatWrIYSooZuOWCleV73xTnNEvVVWxZcsWjBkzBp9++ikCgcBZ3yJjRVVV5OfnY9WqVTh48KBwRxU7/U2oqort27dj2bJlYv9r8PiavyGj8j3f5V784sryUmGOZ3HS2+AL2Jh0xoBZDqQDsnGoS1s9ErLxIFeqBKX/+RjMlwrSG5Ib9WKb7xcHMmzMsiiOP+Y0MEP6mpOTg8zMzJD7ZiivZGZmIj8/HxrfBrUo/aA8K0+zK07YLxdKEdtSyuHW+GJm0sWC5E3pR/pOaSrnE/KX/iV3BLk1u79UaJqGrKwsHDlyJGxZ+m8gmYeLO5UnurT9bGxsLJo2bYoyZcoAfL1Keno6OnTogNq1a4f4q/CphDExMXjyySdDds0xu6N0AW9cd+zYEePHj0dycrIID5PKuNJMwRoe4YJg8LliCQkJhRYoESKUJBxhTqwtLpqmIT09Hfv27ROHHBVlIBCURwy+bWNxe5FWrlyJV199FYsWLQrpeYdUSZKBPnv2bHzxxRfS22dQTIYZ/etwOPDdd99h/vz5wh25LQiVL56T/StplYUcfppSWFQYGd8X32azFVieyRU440YPVe4wGTGUvmQYyWGiXUrcbrcIX3H14VJCMklNTcXUqVOxY8cOYewXpiNmaLebcBSVLgVBcrdareKwrQMHDpylw+ZwapqGf/75B5999hmOHTsmpuFQGso6TWFT+Bx3eUTI7G9JQw5/YWh8Vxw5rgUhx5mMRLMRLxuyBaWF3FC61KxZswYzZsxAZmZmSEfFhYB0kv6lv+k3reWS0yY/Px8bNmzASy+9hKVLl6JOnTpndZrSu4ZhICYmBl27dkX9+vULlR/j5x7UqVMHFStWBKT0oDCUdsKX0hEuGKqqwu12IzMz86wWe4QIJRWXywXDtO1YcSAj4JdffsFzzz2HQ4cOnVNBSW7lwrs4tG3bFrVr1w77jvz9b775BvPmzUPnzp2RlJR0ljvzxRhDgwYNcNVVV2HmzJlYvHhxiNuCMAwD2dnZOH36dIk0TGGSNfU8FoXCDTlIxocsc0o3g4+aML5DjqIoWL16NV577TVMnjwZv//+Oww+B11+X5YpVf5+v1/4d6ENjn+LrKc7duzA9OnTsXPnTqAYOmJG4T2R4fJcOL0mCnpG+qsoCo4fP44333wTubm5qFevHsDfU/miUkp7OT4NGzbEzp07MXbsWKSnp4v0JHfhIL/Iv3OJ/6VGzufhoLIMPL7hdN+MIZ07oKoq8vLy8MUXX2DEiBEYM2YMVq5ciUAgAAs/XZf0Wv6WwhsFRY0aXEyOHz+OXbt2id22LjRmuRcUR5LzyZMnMWfOHCxevBinT5/Gt99+iz///BOK1GAgPwrySyacWzkP/JeIGPmXgM2bN+Pzzz8XR8ZHiFDSoUKzuAUeuSX3J06cQGpqqjBwi1PwQnInGwrFoXz58ihfvjycTidycnKwbds2bNmyJaSiPHToECZMmIDExER07doVAOD1enHgwAHs2bMHeXl5+Oeff/DDDz8gLS0NkAr+2267DeXLl8e7776L9PR0oIjpTAo3Tt1ud4ibc5HphUBOEzN0XylklxHz+wo3QMjwLgh6h6ZvfPDBB7j//vvx4osvYuTIkRgwYAAWLVoEcGPKbOgQNIe2JBuNFCYHP9VXNoyKE16Slcp3EgrXKCzIHyZNGwtnkJGfb775JtLS0nDfffchOjo65D1qPFHvssIbG2XLlsWtt96K5cuX49NPPwWk9IdJf+TvkRzoWUFhRzEMqqKeF0Rx3qNwFeRW1n2VT9WRt5gtKF6MzyU/ePAgHn30UTz++OP45JNP8Oqrr2LAgAGio4Aav4ZpQbTVagWT1jYUFc6LQbiyrajfMoU9C0dB7hVeXlaqVAlPP/005syZg4cffhhbtmzB119/DSYtjCU/5HQjP8yQXspuqREbzn1B4SsNnF2qRrjgnDhxAn/99ZfYqilChJKOqqpnLcSkAtFciMq/qYC0WCxwOBxn9XyR8W72iy7ZgKBpIfJ3CkLhw6ubN2/GhAkT8MQTT+Dee+/Fp59+Kt77/fffcejQIdx+++3C33/++QdDhgxBv3798OKLL2LSpEkYMWIEnnrqKaSkpAhjpUyZMrj55puxdetWrF+/XnyXeuPMYVP50LHZaJPlYI63/NuM7KYgzP4YphM55Weye0L2P1wlCCle9L4M4xUk9axR5fvdd9/hk08+wa233ooPPvgADzzwAFJSUvDee+/hxIkTBRoxFGa/3y/cUBjp2flSlLxh+pb8TfkeyQl8S8AGDRqI+cPkt+wm3DfpGekw/TY/N0NGeW5uLr766iuMGTMG48aNww8//IC1a9fiwIEDAIBff/0Vn332GTp37iwO+UlNTcVHH32Ed999F7/99hs+/vhjjBkzBosXLxY9zQBw1VVXoWPHjli4cKHwD1IvtxwXVTr52axX8m9yb/5XxiwnWebm++HeI5mZR6jIH3AjG7yhb0ZOM/CDsgzDQF5eXog7GXJPDb33338ff/75J8aOHYu5c+diyJAhSEtLw5w5c5CVlSXcmxu3pAdyPjOkqXRynGVZhEPW2cLcmp/VrVsX7du3h9PpBCRjuzDoO4T8t1kHZMxhk91S3O12O6pWrYorr7wSTzzxBK688kr8/fffYn2J/C0qf4qDOZ3pt/l98+/SRMTIvwQ4nU6ULVs2pHcjQoSSjKIosNvtoqIxVxRUEMuVCLkDgObNm6Nv374oV64cwAvhoHQ8e0EVFkHzsYuLxucLHzt2DBUqVMDIkSMRHx+PKVOmICUlBQCwZcsWJCQkhJykWK5cOeTn5+Ovv/6Crut48MEH0a1bNyxZsgSrVq0CpDjVr18fgUAAv//+OxifhkK9P2YURREGvhxXWV6FyVS+b35Ov8lP+bnZLSHLXZF6D8nAoB1s5HcI+Xt2ux3ly5cPcU/PZCjOHo8HW7duxQ033ICJEyeif//+ePvtt9GrVy/8+eef2LNnD8C/YS4XFT532cv3Jyd3KIY+0vNwMiMoroqi4PTp01i0aBHmzZuHffv2AVLPnuxW/ls2IA3DQFJSEl566SW0bdtW3DN/syAjAty9bNwVhaZp8Hq9mDJlCqZOnQq3243vvvsOAwYMQN++fcVIyW+//QZN09CpUyfx7p49e/DCCy9g6NChePnll/Hbb79h/vz5GDp0KJYuXQpwWUdHR+PWW29FamoqfvvtN4DHIZxMGWOi8UwNW8O0CJV6iOXGscINSDnNyG96ZpZjQe7pHYLyaDgUbkzLW1USFEb6rqZpiIuLQ0xMjHgu6wRBdXx6ejoURcHYsWMxdOhQ3HbbbRg3bhyuu+46bNmyRRzWJMdL/hadeivfp/iRLGX9kmUgyzbcZf4e+Sk/b9++PR5++GGULVs2RM9lt6QH5nSQ/aa/GS9rfD4ftm7dir///lucpquYzlsg9+QfpSF1ONWsWRNJSUlnnawcLk9FiBj5l4T69eujZ8+eiI+PD1swRIhQ0nA6nXC5XIVWkAVdhmHgqquuwuDBgxEbGwtd2moxKysLx44dg8fjCSnc6W/6nsanD4SbnxwOqgiaN2+OwYMH45ZbbsHtt9+OU6dO4dChQwCf11mmTBlERUWJ92rUqIHWrVujatWq6NGjB9q3b5dd7LgAAJPdSURBVI9evXqhYsWKIcYeAFStWhUVK1bEP//8g6ysLOFHOBRFgcvlgsPhEO9TRUdxluNO4affZmQ35kow3HNN0+B2uzF//nx8/PHH2L17d8gJxqppfrvcoAsHfUfXdbjdbrG4uSD9oPCpqoquXbti0KBBwgCMjY1FnTp1YOEHrhVGMBiExhc9QpriYDEtziO5ypd83yxX+f6OHTvw8MMPo0+fPujXrx/uvfdeLFmyJMQdyVb+m8JAMoiJiUGjRo0QHx8PSLsD/fHHHxg9ejSmT5+ONWvW4NixY2ENS5vNBotpjQJMBpOZDRs2YMaMGWjYsCGmTZuGIUOGICMjAy6XC9dffz1yc3OxefNmJCYmonr16uK9pk2bokGDBrBYLOjTpw/ee+89PPzwwzh06BAWLVoU0jhNTk6Gw+HA2rVr4ff7ofJ5/GaDjtLF5XKJrQkp7SwWS4jsNNNCXkorc1rK6Ut/m9PcfG/btm0YN24cPvzwQ+zYsQN5eXmi0aFIh79RmAqqkymfgU/Fio6OFjpcUJowbmTHx8dj6NChITu8JCQkoHbt2oiNjRX+kIxl/5xOZ8gWkaRHFEdZF2WZmZ/T32b3BPlvfge8PIiKihI6Lj+X3clhIHnSfbP/AJCTk4Nnn30Wt9xyC+655x6MHz8ey5cvR2pqKrKysmDwhi65DwQCOH36NLKzs0X5tGvXLpw4cQIdO3ZEXFzcWelXUNr8rxK+hI5wwTAMAzVq1MBVV10ldiyJEKGkoygK3G63+C1XEnLBToW+fI8KejLyqNC2WCz44YcfcP/992PIkCGYNGkSFi1ahO3bt+PUqVMhhTXNSzXPby4o/1CFLB+cFB8fD7vdDr/fj0AgIL4hTwECN1wdDoe473K5EBsbe9ZIgsPhQFRUFLxerzAaCsJisSA2NlZU0JAMVLmipAuSoWN+Zr7CpQOhSBVqVlYW3nnnHTzwwAPo2bMnHnzwQTz33HP4+OOPsWrVKrFFHoWtMOgbVn64l91uF/Ki9JZReFpZrVa0bNkSlStXhs/ng8FPDt2/fz/q1KmDGjVqCPdmmNRrSfLWpQOMAoGAGC0hN/Sc3NA8atIBuVdSURRkZ2dj2rRpWLhwIdxuNwzDwNq1a/HSSy/h77//Brih4fV6hT8+n09MZaPvGYaBjIwMbNiwAWlpaTD4+Qq6ruOPP/7A+PHjMWzYMPTt2xcDBgzAyJEjMWPGDCxduhQ7d+5EIBCAx+MRfsqEkw1BBk9sbCwAoFOnTmJaQ6NGjZCdnY1Tp05B1/WQvFS2bFkkJiYiKSkJnTt3hsvlQuPGjeFyuZCfnx/ilgz2I0eOiDJB1js5T1osFni9Xng8HoCXAZRWcrwobeiitKNLTjuv13tW2jHGEOBnYpjl8/vvv2Ps2LEYNGgQevfujQceeADPPvssPvjgA/z666/Yv38//H4/GB9dNBuJBJVd4PHwSiNKskFrxuDTS6pUqQKr1Sr8P3jwIHbs2IGOHTuKBheFn/ILeF7MycnBnj17wBiD1+uF2+1Gbm4u8vLyxBkmtB1qRkYGsrKykJWVhczMTGRmZuL06dM4ceIETp8+LX6fOnUKx48fx5EjR3Dy5EkcP34caWlpSEtLw+HDh3Ho0CGkpaXhyJEjWLp0Kd5//31s2bIF+/fvx759+3Dw4EGkpKRg//79+Oeff7Bt2zbs3r0be/bswc6dO7F161asWbMG69atw5YtW/Dnn39i7dq1WLt2LX7//Xfs2LEDK1euxM6dO3H8+HEsXrwYo0ePxoABA9CzZ08MGDAATz31FKZPn45ly5bB5/PB7Xbj5Zdfxj333IOPPvoIX3/9NSZNmoRGjRrhnnvuETKkC0Xkl/9FFFZQrXmOhPMmIuzQIWFSxKIq1AgRLjcff/wx3n//fbzyyito0aKF6AVWpcVJ9LchbZEYDAZhsViwc+dObNq0CZ07d0blypVh4fPT3377bUyZMgWML06Lj49HlSpVUKtWLSQnJ6NevXpo2rQpjh07hjfeeAODBg3CgAEDAFOPoZkjR47g7rvvRkxMDObNm4eYmBh88MEHeOONN/Dhhx+iXbt2uOOOO3DixAl8/fXXIb2aw4cPx+LFi/H555/jqquuws6dO9GvXz/cfPPNGD9+PAzeWElLS8M999yD2rVrY/r06WIHIvAwyeEKBAIYNWoU/v77bwwePBiVK1eGznvBSWb0HpULZBCRMUSNAkhbXMrypnfz8vIQ5AfBaHxPc4fDgZ07d+Kjjz7C6dOnRbjAe9ITEhJQs2ZN1K5dG02bNsXatWvhdrsxc+ZMVKpUCTD1ZOq6jlOnTmHXrl14/fXXUbVqVQwePBhVqlRB5cqVQwweek/XdVHWyTqzcuVKDBo0CH369MHLL78M8HKS4kr/er1ePP744/jtt99w6623Cv+DwSA8Ho+Y0mWz2ULkQkYlhZ1xY85iscBms4nGm6IoOHr0KH744QcxR1rW6Q4dOqBly5ZCxoZhiEak1+uFpmnisCDDMHD06FHs3r0bNWvWRIMGDZCTk4NAIIBt27bhr7/+EuEnLBYLypQpg8TERNStWxeZmZk4deoUpk6dimuuucbsPCwrV65E//79ERcXh08++QSZmZm4//770adPH0ycOBFpaWno2rUrAoEAFixYgEaNGgFctoMHD8aGDRuwcOFCNGzYEEuXLsXdd9+Nbt26YdasWSLtdu/ejS5duiApKQmff/652GoQ0gJNasi+9957eO2119CuXTvUrVsXPp9P6Kfdbkd8fDwCgYCQJ6UhGfYq71lX+ba7tE9/TEyMWNBrt9uFkUsNb0rf6OhoLFu2DD///LMII+FwOFC2bFlUq1YNTZo0Qbly5bB8+XI8+uijuPfee0Pckg7n5eXh0KFD+PHHHzFjxgx069YNPXr0QO3atZGYmHjWO5RHKR6Qtu6dMGECPvvsM0yfPh0dO3YU8SV9N3gv9r59+9C/f39kZGSgY8eOYLyzI8hH4ajhQOWEn281LJc/QX6WRXR0NFRVFWd8kOxtNhtsNhvy8/MB3pDTNE2EecuWLThx4gSaN28uRj5dLhe8Xi9UftYIpR3j21AGg0FkZWXBYrEgKioKHo8nZD1NTEwMTp48ie3btyPA99+nOkPG4XDg2muvxTvvvIM6dergrbfewrfffotatWqhQYMGqFy5Mq655hrUrFkTwWBQ+C/LMsL/EzHyLwG7d+/G/v370b59e8TFxZkfR4hQ4li6dClGjhwJl8uFqlWrIi8vTxg2VLDLhipVwPn5+bDZbNi7dy8OHjyIdu3aoXz58gAvI/7++2+kpaUJA9WM3W5H3bp1ER0djaNHj2LKlCm44447xPsFlSnHjh1Dr169UL16dXz++ecAgBkzZmDChAn4+OOPce2112Lw4MFYuXIlFi5cKIwdxhgefvhhrFixAvPnz0fz5s2xb98+9O7dG9deey0mTJggDNhNmzbhgQceQI8ePfD8888LGdBzihMZmo8//jhmzJiBRo0aoUqVKggGg8jNzRWjC3IFCF4xU4Vt4dMeyC/Ge8XB57nrug673Q6Nz8sGrxzJvaZpyM3NRUpKing/HNWqVUOnTp1w6NAhxMbG4oMPPkCFChUAydBR+VaAL7/8Mj799FNkZWUhLi4OUVFReOCBB/Dcc8+d1XFBukH+UIWemZmJIUOGwO/3Y/LkyahWrZowFOVGDbgB+eyzz2Lq1Km48sorUa5cOdhsNni9XmRnZ8PhcMDpdMLPd/qxWq1itJR6fxVFCWn8kBFGhuPRo0exZs0aBAIBkY4U9gYNGgg9od7TSpUqoVy5csjIyEB+fr5Ic4vFgj179mD79u1o1KgRGjVqBI/Hg6ioKOzatQubN28W8ZKxWCwoV64cGjZsCL/fj+PHj+ODDz5Ap06dCtV3+dm4cePw0ksvoUWLFoiLi0P58uUxZswYNGzYEKdPn0bPnj1x7NgxzJ8/H82aNQO4kf/II4+I/NCsWTMsW7YMvXr1Qvfu3UOM/L179+K2225Do0aNMHv27JDdeUhWJLuZM2fi+eefR8WKFVGpUiXoui6myzidTkRFRQndJ2OVetUpPj6fDxY+TcTr9ULhU9/IWAbfNx3c8LTb7aJsUlUVu3fvxtGjR4VbM9HR0ahVqxYqV66M1NRUjB8//qyDkyg8u3btwpAhQ7B+/XphKNesWRMTJ05Et27dznrH4A1NauAqvDH+xx9/4JlnnsHdd9+Nhx56SOQtSMY9eBmyfft23H///bBYLGjVqpWQMY2E2e120bilBmdeXh6sVivsdrtoYGh8br/BR5XsdjsURRFTJeXpOCRfevfbb7/F3r17cf/996Ny5crw+/2w2WwIBoOiYetyuWCz2aBIC8Yp3nSfwk7h3bVrF8aPHy92LwPvzKhVqxaSkpLQuHFjNG7cGPXq1UOTJk0QGxsLv98vtiCPjY0VjQ65YUNyjnA2F8zIj1Aw33zzDRYtWoSxY8eiZs2a5scRIpQYqHI7ffo0lixZgsOHD4vKk/EhcirkdT7X3mazISoqChpfxBYVFYUffvgBGzZswIMPPogqVaqICvCbb77BL7/8It7XNA3x8fGoUKEC6tSpg6SkJLRo0QIZGRmYO3cuRo8ejdtvv90czLPYs2cPevTogRo1amDBggVwuVx48803MX78eEyePBn9+/fH9OnTMX78eMyaNQu33HILwA3mhx56COvWrcNnn32Gtm3bYuPGjejXrx86d+6Mt99+WxjXn3/+OZ599lm888476N69O2AaqZMrGeopTU1NxdNPP41y5cqFGLNyzxxVknJRzPgiRsZ7xC18tyKr1Qqfzwev1ysqToXPh6Uw0O8dO3ZgxIgRYleU6OhoVKlSBXXr1kX9+vXRrFkzNGvWDNWqVcPkyZOxdetWTJs2TfRQygZxXl4ehg4dijlz5ogwAsCzzz6L8ePHh9wjA4bio3AD3zAMTJs2DevWrcPo0aPRuHFj4Z6MI9IzRVHg8/nwxBNP4PDhw3jttddQrVo1BPk0jkAgAI1PAzN4r6aiKEIeujS1Q+MNU3JH92NjY5Geno6nnnoKn332mRQDoHXr1nj77bfRokULYVwFAgG4+HxzP98eldLO6XRi+fLleOuttzBixAjcfPPN8Hq9iI6OxtSpUzFixAiATyGrWbMmqlWrhtq1a6NVq1aoXbs2GjRogPXr1+PVV1/Fyy+/jKuvvlrIoTB0XceYMWPw1Vdf4cYbb0SrVq3QtWtXlC1bVrh5+OGHMXfuXMyfPx8333wzwEeaHn74YSxduhRfffUV2rZti+XLl6N37964+eab8eGHH4qdVVatWoX+/fuLLVAhTcUzh3HcuHHYtGkTXnjhBVSvXh1+Pk0K0roZudGqS9OIyFD0+XxChwlqRFC5ofDGG8F4Q4sxhg8//BAvvPACwBu+MTExqFGjBpo2bYqmTZuibt264mTTt956C9dddx169uwp/IIUvyNHjqBnz55Yt26deFa9enXMnz9fLLAmGC8fIeVpVVVx+PBhvPXWW6hatSoef/xx4Z50UZXmyiuKgvXr1+OZZ57BqFGjcNtttwn3l5KVK1fi77//xoMPPigWG18ITp8+jf79+2PLli1o0aIF6tWrh8aNG+PKK69ErVq1xLQzguqIcJh1L0IBsAgXnYULF7J77rmHHThwgDHGmGEYZicRIpQIdF1nuq6bb58z69evZ2+99RZLT08PuT9x4kRWrVo1du2117J77rmHjR8/nn333Xfs77//ZpmZmSwQCDDGGNu/fz/r3Lkz++yzz0LeL4ivvvqKVahQgSUlJbHVq1ezjIwM1qtXLwaAPfTQQyw3N5ft2rWLtW3blj3++OPivR07drAbbriBxcXFsUmTJjHGGHv33XdZuXLl2M0338x2797NGJfLwIEDWceOHVlqaipjjLFAICDkZc7T+fn5rEePHmzgwIEh9y8lx48fZwMGDGDt27dnTz75JJs/fz7bsmULy8zMNDtlkydPZv369WPHjh1jjJdRuq6zYDAo3EyfPp1ZrVYGgAFgcXFx7Msvv5R8+X90XWd+v/+s9/v378/++ecfce/06dMsPz+fBYNB4ZZkmZuby+677z42ZMiQC6KTBbFv3z72wAMPMKfTyaxWK7v11lvZr7/+anZWJDk5OWzbtm3M7XaH3F++fDnr3bs3e+aZZ9jChQvZjh07WHp6+llxWrNmDbv11lvZqlWrGDPVE4ZhnHUxxtjevXtZcnIyczgcrFevXuyJJ55gr7/+Ovv+++9Zbm4uY4yxDz/8kNntdjZlyhThX0pKCmvfvj0DwN555x3GGGPTpk1jAFjbtm3ZwYMHhds33niDVa9enS1btowxxlgwGDwr7MQLL7zABgwYwHJycsyPLhlr1qxhXbp0Yffffz+bOXMmW7p0Kdu1axfzer0h7nJyctjw4cPZF198EXKfcf0lOT/55JNC5wGwbt26nVWuMZ5GwWCQBQIB5vP5GGOMHT58mD3wwAPsySefZH6/nzGu85s3b2bZ2dkh5QfJdN26deyaa65hP//8c4j/lxKv1yvKY1nfzoVw7+Tn57M1a9awtWvXhpUhEU7Xzc/o7wiFo71ITfMIF43s7GxomoamTZsiOjoaiExlilDCOZdeEuq1VaT55YmJibjyyivFlBN65nA40KxZM9x3333o378/rrvuOiQnJ6NSpUpwSDvRnDx5EkuXLkWTJk3EFAO5Z9j8fZ/Ph7p166Jly5aoX78+ypQpA5vNhvbt2+OKK65AUlISqlSpArvdjuXLl6NOnTqoVq0aAKBixYq4+uqr0axZM1SoUAGapqFly5bo0KEDkpKSEB0djR9//BFfffUVBg4ceNZ8aYqfjNfrxaJFi+B0OnHDDTfAwo9bp15keo+guMmylN2a3cm/5YvuGXyBcZs2bdC7d2/ccccdaNKkCSpWrAiHwxHiBwD89ddfSEtLw4033hjSc0f+qnyO9NKlS8XWd/Xr18fQoUPFNqnmd6g3EwDmzp2LsWPHonbt2qhfvz4OHjyIpUuX4pdffkHdunVRtmxZ8R2SS35+PhYuXAgAuPnmm2G1WsXoB42KUFwp7mYZ03P6m6BefUVRkJCQgLZt22L79u1ITk7G+++/jyZNmgDSVpDye+Z/6RtOpxMVKlQQPdTg36xSpQpuuukm3HzzzWjUqJE4tE1OY4Uf1rZu3TpcddVVqFGjRoh+mPWL5Eunf+bk5OD48ePYuHEj1qxZg2XLlqFChQq44oorUL16dWzfvh2HDh3CzTffDIfDIQ6LczqdqF27NmrXro21a9fi5MmTqFatGlq3bo3ExERkZmbitddeQ40aNTBs2DAxJYzyqRwW8D35T5w4gc6dOyM6OlrIWHYrX5RelDZyGqGAeNN9+V36zRhDhQoVcPPNN6Nbt2646qqrULt2bZQrV06MDJD7vLw8LFu2DJUrV0bz5s1DvkMo/LTgH374QaRp9+7d0aVLlxAZmLFarTh16hSee+45zJ07F8nJycjPz8fq1asxc+ZMpKSkoH379oiKihLhoevIkSNYvnw52rVrhzp16oiRD/qeLAN6V04DItw9833ZL/ptSFPfSKbyOwW9a4bCJWO1WlG9enVUq1YNTqdT+C3PyzekNUdm5Hvm8KCQOP9PY7b6I1w4qJXudrtZTk7OWT1bESKUREhv5cvcs0KX/Jx6sag3nggEAiwYDDKfzxe250X2h97dtWsX69y5M/voo49C3BX0fnEJBoPsxRdfZL1792a7du0yPw7L+vXr2XXXXceef/550UNX1DdzcnLYnXfeyQYOHCh6EM2yCyfHouRd2BXODxlyI7snpk2bxu644w6WlpYm3Bo8TanMysjIYHfddZfo0Rw8eLCQB0H+yu+tWLGC1a1blwFgMTExrHz58iw6OpopisIGDRokepwpPBTu7Oxs1rt3b3bfffex/Px8xqRe5KIus2zMl1lXDcNgjz32GBs5ciSPSahehrsojoZhCL+ys7OZx+MRz/UwPd5mfyi+q1evZl27di1yFIHe8fv9bNy4caxjx45s8eLF7M8//2Q///wz+/3331n//v1Z3759hWxJhydNmsR0XWc5OTns4MGDbP/+/ez48eMsJyeHHThwgO3du5elpKQwj8fD/H4/e/3111nTpk3ZokWLzMEQUPgZ78nv2rUrO3ToEGOmHnHzZZZDOLeFIctYvmTM/hk87RljLD09nQ0ZMiSkjCFkv/7++29Wu3ZtBoDFxsayr7/+2uycsTD56/3332cOh0O8l5CQwOx2O4uOjmYzZsxgBk9D+R3GGNuwYQPr3LkzW7x4MWNc54uSxYXmyJEj7J9//mG5ublh5Xo+UBx1Xs7T5ff7RR0hp1OEC0PBTdEI/xpqUTqdTsTExITtzYsQoaRBvSh0Ue+qfMluwXtQqBfFYrHgxIkTWL9+PTIzM8XcXXPvn9yDR/5Szy/jO0rQHNfCKE7PjcF3rtE0DQ899BBatWqF3bt3n5UXzb8ZY0hNTcUtt9yC4cOHi3nyRX2T5oF7vd6z/EQYGV+MC1K6mHvUZDfgC0BpvrvZHb0bHx+P+vXrAzx+jRo1gs20HakM+e/z+XDNNddg6NChuO+++3DHHXegR48eGDZsGAYPHozo6Oizvgu+b7zD4UBQ2uYwnC6ez0XzoGWdtFgsyMrKEos6UUQ6UVgYnw++d+9ejB07Fps2bQoZkSgoDcwYfBGqefQAUq8p/a0oCg4fPowvv/wSaWlpKFu2LFq2bIkrr7xShK1BgwZi3nqbNm0wdOhQLFq0CF999ZWYp56UlISKFSsiJiYGNWvWRJ06dVCrVi04HA7MnTsX3333HUaMGCF2NypOPHw+X0i+NcvtXK7CoHiGe0cOJ90L96/CD60LB71fq1YtNGzYEOCH59WrVw8IU1ZA8tswDNSuXRujR4/GK6+8gjFjxmDs2LF444038P7776NXr15QpAWrskxJLylPFDZicLFYtWoVXnvtNZw8eTJEly8EFG/zJcfzQn7vf51Lrz3/Q1AhdPr0aezfv1/sghFR4AglGbnCLEhX5WdUSZHxAX5Iz5gxY7Bz505RSciVhfzbfEEykosyKGAyosh9QX/ruo7ExEQMHz4cnTp1EgYkk6Z1yP4ahoEuXbpg5MiRKFeuXIhBUFjYFEVBdHR0SBzMcTS7L+z5+WL2tyD/aQGkLDNI6UQkJydDVVW4XC6xx3046Bu6rqNTp06YOnUqpkyZgsmTJ+O9997DrFmz8Pbbb+PKK69EUNoGT9YhSpuCjDDCHLdw8TND8aK46XwXGJ/PV2C6mr9B3yG9oe04Dx48KNyT7snu6bt00X1qaIWLL/lF05TA97q/5pprkJOTg0GDBqFnz57o06cPRowYgUqVKuHBBx+E3W4XjYZu3bqJKTfytCedLwANStu3+nw+xMXF4emnn8Z9990HxTS1qCDMiyQLc2uWZWFuw2F+V/bD/K/8joy8AN4MuY2JiRGGff369c/aOlNGLkeuueYajBkzBqNHj8aTTz6J4cOHY8SIEbj77ruRkJBwVl4z/ysvPDaH+2KTl5eHvXv3CpvlQmBOp3AXuYtw4YgY+ZcA2rXi2LFjsFqtESWO8J/D3NuUlZWFo0ePigqLjJmCDCgz1APpM50MGi7vmCsKMqzk57IxRT36cXFxZ1Wk5EY2NqOjo6HxE3jl54XFxWq1IiYmBgrf6eVSYJZDOFnJyM+9Xm+IsW2GDKGmTZuiVq1aiI+PR+XKlc3OBLJ87Ha72NpP4b14Vr6tpSHt0mKGjGC32x0iw3OJY3EhvwxppLU431GkRhCdpkwHQdE7RekKYbfbAW54hoP8IEM6Li4Oo0ePxqxZs9C1a1ckJiaibdu2eO655zB27FgkJiYKnTX4loo9evQQvfIke0oXWQYWiwW333477rjjDqh8ZySlGPmX1iNcKp0vLnL60d9WqxVOpzNsWMkNyahhw4awWCxo0KBByM5FZpi0rqQgnWHSHPSC5KlcwnIjHGXLlkWVKlWErhVXh88V8pP+LUhmEc6fiJF/CThx4gTWrFlz1qE0ESIUF9n4MKRpLjD1Hsn36F9z4Uy/ZT/PF7kykwtoWtBHFWJxC3FzWAvqZSsMxWTU071wQ8PhjBxyz0wL1FRVDdmqkvwIh4VveUkHAZUUKF5mvTDLC5KeyXKpWbMmmjRpgmrVqoUcmkXI8qL3SM9ITw3pdFpC/j75Z+MH9lwIPS0Odrs9pNFn1sVwyGGrWbMmBg8eLKZ2GNK2oGbZhoP0siC3Kj+BlZ4bhoEKFSqgR48eGD9+PN555x28+OKL6NatmziojdJB1lXKA5Q+dMnfl/MIfdvsTzjsdjsYH3FAMfL7xaSgb9N9imdeXp7ZiYDStlatWqhatepZJ9XKkHzM5Ua4SzaezbKiBnFh4brYtGzZEo8//jgSExOLlQ/OF1n/IlwcCs+xES4IsbGxqFevnthZJ8J/HyrMyaChCvd8oPcUachc9kv+lnyfflNFIvsj/76QkJ/t2rXD888/j6pVq4YNc1Ho0h78F5pzqVBkt+fyHqW50+kM2dWjJEG6AV5G0U4fZuR70dHRuPrqq3HDDTcgPj5ePDe/p0i9vrLeyQaW3LgiP2Q3pDfyrksXCwqjzWY7p/QiY9nv96NMmTIYMmQI2rRpc94NO1U6KbUoyKA0/5YbHgXJrTDDqqD74QiXxrI+hNONkgIz7eoiQ/Ih+dWoUQN9+/ZFixYtAKkBZ8as1wW5ofv0rywjatjSKGY4Py4mjDFUr14d7du3R0xMzFmNkAili/AlQIQLylVXXYUXXngBNWvWPMsQi/DfRTay5cr3fNNfrvypp2fjxo1IT08/q2dI/o7CGwc7d+7EH3/8Ab/fD810+NK/hUk9hoZhoHLlymjdujViYmJE3IuDXOlZ+WFP5meXCrmiPtdv67qO3NxceL3eyzrsXhhynOjkUFlnZHeysdinTx8MHjw4ZL53OPdk7JiNnnDyJPcyuq6LU2vDhetCQt/Xdb1Awy8c4YxpczyKSyAQOKdvwyQPyvOyjEn2Fxv6Bq0nOF8ZXEqCwSDcbrf5dggUr2rVqmHkyJEhJ9CeS5kWTu8pfWjUhHRc51OsXC6X5MulQ+EHkuXk5CAYDJaKtIxQMJHUu8jouo74+HjUq1dP7Dt7KQrdCCUD2ZA2F/LFRTHNFSZj5KOPPsKiRYuEgR8OqvRpj/FPP/0UM2fORDAYFFNPLgTmBoPX60VmZib8fn9IBVYU5I4qP5qbX9pg/PRL2Wi7ULK+GPj9fnHSKGE2TBhvrCYmJqJSpUpQeYPOnLbye2Y/5Odmt+GQG6/yvxcalU/FMjeOi4IMINqZ55tvvsHevXtDpv0UF5/PB4/Hc95xpIZKUTK9kJi/QY0+Sjfz85KErusF7n4FSTcZ3z2pfPnyYt3Ev4mXOS+YjWhq2FIHR0Hhu5hs2LABkyZNwuHDh88KX4TSRST1LiJUWAeDwZDFVOdbiEcofWiaBovFEjLfVS7ki6MLZKjL786ePRvffPMN2rdvj7Jly4rpLWQcyxcZLk2bNkXr1q0xdepUfPfdd8C/rKxkqCJgfO76+vXr8eKLL2LPnj1QpK3iikI28hXTgVBkZMqEu1fYfcL8rCj34Qjnnu5RJe1yuURDJZz7ywGlA+kVeKMsEAgUGEbSPTLsaboX6VxB7xVGOH2Q00HTNHFolPz8YsAYg81mQ1RU1Dmll+wmLS0NU6ZMwfr16wEeP4pPcfyihgEZyvROuPfD+Wv+XdC9wjD7Vxjh/Jb1gwiXzpcTCrOmaXA4HHA6nWGfE5SO1NFSkOzDUZgb+bdczlG5Rx0E55u//g1HjhzBihUrQraTjVA6iRj5FxlN07B37158+OGHOHz48AXtPY1QMpErEQBITU1FWlpayE4x5kqiIGR3jBtlf/31F95991106tQJN9xwAxjvNT59+jSOHz8Ov9+PtLQ0bNq0Cenp6SE9Mb169UKbNm3w+eef48SJE9KX/h1USZFu79+/H19//TWOHz8u7hcnvoTFYhF70hNkaMryIJmEk2e4b5p/y/fONV+Gc0/3FH5egHkb0HDfv5xQeMiQkMNPDS0zirQwkxpv4dydD7JftPA2EAiEnRZ0IaG4064/54PX68WRI0fEicCynhYHhTcMqQdXTgtzvOmefN/8u6B7hWH2rzDChYHSyyttvVjc+F9qFEVBTEwMoqKizrpvhhqz5k4UItw7KEKe8m/KTwAQFRVVZMPjUhAfH39R1kRFuLREjPyLCGXilJQUfPnll8KouhwZNsKlgYxNRVHgdrsxZ84cPPvssxg+fDheeOEFHDhwADDNny0u1NP3ww8/ID8/H927dwe4nm3btg1Dhw7FwIEDMWnSJLz44osYMGAAnnvuOaSmpkLhi21dLhd69uyJf/75BytWrDB94fwxx4MWnJ7vHGOF92aZ/TW7oYpRCWPwyP8Wdt/87oXAYrGIPddlA/VCf+ffYi6LippmIsfhXOJi/k5hkNtAIIDs7Gzk5OSIe+fyzXPF7XaHbNdZnG9RfgffdrBFixaoUKFCiJvi+AMue13XcfLkSQQCAXg8HuTl5SEnJwfZ2dnIzc0Vf+fl5cHtdsPn88HtdiM3Nxd5eXnwer3w+/3w+/3weDxwu91iXYjf74fb7RbP3W438vPzxfapdPicz+cT75jv+/lhXTpfLxGU9tY3DAOnT59GXl5eyGjEuaT9pYQadCdOnBBx9Xg8olFJcTTHn2Ti9XrFlZOTg5ycHLjdbng8Hni9Xvh8vpD0yc3NRXZ2NrKyssQ90m9KP7/fj0OHDiE3N1d0nMhTyC4VSUlJuO2221CmTBnzowilDIVdau35H2Tp0qWYPHkyXnrpJbRq1cr8OMJ/ALkyI8Nzzpw5eOedd3D33XcjOzsbX331FV599VV0795dVIIF9ZYSZn99Ph8GDBiAo0eP4uuvv0b58uUBAH///TcGDhyITZs2oU+fPujRowfmz5+PxYsXY+rUqRg4cCAMvufzli1b0KtXL9x6662YNGlSod8/F6hSUlUV27Ztw8KFC9G9e3c0bdoUOl9MJo8qhIPCePz4cTz44IOoWLEihg8fDkVR4PF4xBSOQCAgvkfz/jVNQ5AfoETf0XUdbrcbCu+lDQQCCAQCsNlsIT1x9B54jyxjDA6HAzabTRhCUVFRYucLMqLovsPhAOND+qqqIiMjAxMnTkSTJk3w7rvvigXIOAej72JCYTH4/umff/45xowZg1tuuQWNGjWCx+NBMBgU53rofHpOMBiEz+cTU9AY3w6QGnSULtQYYIwJY8fhcKBMmTJgfORJVVV4PB5kZ2cjOjpayDo3NxcOhwN+vx/z589H06ZN8eWXXyI+Ph7sHBvGxSUYDGLUqFHIzs7G9OnTxRaUxdFXkoHX68WBAwdQoUIFxMfHhzRSi8rn4CN+99xzDw4fPozmzZvDZrNBlRYDy0Y3TQVTVVU0CKxWK6KiokS6kMEfFRWFMmXKID8/H3l5eXA4HNA0TaSx3W6H0+kUukCNU9Jp0mvGp2fJo1OUHi6XC8FgEIsWLULFihWxYMEC1K1bN0QXSgoUZsMw8MQTT2DBggW48cYbYbPZkJubC6fTiaioKHi9Xng8HlFuUfypIez1emGxWMAYQ3p6upCZ3NPPpEa+ztcAKIoCp9OJYDAIr9cLq9UKPz+Izul0Yv/+/cjKysLMmTNx0003ibwil1cXE8bzua7rYupaccruCCWTiJF/Cdi7dy9Wr16Nzp07o3r16hetoopw+aDKkEl7ID/66KOYO3cuFi5ciE6dOuH7779HxYoV0aZNG1HwUwVYkD6QnwY/oCY3Nxd33XUX4uLiMHv2bDgcDoD3ej766KP49ttvMW/ePFxzzTVYsmQJevXqhcGDB2PixInCz5MnT+Luu++Gw+HAF198gbi4OOmL5weFkypPRTounirF4lQU5Ifb7cbYsWMxb948JCQkIDY2FuDxdLlcolLUNA35+fmw2WxwOBzIzc2FrutISEgQPZLU42i1WmHwua5WqxV2ux0aP+SK8d18FEVBbm4uFEURW0R6ea+mjW+vaBiG6GUFPwSJDB+VH0efn5+PnJwc3H///XjyySdFOpUUzPr6119/4c0330RqaiocDocIr67rYkGuw+GAoijCeFT5ybfUOGLcOCBjkXSA7tntdkRHR8Nut8PgWwRSw410nIwpkrOmaejfvz/uvvtuIeOC8sq/ZfTo0Th06BCmTp2KuLg4EZ6iYNyQozjDNK+eDPyiwp2fn4+5c+diyZIl0HUdUVFRYo0ApYOf98IbvKFJeUrXdVgsFrEwlHSUGgQ2mw15eXnweDyw2Wyw2+3CXxopIQOWcZNA4+t5FN5Y0/iUEmooU37SdV3s7W6329GlSxfcc889iIqKEnIpSZAOMcbwzTff4L333oPb7UZ0dLSIL12qdBAYxdfCpxL6fD4YhgGbzQad72hGZQr5b7FYEBcXJ7aipNGW/2vvvMOrKPb//z49J733ECCAhN6byBVQKV6viiAKiIL3WkAUBaWIFBVsiKD0LkSkqBcFVPQCgl+qgID0TgQCJJCenD6/f3bmN2dzEhJIQnL4vJ5nn+TMzM7OzM7Ovmd25jMajQYmkwkaZeqbU/lqYDAYoNfrUa9ePTzxxBOIjo6GUxkgKU0dKg8cymaB/FoOxcJOaZ4FoupBIr8C4S9RqEY5K+thJSoPfq/ll3pKSgqGDx+O+Ph4jBo1Cv/85z/d7A6jGJHP6wx3Y4p4MhgMSE9Px+OPP4769etj3rx54gVqt9vx8ssvY9OmTVi3bh0aNWqE33//HX369EH//v3x6aefivizs7PRv39/3LhxA//9738RFRUl/G4Vnif+cpNf7A5lJ1XNTUQ+Lz8uri5cuIA9e/YgMzMT4eHhMJlMYmTNpSyC4/Hy0cjc3FzYbDaEh4fDJY2y8tFJeWSai3YozyUXOA6HQ/jxUWujMtfYrixO5XHrlU2v+L3SKObn+AhqzZo1ERIS4vbSrArwsuYCAorI5Jt3GQwGIei4UONl55JseKvNbvJykesuF0A8Di7q7YoVES42HYrFJy70oUypCAoKEkKoIsXGm2++iWPHjmHJkiWIiIgQ9bAkeB10KZ3HjIwM+Pn5ITAwUOSBtwclwcMy5csHLy+9Xu9WL3n5ulwuUX5ymfBr8XLn95k/LzyMVhkZZozBpkxB4e5yWuV7yeFp4PdJ/m0ymYTpR1426jjvNDzNGqUTmp+fL0bLeZ6Y8mzz35DaY430lYrXSd7e8Y6Qukz4uS5p0TqPvziYcs/5uTx9lUFaWhouXLiA5OTkchkEIu4cJPIrEN6wciHBG4/KelCJyoPfW/6/TqeDzWbDggULMGnSJGRkZGDIkCGYMGECIiIi3EQxh//P45FFhlP5dJqWlobevXujXr16mDdvHozKwiin04lhw4bhhx9+wA8//IAWLVpg+/bt6Nu3LwYMGIAPP/xQXCcnJwe9e/eGy+XCN998U27zLrlg1Gq1+Pvvv7Fnzx60bdsW8fHxbn4lIb+Abxa2usA8CKWqQHUqa/68VJRgdDqdGDlyJE6ePIklS5YgMjLS7fkrDp4unU6H8+fPY/LkyXjwwQfx5JNPClHNReHNqKr15FbgIpfnvSrli9d7SMYRqiK8DDkVVfc98eOPP2LJkiWYMGECGjVqpPYmqhElt2DEbaFRLGykpqZi27ZtyMnJASQRR3gfXOAXFhbi/PnzePrpp7Fq1Sq0bt0as2bNwvLly0UY9Xny6A9/MapfRv7+/ggPD0d6erowbyZ3MORRJavVCqfyKV3GpthET0pKKjeBr+bgwYN499138eeffwLSOoXSwEes5OeE/+/p2eFu8ktRLhN1PMXFoT6Hlz3/Xw7jKZw6HlnkVUVkcS+nWZ1P7u4pn2p3tb/6983c1QePn9friipLnU6HwMBA+Pv7F3k2S0JOT2ZmJrZs2YIzZ84ASj2W81oSPJz811M5qX/f7HAqC0hvVpf5URrksPL//F4xybRqRd2v24WnjZcHLx+e/pLwVFbyb3WZqv3ka8n3Qn0+fz7vRFnm5eXh4sWLsEmmv4nqSenfvMQtc/ToUcybN482lrgL4I11YWEhZs6cia+//hqdO3fG9OnTER4ejiNHjoipDhwu6Pmn3sLCQlitVmilRV5Q4g4ICEDDhg1x8eJFNxOYVmWHQqtizQEAMjIykJmZifT0dDHiCMXaU0ZGRrmO0KiFnsViQV5enpu4KAv8Jcf/Lw61n/wilF+e/C8va9lf9pPD8mdVFsPq8z2dx/+vDs86zxvPV3EHFxpquLu6LD0hxwfpHpfm4OHLEzk+pzJfWqcyjVgWfHx8EB0djYCAALXXTfGUT41kGlb2k8vNUxyyn9bDjqrquqyOuyTU11ZfS51mT+msKhRXXnJ5cOT/PZWXnEd1nGp4GamfKTkuT0dlEhISgvr169+xXXeJ8qNoq02UOy7FtJhFsR1c2Q8sUXnwe+vr64usrCx8/vnnWL58ObZu3Yq4uDh06tRJLGqUXxZarRY5OTn47rvvMHLkSPz000/iZcDDcKHeqVMnFBQUYMuWLSKe48eP48iRI8jJycH+/fthsViwb98+WK1WXLhwAWlpaUoKgc2bN8PX1xft27cXbreLnBcAiIqKQseOHZGQkFAkTEnwMOr4eFmo4+AvQLWfxoN4VSP7ydctLrzMzc71JIirAzfLN0ddRsWVheyvxpObGjne0oQvC3J8fMTbkxguCVn8RUVFYejQoejUqRMgzUkvC+q8ejpfXa7FlY3avbj/+W9Z4BZHafxLE8+dRF1m6nKSw3n6X6Y4d446bvXvm7nfKVq0aIERI0YgLi4OqIAONlF56CZOnDhR7UiUHxqNBunp6cjIyECHDh0QHh6uDkJ4ERpFcPIFg76+vrh27RquXbuGgQMH4pFHHhFWGuSRIK1Wi+PHj2PKlClYtWoV6tevj/vvvx8aacoOf3kmJCTg/Pnz2Lp1K+6//34EBQUhNzcXwcHB6Ny5M5KTkxEVFQWn04lWrVqhY8eOqFu3Lvz8/LBv3z5Mnz4dTz75JB577LFSCZnSoM5LSEgI2rVrhxo1akCvbABX2pdYcS/Fks4vS/y3SkXHT9w5NBqNmFLZs2dPmM3mIh3HknApllWaNm0qnj25g1raeDwh1//biQdUh8uN270X8rm3E09F4HK54Ofnh8jISGE56HbzS9w5aOFtBcKLNicnB1lZWYiKihK2jwnvg99vWewyxpCXlwfGmDADyRtNGa1Wi4KCAixYsADjxo3DsGHDMGXKFBFePcJ4+fJlvP3220hISMCIESPcLCBwwa2uZwcPHsT48eMRFhaGadOmCZvl6rTcCuo5rQbFvjIk6zq3Og2CICoaxhhGjx6NY8eOYdGiRWL/iZvhUqylQHkuXS6XsBbEqeoj2wShxqJs8sVNrVbkehiiYiG1WYEwZYpFUFAQEhMT4ePjU2TuMuE9yCNuXGBrlK3TucCHZGZNPhhj8PX1RZMmTeDr64vc3NwiI4E8fsYYYmNjMWbMGGg0Guzfv1/ELYeX65rT6cTBgweRnJyMiRMnIjg4GI4y7kZbEnJaDQYDrFYrUlNTkZubK0byeRiCqIpotVpYlJ1KSwvvJBsMBmRkZGD+/Pn4448/xPOv7mgTRHVg7969eO+993DhwgVhwpWonlALVIHw0UuLxYJr166hsLAQoPltdz3y/eej7nIHgW8sI4+cyCKaKfaT69ati6FDh4oFtDwuGdmCQ48ePfDOO++gRo0aHr8m3A48Li5q/vrrL7zzzjs4dOiQ8C/P6xFEeaJROuby3gnqZ+lmZGdn46uvvsK2bdtEfDSoQ1RHrly5gu3btwuLgET1hUR+BcKFzcmTJ7FgwQJcvHjRzVoK4X2URszK/uqwfJRf7Q4PI/p2ux2RkZFi4x4ehv/l8fBOREREBPz8/IqELS9kUZSeno59+/YhOztb+HnqhBBEVYEp08zKIvL5cwbl2bXb7WIwp7yfL4KoLMxmM6Kjo6vcTt1E2SGRXwlkZmZi9+7dyMjIAKjxJ1TI4tdqtcJut7uNAHqqL1rFNB63ClKSIOHnOxV72XJHobzgHQqe7oCAANStW1csNOdfE8r7ugRRXmg0Glgsllu2De7v748HHngATZo0AZTnmqbrENWRRo0a4cUXX0RMTEyJ7xai6kMtUCXAPwHTw0J4ojQj3LI45qOH3KY3n9dfnIDm4eVw3K24c8qKOg916tTB4MGDkZiYWCQcQVRFtFotHA5Hmdeq8E52WFgYxowZg27dugk3qu9EdYMxhsTERPTo0cNtd3aiekIivxJITEzEwIEDkZiYSI0+UQR5ZF2v10Ov17tZorlZnSnNyLw6zM3ClxU+Sq/RaOB0OhEdHY1HHnkEERERQjSV9zUJojwxGo0wm80wGo1qrxLRKF+w+K658g7TN3t2CaIqIltLI6o3JPIrGJfLhaioKDz22GOIiYmhXjEhYNIW51wMaJTF2vKumbcjFNTivqIo7hpyviorLQRxKxiNRhgMBlFny/rcFRQUYPfu3bh48SJ0Op0YyacRfaI6odFocO7cOaSkpODy5cvQ6/U07awaQ3euguEjnFA+B2vJ4gJRAmfPnsW1a9dw7tw5XL9+vVoJBJ5OnU6HM2fOYNGiRUhNTS3TQkaCuJPwUXmU0fylTqdDbm4uPvroI6xduxaQOr5U74nqxvHjx7FkyRJcunRJ7UVUM0rfihG3hE6nQ0ZGBn777Tekp6fTSCZRBI0yP/706dPYs2cPIiIicPr0aaxduxY5OTnVwiITFzJcGB0+fBhffPEFTp48CSjPAUFUVRhjsFgs0Ov1YrpOacS5HMZms+H8+fNIS0sDpMXoBFHd4DMObvWrFlF1IJFfCZw7dw7z5s1DamqqEHQEocbf3x/9+vXDl19+icmTJ6NZs2bQ6XRwOBzVrpHV6/XIz89HXl4eoPqiRRBVDT6VLC8vD3a7Xe1dLLKQ1+v1iIyMdDM7SF9tiepIVFQU2rRpIzZx5NbRiOoHqc1KoKCgAOfOnSvTTorE3QOfkhMdHY377rsPnTp1QpcuXdCyZUv4+flVi7nsPI1c1MTGxqJly5YICwsDSOwQ1QCDwQCXy1XmdVMaZS+K4OBgvP766/jXv/4FKHW+Ojy7BMHhQr5p06YYMWIEEhMTYbPZqA5XY0jkVyD8gfH390fDhg3h5+enDkLcxfCGkykLcLkde/lg1cjWtvwiSE5OxuTJk9G8eXMaxSeqBTqdDn5+fjAYDGqvEuGdWx8fH3Tr1g1NmzYVO0rrdDoS+kS1Qa7L4eHh8PX1FfWX6nD1pHqoh2oMYwwNGjTAuHHjkJSUJEZtCQIerN+o60d1+kzKR+udTid8fHyQlJSEoKCgIpt7EURVRa/Xi+extKKGd2JdLhfy8/PFF9vq9OwSBEer1SIvLw9///03rFYr7fFTzSGRX4EwxuB0OuHn54datWrB39+/zJ+CCe9Go9qoytNRWrFxp+EdFI1Gg/z8fJw9exZZWVkwGAzQKFMaCKKqotPpxI7TZcHlcglhtGDBAvz2229iBJ/qPFEdOXToED788EOcPHmy2rx/CM+QyK9ANMrn2vz8fFy6dAkFBQVuI0UEwZE/icr1ozqJfK2yC69Wq8WRI0cwevRo7Nu3z2O+CKKqwTunNptN7VUifDpdQUEBVq1ahS1btgh3EvpEdSQrKwt79uzB+fPngTJ81SKqHiTyKxAubI4dO4YJEybg8OHD6iAE4VVwQXP16lXs3bsXWVlZwp2m7BBVGafTicLCwjLt0CyHYYzBarUiNzfXzQShegoeQVR1/Pz8EBsbC39/f4BMaFZrSORXAjdu3MCePXuQm5sL0ANDeCnyqKWvry9iY2NhNpsBabSTIKoqfJpOacS9DK/zJpMJ3bp1Q/v27aFR5ujz6WsEUZ2oX78+Ro4ciSZNmqi9iGoGvXkrAT8/PyQlJYleMUF4G+rRyuTkZIwcORINGzYUloIIoqqjUaZYlhZer10uF4KCgjBixAj06tULkBbkEkR1wuVyITIyEvfddx/CwsLKPH2NqFqQyK8E6tWrh9dffx1JSUkAjeQTXogsZpxOJ2JjY/HYY48hMTGxzAsZCeJOwNeTlPWrEx+11+l0wuwgd1d3fu808vShqpQuourAlKmV/Cjr80BULejuVTAulwsRERHo1KkTQkND6aEhvBa+BkWr1Yr5zXa7XSw2p1FNoqpjMpnESH5pRDCv13q9HjabDX/88QdSU1NFG1/atr444c1/F+evpiT/4vzKYuqzuHBy+soS351CLtfbRc67HF9Zr+HpfLWbp3DljU6nQ2pqKr766itcunQJer1eHYSoRpSuBSJuCaZ8rmVSz5i7E4Q3wkXP2bNn8emnn+Lw4cO0IRBRLTAajbDb7eLLU2nbaR6uoKAAs2fPxrp16wBF4PN3QEnw8/kzIl9XPrc0z5Dav7g8eBKQ6t83c1cj56O64KkcZIpzl1HfIzXcrbhrcTdP998TpakHt8v58+eRkpJC1nW8ABL5FQh/GK9cuYK1a9ciPT29WplEJIiyIL/A0tPTkZKSgmPHjqmDEUSVxN/fX3yFQimFjSy4NBoNTp8+jRMnTgj/0qxFUYs7T9f15FYa5PP4dTTS3hz8f9lPjTqPnigunpsJ1jsBT5MsrEvKV2nwFIen38WFk93k/+W0ViZ2ux03btxATk6O2ouoZpDIrwTOnz+P+fPn48yZM8AdeGAJojKQX1YGg8FtAaP6xUYQVQ2HwwF/f3/4+PiovYqFKRseQpnmcM899yAmJkZMWSltvXc6naKT7HK5hBlPKOmy2+2w2Wyw2+1wOp0ijNPpFOdCEWc2m02cw8PKcbtcLnEeP5e7y+H4/zwcTxNjDA6HAw6HQ5zHw/O4OTyOqgJPD08/vz88jXK+uDvPk1xuvHx5eF7uVqsVBQUFsFqtwo/7W61WWCwWWCwW5Ofno6CgAHl5ecjOzkZBQYEIy++fXPZyGiuDxMRE9O7dG4mJiWovopqhYZVZc+5Sdu/ejTfffBPjx4/HAw88oPYmiGoPb0b4S/P8+fOYNWsWHn30UXTs2FGEKa3oIYjKZtasWfj555/xxRdfoGbNmqWur1z8ulwunD17FmazGQkJCeJcl7IOq6S4mGJjf8uWLfjtt99gt9sREhICh8OBnJwcIfqMRiM0Gg0cisCXR88NBgOsViucTicMBoMQqDqdDnq9Hnq93k3AOp1O6HQ6YebWYDAAAKxWK6DkSxa3PCzvbJjNZjDGYLfbxaJlq9WKJk2aoE+fPggMDITT6YRGGeWvCvAygdIpS0tLw7p163Dq1CnodDq3DgqkzhcftODCnn/xUXdueH6NRqOYrsX91R0iHp/VaoWvry+Cg4Oh0WiQnZ2NwMBA9O3bF23atBHXkwdRKhqXyyXWU6GErxBE1YdEfiXw999/Y+3atejevTvq1q2r9iaIao/cjHARcv36dfj5+cHPz08IJnpJEFWVzz//HGvXrsXcuXNRr169Uol8Xu+5CObhuTDj/jcT+QBw/fp1vPTSS9i+fTuaNm2KyMhIOJUF7GazWQhQp9MJm82GgoICaLVaGAwGOBwOGAwG+Pn5Qa/Xw2q1orCwEHl5eUJQ+vj4CCHPlNFsg8EAo9GIvLw80TGwWq0wGo1idNlgMIi0azQa4R8QEIDs7GxAWc/g4+ODQ4cOISAgAMuXL0fjxo3hcrmq3HMv39fFixfjo48+QkxMDMLCwtw6SFDypdVqRYdHo9HA6XTC19cXBoNB3BMuip1OJ4xGI4xGo3ADIDpZer1edBy4QQKmjNhrNBqYTCZcu3YNv//+O15//XWMGjWqSJorGt4p5fBOnHz9ykoLcfuQyK9g+AOcn58PX19ft7mQBOFN8BEy9aid3W6nek9UeebNm4fVq1dj1qxZqF+/fqmEFR+V5UKWj4KbTCbR9pe27qelpeHFF19EcnIyRo8eLUaWuSDk8FFjm80GxhhMJpMQ01yMMWUE2WazuY1cyyPCjDFotVohRnk6eX6sViuY0kHg5ziVqSoGgwEmk0l0NHQ6Hfz8/LBixQosWLAAM2fORLt27UT+b5b3yoTnjzGG999/H8ePH8ekSZMQHh5e5H5xIc7FukYZwDAajdDpdG5x8brAy0P+zcPwcuTlwd34PfXx8UFmZib+85//oH79+pgyZYpbuMoiLy8PaWlpiIqKQkBAgMgHUf2gu1bB8Ac9KCjIrVEgCG+E1+3c3FwcOnQImZmZbqOHBFFV8fX1hclkgtFoBMpQX7kwzMvLw2effYYff/wRGmlxa2lxuVzw9fVFnTp1EBISgsDAQISEhCA0NBSBgYHiCA4ORlhYGGJiYhAbG4uwsDBEREQgPDwcISEhCA4OFudFR0cjNjYWsbGxiIqKEuHCwsIQHh6O0NBQhIeHIyYmRvhHRkYiIiIC8fHxSEhIQGxsLGJiYhAdHY24uDgkJiaK6yYkJCAuLg7R0dEICAhAjRo1YDabRTtQVd91TOmA+fr6olmzZqhTp44o15CQEAQFBSEwMBC+vr4wm82i7AMCAhASEgI/Pz/4+PjAbDaLv35+fvD39xf1yGw2w9fXFz4+PjCZTOKv0WiEwWAQX1F4h4kPAgYGBsLPzw861aZspa2P5cH58+fxySefYP/+/W6dEqL6UfoWiLgldDodrFYrLly4IEY9KvNhJYjKQn4ZpKamYty4cdi5c6fwI4iqjFOZY10WmDLSDQAWiwUbNmzAoUOHAOnL1s3qPn8fyCPtsl9JB4qxc+8pnCfU4Tydoz6/pN/86wLv3FRlgahR5s7zNQkcT/mXf7ukufVq1GFvVp7cT76HhYWFcClrKeRwlVGOPA35+fk4fPgwsrKygFLUYaLqQiK/Ejh79iw+++wznDx5skgjThDeglyvXS4XLl26hOvXrwMehAFBVDUcimUTT+KtONRtOZ8fD8lOvqdwMtzP5XLBYrGgoKDAza+kA8XM9/cUzhPqcKU9p7jffHoLn6uuDlsV4IJZq9WioKAA6enp4p5B1TGRRXpeXh4KCgrEb09fadRl56k81f+r/aF0ONVpqgz4dVwuF6KjoxEYGAhQ+12tKVpLiXKnsLAQ+/btQ2ZmptqLILwSg8GA0NBQMVXH04uMIKoSXCxzgVoa5Drt4+ODxx9/HG3atAEUoVbWeu9wOGCxWNTOd5SypB9KOXIBXJYOU2Ugi1V+b1zKegY1PCyfijVjxgysXr1a5K+8ha8n8S9T3tcriTp16mDMmDFo0qQJUMnXJsoXEvmVgMlkQmhoaJE5dgThrcTExOCtt95Cu3btAHpJENUAefEpyiBuecfAbDbj5ZdfRo8ePdzMT5YWnU7ntibAG6hqz718T+WvLDcblc/Ly8PGjRuxY8eOYjsFnLLmmYfnf+WFztydVdJ0HSid04iICLRu3Rrh4eFuXxSI6kfRmk2UO/Hx8XjllVeQnJwM3EIjQBBVHblOM2Wh+YMPPoiaNWvCodj4pnpPVGVsNpsYfS8tvF7zOdV8QSUksVYWNIpFl+oK7/DIU5aqEup2im9G5akzJrdZer1eLLYt6Z7K9UE+eDye/NRoFes8d6q91CgWhPimXiXll6j6VK0n0AthjCEsLAwPPvggIiIiyvQpmCCqC/KoE4fvAslf9HfqpUUQpcGgbCZls9nUXsXCR1z1ej1cLhc2bdqEP//8U8xN9/RcFIdLsrXuCS4gZSF5M9TnyOkoLk3cnYd3Sjvq3gytYpKTi/yy5L8ykO+JVqsVpjA9laUsbjXKaL98vifkMuZ/+XmQ4uFlqr4nPLynrznqcBWFVqvFxYsX8cUXX+Dw4cM0A6GaQyK/gpF76/z/khoJgqjuaDQaXLlyBV988QX27t1bqpcjQdxpfH194VLslaOMokqj0cBms2HevHlYuXIlXNIut2WJR6/XFxFVamFe3Cgw7yCorye/dzTKSLtLGV1Wh+Uw1eZ1/LolncORRT4Pqy6Hm8VR3ni6nsvlgtFoFB00ORzPJ88//zohl7mnOHmZcT+tVotLly7h+++/x+LFi3Ho0CEw5YuP3B6qy1r+GqJR1g2UB+p74CkPAHD16lWsW7cOJ06cAFQdnltFLtuywtN6K+fe7ZDIr2B0Oh1ycnKwYcMGpKWliU+5BOHNpKenIyUlBUeOHAHK6SVBEBWJRqOBj4+P2yhqWUQFYwzp6em4fPmyW0dBFoslCRWNsplVSf48Hq1Wi/z8fGzatAkpKSk4c+aMx3cLP0en0yE7OxsHDhxAdnZ2iR1vjdJhOXnyJDIyMsRIN1OEvqdzOFw4yxSXZ09uamRxV5rwxcHTLHeOtNJuwWrxrr6WVlmroS3lglte5rt27cIrr7yCQYMG4fnnn0efPn3wzTffiDDFYbVai1hZuhVKU36e/A0GA3x8fIo9pzQUd22NtFnbzVCHu9VyuJshkV8JXLt2DStWrEBqaqraiyC8ElmMoBhb3gRRlbDb7TAajaLOQhEZ8gi2p0MWiDVr1kRSUpIYjVcLafW5ahGjjq84NBoN0tLS8MEHH2Do0KHYs2cPUMw6AK1iKnLevHn4/vvvi/h7QqfT4cCBA5g3bx7S0tLEOgH1VwY1er0eQUFBMJlMgJJOLqxLyvPtHDwOl/IVRi3Y5evL11NfWw1PO5R88Z2FS4JfR6vVYvv27Xj77bfh6+uLsWPH4oknnsDp06fxySef4MyZM8XeB61WC71eD7vdLq5XXBpl1OVS2kMdBwAEBwejVatWiI2NdfMvDnX7rr4GU75O8PzIz4WnusEPOd7iyosoGRL5lYDNZkNWVlaRT5gE4a0EBASgc+fOSEpKAqSRMIKoqjidTrc58eoRR1l0yO5cDJrNZgwfPhz9+/cHY0wsOJfrPX8O5LhlIccX/6qRr83FTlxcHGrWrImcnBzk5OSoT3ETpLNmzcKPP/6Irl27IiQkBLiJaNLr9ejYsSOOHDmCKVOmIC8vr8SvDBy73Y68vDzk5+e7uXu6Fs8/9+N5VIty9Tnq/3k8cllyNNLOwzw8F5gulwu5ublg0oZmPB7+v5w2p9OJgoICt/qhRo5r27ZtCAoKwscff4yRI0di4cKFePHFF3Ho0CHs3r1bhFfnkzEmBD6/hlxfeD55Gcn/y7/VZVES6nzHxcVhxIgRaN26tZs7R319OW2ekN2dTicsFotw488DP3h4nv7i4iRKB711K4GAgADce++9CAsLA4ppHAjCG+B1OzY2FmPGjEHbtm2pkSaqBVygymgVSydQ6rZO2ZVWPrj4NRgMaNq0KerWrQuNshhXp9PBZrPhl19+wXfffYfTp08jOztbxC3H71Lmsqun3chCTxZCAQEBaNmyJUJCQqDRaGCxWPD3338Lwc+fux07dmDGjBlo06YNOnbsCCjXys/PR2FhIRwOB9LS0pCeni7OczqdiI2NRe/evbFhwwasWbNGpKGk59lutyMrK8utYyOXGU+//BuSGNfpdOJQl7OnOOT/dTodDAYD8vLysHr1aixevBj79+9HRkYGnE5nkfLWaDTIy8sDY0x8qeB5k9MFZf8Cq9Uq0sWRy4IpHTqXsoC6c+fOeP/99xEXFwcoo+MtW7YUaz9QjBbg5e/n5yf8eZl4Kj91+dysDEuKg/uZTCZERETA399fuMlpVZ/LryWXmzpNer0eWq0WX331FZ566imMGDECq1atwsGDB5Geng673e52rnyf5GsTZUPDSnpiiduGKb3y3Nxc+Pr6is/BVGkJb4KpRr3k+s1HpKjOE1WZmTNnYsWKFViyZAnuuecetbcYXWTSaK1cp51OJ/Lz86HT6WA2m0WdP3DgAAYPHowTJ06gQYMGSExMRJMmTdCgQQMkJCQgOjoaiYmJSEtLw5AhQ9CjRw+88MIL0pWLZ9GiRRg+fDjat2+P2NhYnDhxAnXr1sWrr76KVq1aAQCGDRuGb775BqtWrUKnTp3gdDqxceNGfPXVVwgJCUFERAS2b98OrVaLIUOGoGfPnkJQZmdno1+/figsLMSXX36JhIQEN4Gqfqa///57TJ48GVOnTkWnTp3czOfydkFuJzjc3SUtWJZHcjWKWUco7YksLLkbF7Y7d+7EgAEDcO7cOdxzzz2oV68emjRpgqSkJMTHx6NGjRqIj4+Hr68v3nrrLVgsFkybNs1tAS5PI/+blZWFvn37on79+pgxYwagCH9eTjydvH5AEsI8vQDw6quvYsuWLVi9ejWSk5PFVwFen6DMxx84cCACAgLw+eefQ6/Xi6ku/Br80CidSa3ypcLlconwNputSDnyMnNJC8x53DwNOp0OV69exenTpxEbG4uoqCi4lA4oj4vHp44LSr6Z8iVLI60z0ev1KCgowOjRo7Fx40YAgL+/P6KiolCvXj0kJSWhfv36bvfJ399fxEncGiTyKxj5AYcy0iE3TgThDfAXMScnJ0e8JCIjIz0KAoKoSixevBjjx4/Hgw8+iKZNm0Kr7HTqdDphMpmQl5eHnJwcOJ1OBAcHgzEmBm24qDl//jy0Wi2io6PFqPzRo0exfv16NyEEQAjsyMhI3HPPPQgICMCmTZvw4osvYujQoW5hi2POnDkYMmQIQkJC0KdPHzDGsGLFCvTu3RuLFy9GdnY2unXrhoCAAKxZswahoaEAgGXLluGFF16A3W7HgAEDEB4eLvyXLl2KZs2aiWtMmDAB06dPx+LFi/HEE0+4TVdRv8fWrVuHYcOGoXHjxmjYsCEcDoeYeuJ0OmG1WgEAgYGB0Ol0sNvtYgTXYDAI86VBQUGwWCxi9NxkMiE/Px8Wi0WUq7+/P4xGI5xOJ/Ly8mA0GhEeHo7Tp0/jm2++EfFyjEYjQkJCEB8fj7p166JZs2b45ZdfcM8992DmzJlCsHK0Wi3sdjvOnDmDHTt2YMqUKahRowZee+01NG7cGImJiW7iHIpg5nAR7HQ6YTAY8Ndff6FPnz546KGHMG3aNFF26rbRbrdj8ODB+PXXX3H//fcjPDxcfHVhyqAhU0b7NRqNMAPKr8/LpLCwEFqtFg6HAw5lczaz2QwfHx8UFhbCpSyS5qZjCwoKYDAYYDKZkJqaijNnziAuLg6xsbHw9fWFzWZDbm4utFLnhV+Tt//8mbDZbLBarTAajWJvAcYYCgsLcfbsWdy4cUN02tQEBQWhTp06GDFiBJ5++mm1N1FGSORXArm5ubhw4QJiY2MRFBQELY3kE17O4cOH8dZbb2Hw4MHo3bu32psgqhzbt2/HhAkTkJOTA19fXyGo+GgtH8lkjMHPzw+MMRQUFIApm785nU5s27YNRqMR7dq1g7+/P3x8fHDhwgXs27eviMiXSUhIQFxcHM6fP4+33noLr7/+ujoI5Fc1f3/MmjULr7/+OoYNG4apU6fi2rVrePDBB6HX67Flyxakp6eje/fu6Nq1K2bPni3E4LFjx9CrVy+YzWasWbMGSUlJeOONNzB79mzMnz8fAwcOFNdatmwZXnnlFbz99tsYNWqUGEXmYk9m/fr16N+/PwIDA5GcnAyDwQC7sqDZaDQiOzsbFosFAQEBCA4OhtVqFdNp/P39hWD09fUV4lSv18PX1xdWqxWZmZniur6+vvD19UVhYSEKCwthMpkQHh6OzMxMbN68WXQoPBEZGYl69erh8uXLePjhhzFjxgwhRCEJ9OzsbAwZMgTffPONEKX+/v54/fXX8c4777iJfC68mTJizpSvF/wLwfDhw3Hw4EHMnTtXjOK7pNF4jt1ux3/+8x/8/vvv6Nq1KwIDA1FYWAiLxSI6RnwqGJPmrvP6ZTKZRAeMLxZ2KutNuIh3Op3QKV+ceF3Pz8+HRqNBcHAw9u3bh//+97/o1q0bunTpArPZLMLwc7VK51an08HHx0c8Gz4+PqIjwu+7VquFj48P8vPzsWjRImzZskXkF4r52pCQEISHhyMhIQEtWrRA79690bhxY7BK3O3XGyGRXwn8+eef+Pzzz/Hiiy+iXbt2VGkJr+fQoUN46qmn8Nprr+HFF18UL09vrPf0PHsH+fn5SE9PF0JNFrJcSKkHaCwWCzQaDYKCgpCZmYlBgwYhIiICM2bMQFhYGEwmE7Zt24aBAwfi2rVrgDKCHxwcjJo1a6J58+Zo2LAhWrRoAcYYRo0ahbZt2+Ldd98tUqf4M8SkxbxTp07FxIkTMWfOHDzzzDPIyMjAI488gsLCQmzatAknTpxAr1690K9fP0ydOlWcd+TIEfTp0weNGjVCSkoKjEYjpk2bhgkTJmDq1KnimdVoNFi/fj0GDRqEf//735gyZQo0iq19jYe52j/88ANGjRqFN998E4899pjoGPFy5MKdj867XC6xCFOvbCAmSxIeP78HVqsVer1eiEs+NQXKNBM/Pz8cPXoUTz/9NE6dOgUoojw8PBz16tVDq1atUK9ePSQmJqJGjRqYO3cubty4genTp8Pf31/kmaeZj6qnpKSINAHA+PHjMWnSJDc3SFN2oPrSsXjxYnz11VcYO3YsunbtKsI6HA5opfnnUKbrPP/88/Dx8cG8efPcOgw8bXK5cz+Ouo7eCocOHcIHH3yAwYMH48EHH1R73xYjR47EjBkzEB8fjzp16qBJkyZo0aIFkpKSEBkZiaioKPj5+QFKx8VTPSNKD80ZqQQcDgdSU1OLLOoiCG/FaDSiRo0aCAwMBFQCxdtQv2SJ6odLsY7DTWDWqVMH9erVQ506dVC7dm3UqVNH/F+rVi1xJCcno379+oiJiUGDBg3w0ksv4fnnn0dSUhKCg4NhNpvRuHFj/Otf/0KXLl3w1ltvYcmSJVizZg2+/vprfPLJJxg8eDCaNWuGOnXqIDw83K0+qesWF5Dyb8YYLBYLoITX6XRilJjDOy7yb5vNJkZ5OXyEFlKH3OVywWAwICAgQLgVJ7wMBgNCQ0NRt25dhIaGIjIyEtHR0YiMjER4eDiio6MRHx+PmJgYhIaGIjw8HPHx8UhISEBMTAyio6MRExMjjujoaERFRSEiIgJRUVGoUaMGYmNjERcXh+joaISHhyMqKgpRUVEIDw+H2WxG7dq18fDDD+PBBx/E66+/joULF2L16tX48ssvMXnyZDz77LO4//77Ubt2bYSFhYlRbg4X00xZTN2hQwe3kfbo6Gh06NBB/FYjC3EA+O9//4s1a9ZgxIgRQuBfv37do0UkSOIf0lx93mHQSIu/efnzTgI/1PekJNT1i5OUlIRRo0ahefPmIlxJ8HiYBwtHMowxPP7441i0aBFWrlyJ1atX49NPP0X//v3Rrl071K5d203g83Nudn2ieEjkVwJ8FEG2HUwQ3kx0dDRGjhyJdu3aAR7ECUFUJbgw4yPNfA7zzQ4usrlYHjhwIP71r3/BbreLOCIiIvD+++9jxYoVeO+99/Doo4+iZcuWiIqKglYy7ehwOGBUNpLyJGpkscP/8umf/PniAlCr2FqPjIyEn58frl27JjoCUKZ0mM1mWK1WIXC1Wq2Yoy2Tm5sLjUaD2rVrA1LHwtN7jDEGq9WK3NxcEZaHVwtBtRtTprt4Kl9+TnHncT+HwyHs0q9cuRIffvgh+vbti9atWyM6OlqkiWOz2dxGvnl8UO4HALRp0wY1atQQ59SuXRv16tUTv2X4uVyA79ixA+PHj4fT6YRer8f27duRkpKCjz/+GGfPnoXBYBCdKo5G+VLC8w9pcaw63+oykM9TlyN3k/9Xx8vL0GQyoVmzZggPD4ddWVPBw/H/5YPn2yUt8pXTxJ8pl8uFe++9FwMHDkTbtm2FOVceDz/XJS3A5vBrEGWDRH4lEBMTg6FDh6Jhw4ZUUQmvRK7XjDEEBwfjgQceQK1atcRiOoKoynBxzA8u1ORRVDVM2uRHo4yycqHNR2H1er0YbTYajcUKJI0yelzctXhaZPgCx8LCQkCZz83nb+fl5SE+Ph7x8fE4deoUMjMzxXlc3BcWFgqRX1hY6HEe+7FjxxAYGIi6desKN55WDv/fYDCASSPRTGVRxxNcEKKEe6BGPkc+V6eY0YyIiEBoaCiMRiOY1KmQhST/61CswHD4//z+8S82nAYNGhS7SRRPl16vx6FDh/DGG2/g8OHD2Lp1K5566il069YNzz77LE6cOCFMasvlKMOn6XB43MUdcn3VSHVWXZdlf+6njker1cJms7l1gm52QDVVSE67Ohz35/eFh1XnhaeRuHWo9CoYl8sFHx8fNGrUCKGhoaLxIwhvQm68NcqoaF5eHiwWi5hr6814e/68HVlQFCcyuYiUDx5Op9PB4XBg06ZN2Lt3LzSSYFeLMXXcPH6NRgODwVDs88LFDw+bkZGB7du3w263Y9u2bcjJycGJEydw+fJlnD59Ghs3boSPjw969OiBtLQ0HD58WMT1xx9/4OTJkzhy5AgOHDiAnJwc7Nu3Dzk5OTh8+LAY9b9y5Qq2bNkipi7xa/P0cHGmzgP/ai0LNDm/6vyrf8uH+lwenp/D/8rXkSkufijpM5lMQtDLfrxDEBoaiiZNmoj4kpOTRf7U8GtBMbtZs2ZNPP300xgwYAC6d++Onj17YtCgQRg6dCji4uLg9LAYm5erXA94fks61PnzlG9Pv9WHTjGhOXv2bOzZs0fUc54W9TX4IfvJaZbP10rPgxxezoN8LR5G7UaUHhL5FYxGETyFhYWw2WxuFZwgvJVLly5hypQp2L17t2jo5ReAN6GlkaabUp5tnlo0q1H7eQpTWtQixhNMEd9OpxPLli3DmjVr4FQWDKpH6tXiRe3GPIzkq6/Nf1ssFrRr1w5DhgxBu3btYLFYEBISgpdffhnDhw9HVFQUAKB///5o3LgxVq9eLcR7eHg4hgwZgn79+kGv1yM3NxdNmzbFoEGDcM8994jR/V9++QU5OTl46qmnEBQUBKjEvRqHsmkUH8xSp90TpQkDD+Unw91LCuMJbrlHfoY91RvewQkNDUXjxo2Fu4x8nsvlQrt27bBkyRIsWbIEc+bMwdKlS5GSkoI5c+aga9eubl+A1GgU05g8XbyO3Yyy5l8NP/fGjRvYsGEDzp496+Zf3H2H6j6q06CROj88jXJa1eGJ8oPeThWMRqPB9evXsWLFCpw8eRJGo5EqNOH13LhxA2vXrsXJkyfVXoSXU5IQKA9KI2TkNNws7O0gX8fpdOLatWu4fPlyseKtJJzSYlhP8HxzERkVFYUXX3wRM2bMwPDhwxEaGor69etj9OjR+OSTT9CzZ08wxpCQkIBRo0bhzJkz+Pzzz2GxWPDII49g2rRp+OCDD9ChQwdERUXh9ddfx6xZs/Dss88iICAAP//8M7744gs89dRTePLJJwFpYzt55FXGpez2yjsTnIquE6VFnV5ux52P5HO4qObprlOnDoKDg1GjRg00bNgQUNnEl+FrMYxGI8xmM0wmkzAlydc8yOnwVDYaZerXnUKjfJHx8fFRexHVDBL5lUBubi5++OEHnDhxQu1FEF6JRtka/U6+qIjKRz0KykoY9S0Jfp76kP058rxe7q4Wc8XFc7vI19HpdGjQoAHuueceaKXFsOq0FIf8xdcTXHTy9OsUO+d6vV6M+uoUs5JchPMR9c6dO2Po0KHYs2cP9u7dC62yyJaLTp1OB39/f5jNZhgVe/a//fYb7r//frz66qtiOhLvaBSXJ51iM51boylrGVQ2njoqHNmd75KbkJCA8PDwIv4cplg30ikWjvgCbH7f+GJXHk7uSKgpzr0yCAkJwSOPPCJ2fr6TaSFuDxL5lQB/uGUzXQThzURGRmLAgAFo1KgRQC+Juw6mWuxY3Oh0SfDzXIqFDo0y/eXKlStioakcRj6YspHV5cuXxSY/PB4ussoLLuiNRiNee+01DBo0CDpl0aQnIVgSXPwVB88fF9o8P/JaL7uyiyy/Pv+/d+/emDBhAuLj4wHpHvFpI3yhJZRpLP/+978xadIkBAQEFFmcKiOXpVq0FndOVYHvJKtOJy9fnpegoCB07twZnTp1EhaQ1OdwNy7e4cEkKe988Xhlfxl+P8qznpYWp2IR6vnnn0ejRo1oHWE1p2jtIsqd0NBQPProo6JXTBDeTlRUFF5++WU0b95cfNZm5TyKSlRN5Htc3P83g4ssfnB27NiB7777Dnl5eUKEyeHUAnP37t1Yvnw5cnNz3cRXecEFMr9ujRo1xIJKjWpO/s3QKDufyiYs5Ty5lI6Sep62uoz4SDIPq9Vq4XQ6odVq0bhxY9SsWdOto6NRxKde2UXV5XLB19cXderUETvPqq9RHPwrAu8slPa8ykSdHt5p4v97KtfAwEAMGTIETz/9NFBMXeblyP/nAl7+WsDj5PeIu8tto0Yy5yr7VxY8H0ajsUiHU112VQF12ajbHLX/rVAecdwpSORXMIwxBAYG4plnnkGjRo3KfRSJIKoiGo0Gvr6+MBgM4oVF3D1wcSOLhLIKBDm8Xq/Hn3/+idmzZ8PHxwdhYWFgkqUa/r88TcRgMKBhw4bYsWMHpk+fjoKCgmJHTm8VWQhCWYuSmZlZRByVlpLSx8UXF438f17OPC3qg8cpv3d4HHL6eVj1ffIkVtXwuHn58459VScwMLBYSzkyWq0W9evXR1xcnJh+U1xZlBVP8agtLHkKU1FotVpYrVb88ccfSE1NhV7ZYbiqoi4bjTStTa7fpYGfp85vWeKoanhuTYhyg1cWHx+fIpuMEIS3YrVasXfvXqSmpoqFZuqGk/A+NNJoJseTcCwtXLxnZmbi888/h8PhwD//+U+3kWouTjk6ZV66y+VCvXr18K9//QtffvklFi1a5HZOeaBVpurwvwsXLsSaNWtEOZRFZGgVc45cKKuR4/QEv5b6gIc8q8PIYeX/Pf1Woz4Xktiv6s+8Tqdz2xBMnReNqt3iI/1MsrlfHqjLV93ZU6ejosnKysKqVauwf/9+wEP6qjK8nHiay1Ju8v0vy3lVGRL5FYxWGUE5dOgQ0tPTb+uFRxBVGblRTE9PxxdffIHdu3cD0sYyhHfClHVHUO79smXLMHXqVGzatAl5eXlFhH9p4W3lzz//jK1bt+LRRx9FZGQkoIyaf/fdd5g3bx62bduGVatW4c0338SqVatQUFAgzu3evTsSEhKwePFinDt3zi3+24VJo4UOhwN79uzB7t27xTz4sqIWd6hmAkujmH40m82ANMWoqmK1WpGZmem266+6vLnA5h1OjfR1pDzh1+Uj5/KcfF7PKovc3FwcPnwYWVlZaq8qC+94qctKduf/qw91PPyeq/2qI+VbSwmPXL9+HfPnz8eff/6p9iIIryQ/Px/Hjh1Dfn6+m3tlvqiIyoG/DHU6HS5duoTJkycjJSUFW7ZswfDhw7Fu3Tr1KaVGq1iI2bx5M4KCgtC+fXvhl5GRgdmzZ+Oll17CO++8g127dmHjxo1444038PPPP4u65u/vjx49euD8+fPYuXOnFPvtIwsKrVYrbMnb7XbhXlqxzxiD1Wr1uOtsdYExBovF4mYhqLT5ryxk8ebj4wOLxXJToxiy+C/uS0t5wRdOW63WOzbtSafTISYmBiEhIWqvW4ILbDWe3G4FWcDzOK9cuYLz58+Le80XqcvhmdJxu3LlCk6dOiWeWzme8krjnULDqnsOqgFHjx7Fq6++iqFDh+Lxxx9XexOE13H27FkMHz4c/fr1w1NPPQXcgdEoomLh95O/OHU6Hb788kuMGzcOU6dORZcuXfD++++jadOmGDx4sPr0UnPjxg307dsXRqMRK1asQFBQEBhjKCwsxPjx4/Hpp5/ijTfewMSJE/HDDz/gueeew+DBgzF79mzxBel///sfBg0ahL59++Kjjz4qty9LshjQaDT49ddf4XA48OCDD8JoNIoFuPwoCavVihdffBGHDx/GwIEDERgYCKfTCavV6jay6HQ6YbFYwBiD2WwW8fJFshaLBQ6HAw6HQ+w+a7fb3UYl+ZxvLsb9/PzEqKbdbofT6YSvry80Go2Ij9uUlwUVv/92ux0GgwE7d+7Er7/+ilmzZqFv375lyn9lwdOu0+mwYsUKvPvuu3jkkUdQu3ZtIfKsVitcLpdYjGwwGOBUrBg5lcXW3M9ms8HhcIhw/Lfdbhej/fwe8i88ZrMZLpcLPj4+4t7ydF29ehUrVqzAY489hoULF0KnmOMsrzpbGgoKCpCamoqIiAiEhoYKMXw7yM8J/1/9TriVOiLHBaVDdujQISxfvhwPPfQQHnzwQVG+cr3l19LpdDh79iyWLVuGZs2a4bHHHgNTvkx6w8wLEvmVwPnz5zFx4kT069cPDz30kNqbILyO/Px8HDlyBLGxsYiPj3dr4AnvgL+guXjUarVISUnBv//9bzzxxBOYNGmS2HXVz8/vloXe8ePH0adPHzRq1AiLFi2Cr68vXMo8+A8++AAffvghli1bhkcffRRHjx7FAw88gH/84x9YtmyZWAe1Z88e9OvXD61bt8aSJUvKbZMfLhogLfaFMhrLp11wgVSavM+ePRsfffQRGGPw9/eHRhHRTJm+wReJciFuNpuFf0hICCwWCywWC3x9fWG1WpGdnQ1I6xSgCDidYkXHbrfD398fQUFBKCwshMPhgFaxjsMUc55cEPNOS0FBAaCMgvv6+oqOiE6Z316/fn1MnjwZbdq0EYIKVejZl+/J7t27MWLECFy4cEHs62EymYRodzqdKCwsFOVnMBigVRamMsZgMplgMBjEYlz+THCRyOPx9/cXHQCXYojA4XCIjbgMBoNYR5KdnQ2TyYRhw4bh2WefdUtvZSA/z1Dqmq4cpifJ4po/v+UBU94tvFN76dIlDB06FJGRkfj4448RHBysPkUgp2PZsmVYsGABxowZg549e8IlTf0pr7TeCUjkVwJWqxXHjh1DdHQ0IiMjq3WFIYji4A2iGi5CtIqFDsI74PfbKY3kX7t2DW+++SaWLVuG2rVr44033sCgQYPg6+urPl28nIuD16U///wTvXr1wj/+8Q8sWrRIjGi6XC6MGzcOs2bNwooVK/Dwww/j6NGj6NGjB9q2bYtly5YJMb979248/fTTuO+++7Bo0aJym3IhCzuHw4GsrCwYDAYEBAS4iZmbdXB4Wdy4cQPnzp1DQUGB2OCKC0iXYoufw8W3QzG1aDabhTgPCAiA0+lERkYGbDYbfH19hYjMy8tzE6N+fn7iXD5i73Q6kZ+fD61iSpGPWhcWFsJqtUKvbMBlMpngUr4A8DINCQlBQkICfHx84FRMd5aU98qGl6VG+ZLx999/48aNG3A4HGJ3Wi5smdK50mq14quIRqMRHSIfHx+YzWYwxsR94uc5pJ1veQeC1xf+ZYV3GriQ5OeZTCaEhYW52eSvzLYzPz8fBw8eRHx8PGrUqFFuopznn8dVWFgIrbLgnPvjNjqEBQUFmDJlCn777TcsWLAAycnJcCmdWZvNBn9/fxQUFODq1auIjIyEv7+/+AqVnZ2N//znP7BYLFi8eDHCw8PFs1XV6nBZIJFfwci9Vyi9Yj7aQxDehNxA22w27NmzB5GRkahXr56bECS8Ay4UucjjbdylS5cwZ84cfP755wCAKVOmYNiwYUVEAn/hQ3qpu6QpJfzlevLkSfTq1QvNmzfH0qVL3erQmDFj8MUXX2DNmjXo0aMHDh48iIcffhgdO3bEkiVLxALQzZs3Y+DAgejfvz8++ugjcf7twkf7uBifPn06tFotXnnlFbfpOqURCbw8vQWed/n9VxWQ6526TlY17lRaz507h7fffhtPPfUU/vWvf9123eR54J0Fi8WC//3vf/jpp59gs9lQs2ZNPPXUU6hTp06ZOxRy+E2bNuGFF17AwIEDMWHCBADAqVOnsGzZMqSmpqJ+/fq4dOkSdu3ahdatW+PNN99E7dq1RRzffPMNhg8fjnHjxuGll14q0j5VR0pfksQtoVU2Irl48SJycnLEJ1yC8DbkhvDSpUuYMGECfv31V+A2zSgSVRN+P7mI1el0WL9+PU6fPo0PPvgAa9euRUREBL799ltkZGQAkmjhh1ayv65R2XTnHcOYmBhER0fjwoULyM3NdUuD0Wh0E5HcBCWfXsG5du0aCgoKkJiYCJTiK0JpkUWs0+nEgQMH8PvvvwvrPhppvvXN8LbnQ763VQleX8siJO8UdyqtDocDGRkZwnDC7d5Dfj7voK9cuRKjR48Wz+unn36KTZs2AVJnprhnpjh3KF/s8vLy0K5dO+HGGMO2bduwbNkyLFmyBMHBwUhISMDChQuxYsUKQLpmgwYNYDQasWHDBuTk5Ijnl8dTHancmnOXkpmZiTlz5uDPP/90eyERhLdisVhw9epVWCwWtRfhhfCX5K5duzBmzBjs2bNH7P4aExMjps3w9o+PnLlcLvz1119YtWoVfv75Z6SlpQlhw6c3BAQEoHPnzjh//jwOHTokrpmeno5Dhw4hLy8PO3bsAAAcOXIEly5dwpEjR/D333+LsLt27UJQUBCaNGkClOMLWxbwTLGO44m7sc2/G/PsLTDVou7yxOFwYOvWrTh//jwefvhhTJs2Da+88grCw8MBaSO14q6tdudtj9PpRGpqKkJCQlC7dm1AyUfdunVx7733AgD69++P999/H5988glq1KiBHTt2iAEIAIiNjUXdunVx8uRJpKWliTjYbX7JuJOQyK8EcnNzsX//fty4cUPtRRBeARc6vCE0Go3w8/Mr1W6SRPWH3/8WLVpAr9fjk08+wfjx41G3bl28/vrrCAwMdAvL55LPmTMH/fv3x3PPPYcnn3wSo0aNwvHjx8WLm0/fefrpp5GYmIhVq1YJt9zcXMTFxaF169aw2WzIyMhATk4OOnbsiKSkJFy9ehUAcODAAXz//ffo1q0bmjdvLtJRXsijrM2bN8e9994rpgnBgyghiKpOREQEnn32WTRq1Agoh06x3BnW6XRo2rQpXC4X3njjDaxYsQKDBw/Go48+CqYyg1kSPE4eNj8/H+np6dBLuwXzKWPh4eEICgpCy5YtAWXdSFRUFPLy8mCXzKf6+voiMDAQWVlZbuafS5Oeqopu4sSJE9WORPly/fp1/Pzzz2jWrBkaNGig9iYIr0AWM1qtFv7+/mjWrBni4+Pd5ucS3gefk1+7dm089NBDaNCgARo2bIh+/fohOTnZbTSM14G1a9di7ty5aN68Obp27YorV65g06ZNCAkJwf333+9WV0JDQxEcHIy1a9fCYDCgUaNGCAgIwL333otevXqhY8eOCAwMRN26dfH444/j4YcfRmJiIq5du4bx48fDaDRi8uTJiImJEaYNy6MuapTP+Q7FikqzZs3QunVrYWqSX6c8rkUQlYHD4YDZbEaDBg0QFhbmZgq0POqxVqvFPffcA5vNhrVr12LdunW4du0aWrZsidDQUHENeZ0Phz9v/OBhNIqp1//+97+4cuUKevXqhaioKOG3a9cu7Ny5E4899hjq1asHu92OlStXwul0om/fvggICBDxf//990hLS8Nzzz2HiIgI4a5OS3WBRvIrgfDwcDz99NNITk4GqnmvkCBKQ2BgIAYNGoS2bdsKqxOE96JV5tGbzWbUqlULHTt2RPfu3REbGyvC8Bc0lFG3Xbt24bHHHsP8+fPxwQcfYPny5WjWrBk2bdqE9PR0Ed6pWGd6/PHH8fzzz+OXX37B7t27YTQaERoaivj4eERGRsJkMiEoKAiRkZHiBf/ll1/C6XRi6tSpqFevnpvwLg+42IAiSoKDgxEYGOjmThDVCZ1iOjQ/P19YFuLcap3mzxtTNkuzWCwYPXo0vvrqKzRv3hxff/01Zs6cWWTRLRfyTJouo5EsEcltir+/P+Lj41FYWCjMvHJ8fX2h0+nE9FFuspSvAeI4FXOw0dHRCAsLAzx8MahukMivYFwuF4KCgvDMM8+gYcOGHnunBFHdUddprVaLgoIC0ajKDSnhXfBRrpLusfyS57+ffPJJDBo0SJzXokULtGrVCnZlx08eTqvVwq5sUjRw4ECMGDECMTExYNLiXA53cylm8zp37oypU6eiRYsWcCo7Xpa3yNdoNEIw/Pjjj/jxxx/BGBMmK6urOCDuTjQaDa5fv44pU6Zg27ZtRawB3mp91ioLiC0WC6ZPn46NGzeiX79+WLFiBZKSknDw4EHk5eWJ8LKA1yrrdzIyMpCeng67sg8Fb3uYMgWwefPmsNvtSE1NFXFAWSOWlZWFzMxMQDHdyQef5PxcuHABp06dQmJiotsUQ3h4x1UXim+ViXLDoexCyF9Ut/qQEER1ITMzEzNmzMCmTZvKzSY5Ub2RX8i+vr5o1aoVIiMjYVN2Xc3NzUVqairi4uLEBjZMGXnnGw5Bmfdeq1YtIaDl9pTH71R2bG3fvj0SExPFPH6+mLe80Sh28pcvX46FCxciJyfHzY8gqhOFhYXYsWMHTp06BSgimz+/t1ufjUYjzp8/jw8//BDffvst9u/fD6PRiLZt2wphzZ9jl7IXxPXr1/HZZ5+hV69e6NOnDxYvXiz2cYDU8Wjfvj2io6OFpR4o5kC3bt0Ki8WCnTt3Ii8vD5s3b8bhw4dx6tQp7N69W4Q9dOgQMjMz0bVrV7Gu5nbze6chkV/BaLVa5ObmYuHChdi/f3+5PCQEUdW5fv06/vvf/+L48eOA9JIg7l74i5jXA6fT6bZvyKZNm3D69Gn07NkT/v7+4tM9n67DR/P4oVFMbsr1Sr4GFwn8fI1i5pL/Lg/kazscDuTn5yMnJ0d0SMrrOgRRmainyJQH/FkwGo147LHH0KpVK6xfvx5r165F37598dJLLwEq6zoGgwEXL17E+++/j9WrVyM8PBwXLlzAO++8gzVr1og08rjr1auH3r17Y+vWrdi2bZuIr0OHDhgxYgSaNm2KvLw8+Pn5YdiwYXjppZfg5+cHKIMMq1evRseOHdGnTx+gmHUB1Q3aDKsSuHDhAoYMGYL+/fujX79+am+C8DqOHz+OJ598Ev3798eoUaPAJLvoxN1JcQLcaDTi0qVL6NevH2JiYjBv3jwEBQWVuECWx6EeNOHxqt01itlO+beneMsKj1OrbIY1bNgwMMbw6aefws/Pr9ynBxFEZXD16lUsW7YM7du3R8eOHctF8MtSkyk7CWdlZcFmsyEuLk58ZZOfU51Oh02bNmH79u145JFH0Lx5c/z0008YOHAgunTpgiVLlsDX11d0SnQ6HTIyMvDaa68hKysL06dPR926deFUDD/wd5D6XWS32/HFF1/g22+/xSeffIIOHTq4pRfVeESf3riVgFax+VxdKwlBlJWgoCB06NABCQkJgCTKiLsb3tnjo/FGoxG5ubmYOnUqQkNDMXHiRAQFBQHKC16rzONVH5pidpHVSBtqcSHPw6jPLw9458GlTCv4z3/+g6FDh8JsNlN9J6olDocDISEhePXVV9GuXbty+/IlP49arRY+Pj6Ijo5GjRo1oFM2yZKfVyhpadasGUaOHCnM3zZp0kTswSGbqoXS6Q4PD8d7772HxMREfPPNNygoKBBtAtdhssAHgIMHD+LEiRMYNWoUOnToAKjSW17txZ2ARvIrgevXr2PmzJm477770KVLF7U3QXgF8miP0+nElStX4Ofnh6CgIDGiqW5cibsH+VXDRbHdbsenn36Kffv24cMPP0RSUhIA4MaNGwgICHCzeV0V4R0Wnje+/oQv6ivvTgVBVDR81Ju31Xa7XYjkioYPAkDqQKtF+dy5czF37lx8/PHHeOihh8T0Hv7+4c9bRkYG0tLSULt2bZhMJjBlpF+Oi8d/5coV5OTkoG7dutBKlnu8ARL5FQxjDHa7HZmZmfD394fZbK6Uh4UgKpviGkZ5jiXV/bsbdR2ZO3cu3n//fTz33HMYMGAAtFottm7diqtXr+KVV14RC3CrKvJ6AcYY0tPT4XK5EBUVJdyr+0ggcfeRk5ODLVu2oGbNmmjatGmR57aiUIt8+e+JEycwb948LFy4EKGhoUhJSUHHjh3dpuLwsC6Xy63DzcW8WuQzaXEvPHRwvAHvyUkVhfceo6KixBxN6lcR3oj8ErDb7dixYweOHDlSpGEl7l7kOrJ582a89957uHTpEubPn4+ePXuiR48eGD58OAoKCqq8wIeUH60yFWD+/Pn45JNPUFBQAL1eT209US3JysrCkiVLsGPHDqAS56Pz63Dxzf9CsZJz4sQJhIWF4cKFC5gxYwYyMjLEFBy5M61RvgJw/SV3ttUdCY2yIB/SlD5vwrtyUwXRKguydu7cidTUVBgMhkp7YAjiTsGnqG3evBmgUXxCNV0HypSc5ORkdOnSBQ0bNkRUVBRq1KiBgQMHYtCgQR7PqWpwcQ+lY3vs2DHs378fVqtVhJGn8xBEdUCj0bjtc1KZcCEui3yHw4H7778fK1aswLfffovOnTtj06ZNOHDggNt5/D2jFvY6nc5jZwAqYe+N2ozeupVAQUEBli5dij179qi9CMIrUIsYh8OBy5cvIysry82dIKAI3+7du2P58uVYunQpli1bhq+++gorV67EZ599hqSkJPGJvSrjUhbdQlkobDabUVhYKES+WlConxOCqIro9XpERkbC398fuEP1lgt2LtZ9fHwQFBSEFi1a4OWXX4Zer8eVK1eAUqRP/RyqKcmvukMivxJgjOHSpUskeAivRd1Imkwm+Pj4CAGEUjTEhHejriP+/v6IiYlBQkICEhISULt2bURFRcHHxwdQzc+tqqhHBDt06IDOnTvDZDIJdzkP6jIgiKpIYGAghgwZggceeAC4g223w+Fw+1rGCQwMREREBGJjY4E7mL7qAIn8SkCn08HPz48aeOKuwc/PD4MHD8ZDDz0EpuxAShCQXsguxU4+/8v/55Zpqgu8XXe5XHjqqacwduxYhISEwG63u3VyCaI6wJQdqTt06IBatWqJjd0qCz7qzo/Tp0/j119/xZkzZwBlN/X169ejefPmaNasGSANCFSndqOyIOs6lYDFYsHmzZsRHx+PJk2aqL0JwqvhozE3+2RKeD/8daOR9k1wKTvbegqndq9qcGHB88PTy1SbcvF6z8MSRFVGXa8rs+3mzw4fvV++fDnGjh2L6Oho9OjRAxaLBYWFhRg0aBBatGjhtmgW9LWsCCTyKxg+kiO/3Kr6i4sgCIIgCKKy4QtuoQj3U6dOYdWqVUhNTUVSUhIaNGiA1q1bIyYmRnxlkBfPEu6QyK9g5NEc3jumykgQBEEQBOEO10mQNs3TaDSw2+0wGAwinMPhcPsiqFGs6BDukMivYPinJ7mygj4pEQRBEARBuKGWpPLAKNdT8sApny1Bo/meIZFfwfBKKH9+qsz5bQRBEARBENUBeWSeayd5xF4W8rLAJ03lGRL5BEEQBEEQRJWDi3xPbnKHgPAMiXyCIAiCIAiC8DJoAhNBEARBEARBeBkk8gmCIAiCIAjCyyCRTxAEQRAEQRBeBol8giAIgiAIgvAySOQTBEEQBEEQhJdBIp8gCIIgCIIgvAwS+QRBEARBEAThZZDIJwiCIAiCIAgvg0Q+QRAEQRAEQXgZJPIJgiAIgiAIwssgkU8QBEEQBEEQXgaJfIIgCIIgCILwMkjkEwRBEARBEISXQSKfIAiCIAiCILwMEvkEQRAEQRAE4WWQyCcIgiAIgiAIL4NEPkEQBEEQBEF4GSTyCYIgCIIgCMLLIJFPEARBEARBEF4GiXyCIAiCIAiC8DJI5BMEQRAEQRCEl0EinyAIgiAIgiC8DBL5BEEQBEEQBOFlkMgnCIIgCIIgCC+DRD5BEARBEARBeBkk8gmCIAiCIAjCyyCRTxAEQRAEQRBeBol8giAIgiAIgvAySOQTBEEQBEEQhJdBIp/wWgoLC+F0OtXOdwXff/89/vnPf+L69etqryLY7XZYLBa1M1FKCgsLMW7cOHTp0gWPPPIITpw4oQ7iNZw5cwY9e/bEtm3b1F6VSlnqN1ExLFy4EA8//DC6dOmCH374Qe1NEEQVgEQ+Ue1gjOHJJ5/E/fffX+SYPn06AODixYsICgpC9+7d1aeXOz///DPatWuH4cOHq73uGH/99Rc2bNiAzMxMtVcRmjRpgsjISBL6t8jrr7+OyZMnIyoqCv7+/jh37pw6iBvZ2dkYMmQImjRpguPHj6u9i+X8+fN46KGHRF1/6KGH0K9fP0ybNg2XL19WB/eI3W7H7Nmzcf/99yMuLg4NGjTAv//9b1y8eFEd1CNpaWn46aefcPLkSbVXpVKa+q1uJ7p27YrevXtj/PjxOHDggDo4+vTpg3/+859qZwDAkiVL0LJlS/z4449qLwBA7969MWjQIOzatatIm6Q+OnfuXOr7VVVZuXIl/vOf/yA3Nxd16tTBkSNH1EEIgqgCkMgnqh35+flYs2YNzpw5g+DgYLfD19cXAGA2m5GcnIz69eurTy83MjIy8Mwzz6BHjx7YvXt3mQRbVSI5ORmNGjWCXq8XbgMGDMBrr73mFq68+eyzz/CPf/wDLpdL7VVtYIxhxYoV6NGjB77++mt8/fXXJXYsv/vuOyQnJ2POnDn466+/kJWVpQ5SLIcPH8avv/6KgoICREdHw9fXF0ePHsWIESNQu3ZtzJgxQ31KEcaMGYMRI0YgLi4OL7zwApKSkrBo0SJ07twZBQUF6uDVGt5OnD9/HtHR0QgJCcGVK1fw0UcfoXnz5njuuedgtVpFeJPJhA0bNuDUqVNu8QBASkoK9u/fj6+++krthYsXL+Lbb7+FTqeDwWBwa48yMzOxdetW2O12N3edTqeOBgCwdetWtGvXDn/99Zfaq0qRkpKCoKAgbNq0CfPnz8eYMWPUQQiCqAowgqhm5ObmMgCsf//+aq9Kw+l0ssjISNawYUO2efNmZjKZWLdu3dTB7hjvvfceA8BOnTql9ioVSUlJ7N5771U7lyvPP/88A8Dsdrvaq9rA6+Irr7yi9irCF198wfR6PXvjjTfY2LFjGQC2c+dOdbBiWbduHQPAFixY4OZ+6NAh1rBhQwaALV261M1PzY8//sj+/vtvN7ennnqKAWDr1693c/fE77//7jENlU1p6ndx7cS1a9fYE088wQCw5557TrinpKQwAGzWrFlu4S0WC/Px8WEAWEREBHO5XG7+S5YsYQDYt99+6+bOlHsOgP36669qL48sX768TOHvFC1btmSNGjVSOxMEUcWgkXzCa1m6dCl27Njh5uZyufDDDz9g0qRJmDx5MpYuXYqlS5di+fLlsNvtbmFLQqPRYMqUKThw4AA6d+6s9r4p586dw+zZszFq1ChMmjQJW7duVQfBL7/8gl9//RU2mw2zZ8/GuHHjcObMGeF/7do1zJkzB2PHjsWcOXNw9epVt/M5R48exbvvvosJEybgzz//VHvj119/xZo1awAAFy5cwNKlS5Gbm4tr166J8klLS3M7Z+fOnXjvvfcwZswYpKSkuI2IymzevBmTJk3CpEmTsGnTJgCAxWLBl19+KUZMly1bhqVLl4q0Xb16FXPnzsWlS5fc4rp27Rrmzp2Lv//+W7gdPnwYS5cuBZR52qNHj8Zvv/0m/J1OJ7777ju8/fbbGD9+PH799VfhdzMuXbqEWbNmYdSoUZg8eXKRurR3714sW7YMAHDixAksXboUP/30k1sYmSZNmuDgwYP49NNPERAQoPa+ZRo3boxffvkFgYGBGDNmDGw2mzqIoEePHoiPj3dza9OmDaB8mbodSqoTW7duxaJFi+BwONzOgfJ1Y8OGDW5uJcV1u0RERGDVqlVo06YNli5dikOHDgEAunfvDq1WW6SO7Ny5ExaLBd27d0d6enqRZ2jTpk0wGAx44IEH3NzLyvfff4/ff/8dUJ59dX1asmQJjh49iqtXr+K9997DBx98IL6+ZGVlISUlBW+//TbGjh2LNWvWFGnP5GflyJEjJbYJdrsdK1euxLhx4/Dhhx+KLwsXL17E0qVLce3aNWRnZ4u2U177dODAAXz00Ud466238Nlnn7m1WZyS8sLbPQBYv349xo4di1mzZiE7OxsAYLVasWTJEowePRpff/01GGNucRMEIaFW/QRR1SluhE6NTqdzC2OxWFiHDh2YyWRi9913H6tVqxYDwIxGIwsNDWWXLl1yO78slGUk/7PPPmMajYaFh4ezFi1asJCQEAaATZ482S1c165dWefOnVmPHj0YAKbRaNjnn3/OGGNs48aNzN/fn+l0Ola7dm1mMplYQEAAO3z4MGPSSOewYcOYXq9nsbGxTKfTMYPBwFavXl3kOnFxcYwpo5kmk4lpNBqm0WiYyWRiJpOJ/fDDD4wxxlwuFxs8eDADwJKTk1n79u2Z0WhkycnJ7MqVKyJOm83GHn74YQaAhYeHs5iYGAaADR48mJ0/f56ZzWam0+kYAHGNkSNHMiaNWH/99dciPsYY++mnnxgAtnz5cuH23nvvMZ1Ox6ZMmSLKqFevXowxxtLT01mrVq2YwWBgbdq0YY0bN2YA2BNPPMGcTqcUc1EWL17MfHx8mNlsZo0bNxb3qH///uLcV199lZlMJgaA6XQ6ZjKZWJs2bdRReeSDDz5gKKeRfM5LL73EALDNmzervUqkR48eTKPRsGPHjqm9iuBpJL80dYLXxx9//FGKjbErV64wrVbLBg0aVOq42G2O5HNWrlzJALDx48cLt7Zt27KgoCDmcDiE2/jx45mfnx/bvn07A8A++OAD4ccYYzExMez+++93c+OUZSS/fv36zGAwMADMYDAUqU86nY698sorrEaNGkyj0TAA7NChQ2z79u3M39+f+fn5sWbNmrGEhAQGgD344INu8fNnZfr06SW2CYWFhaxFixbM19eXde7cmTVo0IBptVp29epV9s033xRpH/z8/Nj169eZy+ViL774IgPAwsLCWKNGjZiPjw/T6/Vs5syZbmkpLi9MaY86derEnnzySWY0GllERAQDwO655x52/Phx1qRJExYQEMACAwMZAFF3CIIoCol8otpxs5c3Ry3yP/vsMwaAbdu2jTHGmMPhYD169GC1atW67SkjZRH5ixYtYhs2bBBiMT8/n7Vt25b5+Pgwi8UiwnXt2pVptVpWs2ZNdvToUZaVlcUyMjJYTk4OCw0NZUlJSezChQuMMcays7PZyJEjRd64CAoJCREC4+TJkyw4OJjVqlVLXINfh4t8TnHTdebMmcMAsLlz5wq3vXv3MqPRyAYMGCDc3n//fQaATZkyRbht3bqVvfjii+J3cdN1yiryATCz2czWrl3LrFarmI7St29f5ufnx/bt2yfCc9G1cOFC4abm4MGDTK/Xs/bt27P09HTGlE5L//79GVTTOTIzMxkA9tprr0kx3JyKEPlffvklAyA6gsVx8eJF9scff7AffviB9enTh2k0Gvbee++pg3nEk8gvTZ04e/YsA8CeffZZEYYxxmbOnMkAsP/973+MlTIuVk4i/8KFCwyA6BQyxtjEiRMZALZjxw7h1rFjR9a9e3fmdDpZWFgY69y5s/A7cuQIA8A+/vhj4SZTFpHPbjJdR6fTMa1Wy7p3785u3LjB/v77b2az2djvv//O5syZwwoKChhTOkrDhg1jANhvv/0mzudlFhoaWmKbsGzZMgaA/d///Z9w27t3L7PZbOJ306ZNWdOmTcVvxhibNWsWA8Beeukl8UynpaWxxo0bM51OJ0Q8KyEvTGmPALAWLVqIZ3nMmDEMyoDAgAEDWH5+PrNarSJsaTqoBHE3QiKfqHbwl7dGo2E6nc7tWLVqlQinFvkDBgxgMTEx4jeTXkwliYXSUBaR74kPP/yQAWAnT54Ubl27dmV6vZ7t37/fLSwXc0uWLHFzl+Ev9I0bN7q5v/DCCwwAu3r1qnAri8hv2rQpa9y4sdqZPfbYYywsLEz8rlWrFqtVq1aJI+blKfLVwjYjI4PpdDo2bNgwN3en08lCQ0PZE0884eYuM2TIEAZpZJGTmZnJzGYza926tZsbqojI5/7vv/++2suNvn37MgDi6N27t/gCdDM8ifzS1okOHTqwoKAgt47sfffdx+Li4kQ9KW1c5SHyuf8DDzwg3Pbs2cMAsEmTJjGmdMCNRiP76KOPGFPWLxiNRpaXl8cYY2zGjBkMQLHlV94iPzExkeXk5Ki9irBr1y4GgM2fP1+43axN4F9KeEdL/dVFxpPIb9CgAYuOjmZWq9XNfePGjQwAe/PNN4VbSXnp2rUrCwwMFB1spnyVA8DatWvn1qasWbOGAWArVqwQbgRB/H9oTj5RbWnRogWmTp3qdvD5xZ6IiIjA9evX3WxrHzlyBDqdDnFxcW5hKxrGGLZv347ly5dj2rRp2LVrF6BYBJGJiopC8+bN3dz4HOKS8sqpXbu2228+Hzs3N9fNvTTY7XYcOnQIVqsVI0eOdDvOnTuH69evIy8vD3l5eTh37hxatWoFrbZympgePXq4/T5w4ACcTieOHj3qls633noLUMxRFscff/yBkJAQNG7c2M09ODgYjRo1qlDLJ99//z0GDBggjmeeeQapqanqYB7Jy8sDAAQGBqq93JgzZw5OnTqFXbt2YcaMGdi+fTtatGiBn3/+GVDWMQwePNgtHdw0rZrS1gkoFpuys7PFdS5fvozt27fj6aefhlarLVNc5YGn8mrVqhUiIiLEnPDt27fDZrOhS5cuAIBu3brBZrOJNTSbNm1CjRo10LBhQxFHRdKxY8di13McPXoUq1atwowZM8QaG3V7ghLaBF4ejz/+OKKiovDEE0/g1VdfLZXVsPz8fBw9ehTt27eH0Wh08+vYsSOgmD1VuxeXl4CAAISHh4vf4eHhMBqNSExMdGtTeLt948YN4UYQxP+nct7ABFEB1K9fH8OHD3c7atasqQ4m6N+/P2w2Gzp37oz3338f//73vzF37ly88sorMJvN6uAVxv79+1G7dm088MADmDVrFn755ZcybaDEX8ZBQUFqr5ui0WgApZNRVgoKCsAYg81mw5UrV9yORo0a4dVXX4Wfn99tpa+84GnIy8srktYePXrg+eefV58iyMnJQXBwsNoZUAShekFjeWKxWJCVleV2lPZeHT58GFCei5IICQlBnTp10LZtW7z66qtYt24dbDab6ABBseUvp6G4PRRKWycA4Mknn4TBYMDKlSsBAGvWrIHL5cKAAQPKHFd54Km8NBoNunXrhl27diE3NxebN29GcHAwWrRoAQB46KGHAAAbN26E0+nE1q1bi3QwK5vMzEx07twZjRo1wpQpU7BhwwYxaFAa1G1CVFQU9u7diwEDBmDx4sViL4WSTN3yQQNPz42vry8MBkOJC8JLA0+nJ7fSPiMEcbdBIp+4a5g7dy4aN26MBx54AD/99BOuXbuGBQsWYNq0aeqgFQZjDI8++ih0Oh1SU1Oxa9cu/PzzzxgyZIg6aLHwF+mVK1fUXhVKQEAAjEYjkpOTkZKSUuSYMWMGNBoNgoKCoNFobjl93Ib47YjpsLAwAECvXr2KpDMlJQUvv/yy+hRBeHg4rl696nG35IsXLxaxTlOe9O3bF+vXrxfHunXrkJiYqA5WBG4NJTAwEB06dFB7l0jLli0RGBgoRmx1Oh2+/fZbt3SMHj1afRpQhjoB5Z50794d69atQ0FBAVavXo1GjRqhadOmZY6rPFi+fDng4StQz5494XA4sHXrVmzZsgWdOnUSo8exsbHCmtEff/yB7Oxs9OzZ0+38yuaVV17B9u3bsWvXLhw8eBC//PIL5s6dqw5WJuLj4zF//nxcvHgRzz33HBYtWoSUlBR1MEFISAh0Op3HTb6uXLkCu92OhIQEtRdBEBUMiXzirmHnzp2Ij4/H5MmTsX37dvzwww8YPHhwkSklubm5OHbsmJtbeZGbm4uLFy/ivvvuQ0REhHBPT093C1cSrVu3BgB88803bu6ZmZm3LKzV+Pr6Iicnx81Nq9Wibdu2+P33392mPKkxm81o2LAhtmzZUuQz+tGjR8X/fOMy9XUiIyMBZcoNx+VyCXOVpaFZs2Ywm81Yu3at2uumdOjQAQUFBUXO3bNnD06cOFHiZld3AofDgaFDh+LMmTMYOXJkiaPd6vsBAMeOHUNOTg7q1q2r9roppa0TnAEDBiA/Px9z587Fzp078cwzzwi/ssZ1O3z55ZdYvnw5unTpIqaTcB566CFotVp899132Ldvn5iqw+nWrRuOHz+OJUuWwGQyoWvXrm7+t0Nxz0RJHDt2DHFxcW7T98rSnpREcHAwpkyZAihmYovDZDKhRYsW2LJlSxFzu/y5rWrPDUHcDZDIJ+4ann/+efz0008IDg5GTEwMkpKScO+992Ls2LHIzMwU4Z555hk0aNCgRJvnUOZP81FGl8uFtLQ08bs4sR0YGIikpCSsX78eW7duxYULF4Sd6NLyyCOPoG7dupg6dSreffddbNq0CTNnzhQjjOVBvXr1cOTIESxZsgTff/+9eMGPHj0aeXl56Nq1K9auXYsjR47g//7v/zB58mRMnDhRnP/GG28gPz8f3bp1w3fffYf169ejf//++Oc//+l2DQB499138b///Q+bN28GADRv3hx16tTB3LlzMXv2bGzcuBEPP/yw8C8N/v7+GDZsGHbu3Iknn3wSmzZtwtGjR7Fx40YMHz4c3377rfoUwdChQ+Hv749BgwZh/vz52LVrFxYsWIBHHnkEwcHBGDt2rPqUUnHu3DlRP3gHZuPGjUhJSSnTfduyZQtmzpyJadOm4Y033sA999yDBQsWYMCAAXj77bfVwd2oVasWnnnmGXz99df47bffsHDhQjz88MMAgHHjxqmDl4rS1gkodTcwMBBvv/02NBoN+vXr5+ZflrhKy8mTJzFz5kzMmDED48aNQ4cOHfDcc8+hWbNmWLFihTo4wsLC0KZNGyxfvhwOh8OjyAeAxYsXo1OnTiV2qsoKfyZmzZqFzZs3Y9WqVeogRWjRogUuXLiARYsW4eLFi/j666/Rt2/fW/7q8cILL+Cdd97Bn3/+iWPHjmHSpEkAgE6dOqmDujF69GixfoHb/J84cSLefvtttGnTBr1791afQhBERaNeiUsQVZ38/Hym1Wrddqv0hMlkcgszadIkZjab2bRp09i8efPY9OnT2csvv8wMBgPr0qWLCNe3b1+m0WjY1q1bhZsnuO10T4ds5UfNjh07WM2aNUXY5s2bi10zZSsd3bp1YzVr1nQ7l3Pq1CnWrl07EYfBYGDPPPMMy87OZkyy3nLu3Dm38zy5e7rOgQMHWHx8PINixejnn38Wfl9//TWrUaOGW34TExOL7Lb64YcfMn9/fxEmKSmJff/998I/JyeHtW/fXviPHTtW+O3du5clJiYKv549e7I//viDAWArV64U4Tzlh+NwONjbb7/NAgICRDwajYa1bNmS/fHHH+rgbuzatYu1aNHCLY/33ntvEYs7OTk5TKPRCBv/JcEtsXg6kpOT1cGLsHfvXqbX68U5JpOJJSQksCeeeIJt2LBBHdwj06dPdytXAKx27dqltk6yc+dOBg8765a2TjDJmovajjunNHGVdN85drtd2FgHwPR6PYuIiGBdu3Zlc+fOdbPyo4Zbu4qNjS2yw63FYmHBwcEMHnbHVcMt1cimLG/G0KFDRZo7dOgg3NXtGefq1avsvvvuE+dER0ezVatWsaCgIDf79MWVmdp92bJlLDQ0VMQXFBTEPv30U7dzWrZsyVq1auXmxhhjS5cuZbGxseJcg8HA+vXrx27cuOEWrri8sGLaI8YY8/PzczOjyhgTbYJscpUgiP+PhtGKFaIaUlBQAJPJJOZve6KwsBAGgwF6vR6XL19GQkICxo8fjwkTJriFe/7557FkyRLk5+fDbDbD6XQiPz//plZKbgeXyyV2buVzrgsKCsTneijzrF0uF0wmk3BTc+XKFdy4cQM1atSAv7+/cHe5XCgsLCwyysgYQ0FBgZt7cddxuVxITU1FQECAmOMu8/fffyM3NxcRERFuU49kbDYbzp49C7PZXOzc8itXrsBms6FGjRpu7k6nE2fOnEFgYCCio6MBxYqHnPbi8injcDhw/vx5OJ1OxMbGFmvRwxNXr17F9evXERkZ6WbtQ6agoAA+Pj5Fpn1VZdLS0nDjxg2EhIQgNjZW7V0ieXl5bnVNpjR1Asp0FH9//xLLrKS4SnPfb5fc3Fz4+PjAYDCovWC322G1WostBw5jDPn5+TcNpyYnJwfXrl1DrVq1RBsnt2eeuHr1KrKyslCnTh3odDpYLBaYTCYxol9cmXlqE5xOJ86ePQudTocaNWoUuSZfRKu2pAMlvgsXLsBisSAhIaHI9XCTvBTXHhV3Tl5eHvz8/G75ywVBeDMk8om7gmPHjqFBgwZ47bXX3MwBZmVloX379igsLCzRrCJBEARBEER1gkQ+cVfAGEP37t3xyy+/oHHjxqhfv76bvetvv/22yNxbgiAIgiCI6gqJfOKugTGGX375Bdu3b8eNGzfg4+OD5ORk9OrVCyEhIergBEEQBEEQ1RYS+QRBEARBEAThZRS/6okgCIIgCIIgiGoJiXyCIAiCIAiC8DJI5BMEQRAEQRCEl0EinyAIgiAIgiC8DBL5BEEQBEEQBOFlkMgnCIIgCIIgCC+DRD5BEARBEARBeBkk8gmCIAiCIAjCyyCRTxAEQRAEQRBeBol8giAIgiAIgvAySOQTBEEQBEEQhJfx/wCD8PoL5TsOSgAAAABJRU5ErkJggg==;" vertex="1" parent="1">
          <mxGeometry x="70" y="380" width="761" height="410" as="geometry" />
        </mxCell>
      </root>
    </mxGraphModel>
  </diagram>
</mxfile>
